<?xml version="1.0" encoding="utf-8"?>
<!-- Generator: Adobe Illustrator 27.6.1, SVG Export Plug-In . SVG Version: 6.00 Build 0)  -->
<svg version="1.1" id="a" xmlns="http://www.w3.org/2000/svg" xmlns:xlink="http://www.w3.org/1999/xlink" x="0px" y="0px"
	 viewBox="0 0 1344 896" style="enable-background:new 0 0 1344 896;" xml:space="preserve">
<style type="text/css">
	.st0{opacity:0.1;clip-path:url(#SVGID_00000149379442650086431810000018119556036228168843_);}
	.st1{fill:#121212;}
</style>
<g>
	<defs>
		<rect id="SVGID_1_" y="0" width="1344" height="896"/>
	</defs>
	<clipPath id="SVGID_00000126305473777275515190000012729489547069697936_">
		<use xlink:href="#SVGID_1_"  style="overflow:visible;"/>
	</clipPath>
	<g style="opacity:0.1;clip-path:url(#SVGID_00000126305473777275515190000012729489547069697936_);">
		<path class="st1" d="M41.5,33C42,20.5,52.1,9.5,61.8,0H42.3C32,8.9,26.8,20.1,26.5,33.3c-0.2,10.5-3.1,17.5-11.6,24.3
			C9.3,62.1,4.3,65.5,0,68v14.7C17.2,65.7,40.1,62.7,41.5,33z"/>
		<path class="st1" d="M21.5,115.4c6.1-8.9,10.7-16.5,20-22.5c8.7-5.6,20.4-7.4,29.9-12.9C84.4,72.5,88,62.7,93.5,48.6
			c2.3-5.8,6-10.2,9.6-15.2c6.7-9.3,9.6-18.2,6-29.7c-0.4-1.2-0.7-2.5-1-3.7H87.6C94,6.6,97,15.6,90.1,23.1
			c-3.8,4.1-9,7.7-12.3,13.2c-4.3,7.1-4.7,16.3-9.2,23.3C62,69.9,52.7,73.2,41.8,77.5c-17.4,6.9-25,16.6-33.3,33
			c-2,3.9-4.8,7.4-8.5,10.5v15.1C8.7,130.6,15.5,124.2,21.5,115.4L21.5,115.4z"/>
		<path class="st1" d="M132.7,65c-4.8,3-8.8,6.1-12.1,9.3c-5.6,5.5-8.8,13.9-13.6,19.4c-9,10.2-19.1,12-32.2,14.8
			c-18.7,3.9-26.9,16.9-37.5,31.1c-5.8,7.8-13.9,13.8-23.3,17c-4.7,1.6-10.9,4.1-11.8,8.2c-1.3,6.3,6.4,8.1,11,7.2
			c15.1-3.1,27.7-14,36.5-26.5c8.1-11.6,15.2-20.4,29.3-24.5c14.7-4.3,28.5-6,39.2-18.8c4-4.8,7.5-15,14.1-18
			c14.2-6.5,27.3-19.5,22.5-36.3c-2-6.9-7.7-12.4-8.4-19.4c-0.8-7.3,4.8-13.9,8.7-19.6c1.3-1.9,2.3-4.9,3.1-8.9h-14.8
			c0.1,5.6-4.3,11.3-7.7,16.1c-5.3,7.5-4.4,15.3-0.9,23.2C138.5,47.6,142.4,58.8,132.7,65z"/>
		<path class="st1" d="M202.4,76.7c10,7.4,21,13.3,32.8,17.6c13.9,5.1,22-7.6,23.5-19.6c1.4-10.4-7.9-12.8-16.2-11.9
			c-14.2,1.6-31.9,2-43.1-8.6c-12.7-12.1-9-39.3-2.9-54.2h-13c-2.7,10.4-4.2,17.1-4.6,20.2C175.7,44.8,182.6,62,202.4,76.7
			L202.4,76.7z"/>
		<path class="st1" d="M258,39c4.9,2.5,9.6,2.3,14.1-0.6c6-3.8,16-16.4,4.9-21.4C262.9,10.6,251.8,5.3,243.8,1
			c-0.2-0.1-0.3-0.3-0.3-0.6c0-0.2,0.1-0.4,0.4-0.4h-25.5c-0.3,5.6,1.6,10.7,5.9,15.1C234.3,25.8,245.5,32.7,258,39z"/>
		<path class="st1" d="M484.2,56.1c14-1.9,21.3-13,23.5-26.1c1.6-9.3,2.7-19.3,3.3-30h-10.5c-0.8,10.1-2.2,37.5-10.7,43.8
			c-4.4,3.3-8.1-0.9-7.4-5.6c1.2-7.4,3.5-20.1,6.8-38.2h-10c-1.6,9.4-3.1,18.8-4.6,28.2c-0.5,3.4-1.6,8.2-5.5,9
			C455.9,40,464.9,5.3,466.3,0h-12.5c-1.6,6.8-2.8,15-3.7,24.5C448.1,45.3,464.1,58.9,484.2,56.1L484.2,56.1z"/>
		<path class="st1" d="M607.7,113.8c10.4,7.2,19.8,10.6,30.6,1.3c4.1-3.5,7.8-7.5,11-11.9c6.6-7,13-14.3,19-21.9l6.5-7.8
			c9.8-11,12.1-26.3,0-36.7c-5.7-4.9-18.4-14-24.7-4.6c-1.7,2.5-3,6.2-4,11l-3.2,9.6l-9.5,24.6c-4,8.9-5.8,17.9-17.3,11.3
			c-12.6-7.2-23.5-15.8-32.7-25.7c-16.5-17.8-22.7-39.6-25.8-63h-20.5C545.1,44.9,569.7,87.7,607.7,113.8z M632.7,83.8
			c-0.1,0-0.1-0.1-0.2-0.1c0,0,0,0,0-0.1C632.6,83.7,632.6,83.8,632.7,83.8z"/>
		<path class="st1" d="M643.9,20.3c2.3-3,0.3-6.3-2.6-8.1C634.4,8.1,627.4,4,620.4,0h-20.6c10.7,6.6,21.6,12.9,32.5,19.1
			C635.6,21,641.2,23.9,643.9,20.3L643.9,20.3z"/>
		<path class="st1" d="M671.8,0h-10.8C664.6,2,669.7,6.9,671.8,0z"/>
		<path class="st1" d="M767.2,38.1c9.5,3.4,17.6-4.7,7.8-11.7c-12.1-8.7-24.3-17.3-36.4-26c-0.1-0.1-0.1-0.1,0-0.2
			c0-0.1,0.1-0.1,0.1-0.2h-20.8C727.1,17.5,749.1,31.6,767.2,38.1z"/>
		<path class="st1" d="M782.6,0h-22.5C764.7,2.7,782.5,13.2,782.6,0z"/>
		<path class="st1" d="M818.5,13.7c13.5,4.8,17.9-4.4,23.8-13.7h-36.2C802.3,8.8,811.9,11.4,818.5,13.7z"/>
		<path class="st1" d="M876.8,6.1c5.7-0.8,10.7-2.8,14.7-6.1H860C864.2,5,869.8,7.1,876.8,6.1L876.8,6.1z"/>
		<path class="st1" d="M886.7,41.4c6.8,8.9,20.7-4.3,25.6-10.3C920.8,20.9,929,10.5,937.1,0h-19.8c-4.6,6.9-12.2,19.9-18.4,23.7
			C893.9,26.8,880.2,33,886.7,41.4z"/>
		<path class="st1" d="M998,118.2c23.2,1.6,44.9-4.4,67.7-7.4c18.8-2.6,40.2,0,58-7.5c17.4-7.3,31.4-25.1,28.9-45
			c-0.2-1.4-0.9-4.3-2.1-8.9c-6.1-23,7.4-35.4,22.8-49.4h-22c-12.7,12.1-19.2,24-16.5,42.3c1,7.1,3.1,15.9,2.7,22
			c-1.6,23.7-30.7,30.2-49.4,28.7c-13.4-1.1-25.7-0.3-36.7,2.5c-22.5,5.6-45.4,11.4-68,2.5c-45.2-17.7-22.8-69.7-6-98h-13.8
			c-12.5,22.7-24.1,50.8-17,77.3C953.3,101.5,972.6,116.5,998,118.2L998,118.2z"/>
		<path class="st1" d="M1012.8,78.4c25,7.6,69.1-20.3,85-38.5c10.3-11.8,14.1-26.8,22.3-39.9h-19c-1.8,4.6-3.7,9.3-5.5,13.9
			c-9.9,25.1-38.6,43.1-64.6,47.8c-7.7,1.4-20.4-0.5-24.4-8.4c-4-8,3.2-14.6,8.1-19.9c8.8-9.4,12.5-20.6,11.1-33.5h-15.5
			c3.2,18.5-10.8,23-16.7,37.1C986.4,54.3,994.9,72.9,1012.8,78.4L1012.8,78.4z"/>
		<path class="st1" d="M1052.2,20.3c8.7,6.6,18.3-3.6,10.9-11.6c-3-3.2-5.4-6.1-7.4-8.6h-17.9C1040.6,8.3,1045.4,15.1,1052.2,20.3z"
			/>
		<path class="st1" d="M1211.6,79.4c7.3-0.2,4.4-15.6,4.4-20.1c-0.1-20.2,2.6-39.9,8.1-59.3h-16.2c-3.6,13.2-5.7,24.6-6.3,34.2
			C1201,41,1200.1,79.7,1211.6,79.4z"/>
		<path class="st1" d="M1326.2,84.7c-8.7,8.4-32,27.2-39.7,5.8c-3.5-9.8-5.3-20.2-5.3-31.3c0-23.4,12.7-41.8,35-50.1
			c7.9-2.9,15.7-6,23.6-9.1h-40.6c-18.4,12.2-28.4,29.5-29.9,51.7c-1,14.1,0.3,28.2,3.7,42.3c4.8,19.9,19.6,33.3,39.2,17.2
			c9.6-7.9,20-17.3,31.1-28.2c0.1-0.1,0.3-0.2,0.5-0.1c0.1,0.1,0.2,0.1,0.2,0.2V68.8C1339.1,72.7,1333.2,78,1326.2,84.7L1326.2,84.7
			z"/>
		<path class="st1" d="M302.6,14.1c1.9,0.8,3.9,1.3,6,1.6c15.5,2.3,30.9,4.7,46.3,7.1c10.5,1.6,12.5-9.8,1.6-12.1
			c-19-3.9-35.9-6.6-50.9-7.8C298.7,2.3,294.3,10.8,302.6,14.1L302.6,14.1z"/>
		
			<ellipse transform="matrix(0.9415 -0.3371 0.3371 0.9415 33.126 237.4832)" class="st1" cx="700.4" cy="23.3" rx="13.7" ry="16.3"/>
		<path class="st1" d="M423.4,22.5c4.1,0,7.4-3.3,7.4-7.4s-3.3-7.4-7.4-7.4S416,11,416,15.1S419.4,22.5,423.4,22.5z"/>
		<path class="st1" d="M590,23c9.1,7.5,18.3,14.8,27.6,22.1c2.1,1.7,4,4.1,6.7,2c2-1.5,2-4.2,0.1-5.7c-7.1-5.7-16.7-12.8-28.8-21.4
			c-1.5-1.1-2.7-1.7-3.3-1.9C589.1,17.4,587.7,21.1,590,23z"/>
		<path class="st1" d="M803.5,44.3c8.7,6.4,17.8,12,27.4,16.9c5.5,2.8,9.9,1.9,13.2-2.8c2.8-4.1,8.9-14,18.2-29.8
			c2.1-3.5,1.4-7.7-2.7-8.9c-11.7-3.2-14.7,28.2-29.8,19.9c-3.1-1.7-9.6-4.8-19.5-9.3c-4.5-2.1-9.1-3.3-12,1.4
			C795.2,36.4,799.7,41.5,803.5,44.3z"/>
		<path class="st1" d="M1031.2,46.9c5.5,3,22.4-7.8,17.5-14.5c-4.8-6.6-15,1.9-18.5,5.8C1027.6,40.9,1027.8,45,1031.2,46.9z"/>
		<path class="st1" d="M293.6,36.7c1.6,1.8,3.4,3,5.4,3.6c14.8,4.5,31.5,9,50.3,13.5c3.4,0.8,7.9,2.1,10.5,0.7c4-2.2,3.7-7.6,1-10.1
			c-1.9-1.8-5.6-3-8.3-3.7C335.9,36.5,319,33,302,30.3c-4.8-0.8-9.2-0.7-8.8,5.5C293.2,36.1,293.4,36.4,293.6,36.7z"/>
		<path class="st1" d="M610.9,63.9c4.7,4.2,9.7-0.4,5.2-4.8c-8.9-8.6-18-16.9-27.3-25.1c-4-3.5-8.5,0.4-5.3,3.7
			C589.9,44.5,599,53.2,610.9,63.9L610.9,63.9z"/>
		
			<ellipse transform="matrix(0.8415 -0.5402 0.5402 0.8415 84.7927 408.6662)" class="st1" cx="738.9" cy="59.8" rx="13" ry="14.1"/>
		<path class="st1" d="M530.2,115.7c1.5,5.4,8.3,4.2,8.7-1c1.3-16.7,0.8-34.7-1.4-53.9c-2.2-19.5-20.1-16.5-17.8,2.5
			C522.1,81.7,525.5,99.1,530.2,115.7z"/>
		<path class="st1" d="M886.5,77.3c8.2-16.2-16.7-41.2-24.8-21.9c-4.6,11,0.7,29.6,15,28.1C881.4,83.1,884.6,81,886.5,77.3z"/>
		<path class="st1" d="M279.3,57.6c-1.5,1.8-1.9,3.7-1.2,5.7c1.5,4.2,5.1,5,10,6.4c17.9,5.2,35.8,10.1,53.8,14.6
			c4.9,1.2,11.8,1.4,13.8-4.3c3-8.7-7.1-10.6-12.7-12.1c-17.4-4.4-34.8-8.4-52.3-12.1C287,55,282.1,54.1,279.3,57.6L279.3,57.6z"/>
		<path class="st1" d="M814.8,76.5c-1.9-11-27.4-1.5-33.7,0.8c-7.3,2.8-9.5,8.3-4.7,14.9c11.2,15.3,26.3,32.2,38.3,44.8
			c1.9,2,5.1,4.9,7.1,5.9c8.1,4.1,18.5-4.6,10-11.7c-7.8-6.5-15.5-13.2-23.1-19.9C780.4,86.5,816.6,87.2,814.8,76.5L814.8,76.5z"/>
		<path class="st1" d="M171.6,99.7c5.3,1.6,10.7-1.3,12.2-6.3s-1.6-10.4-6.8-12s-10.7,1.3-12.2,6.3
			C163.3,92.8,166.4,98.1,171.6,99.7z"/>
		<path class="st1" d="M335,100.9c-19.4-7-37.1-12.6-52.9-16.9c-3.1-0.8-6.2-1.8-9-0.2c-4.9,2.8-6.3,9.7-1.5,13.5
			c2.6,2,6.9,3.2,10.3,4c17.5,4.4,35.1,8.5,52.8,12.1c3.9,0.8,8.4,0.2,8.9-4.2C344.2,104.8,338.5,102.2,335,100.9z"/>
		<path class="st1" d="M673,105.2c-6.8,7.3-12.1,15.7-15.8,25c-13.4,31.4-5.8,69.7,12.8,97c14.8,21.8,37.4,32.5,64.2,30.3
			c6.7-0.5,7.5-8,1.5-10.1c-30.7-10.4-61.8-25.1-65.6-61.7c-2.1-20,1.7-42.6,12.5-60.1c16.1-20,28.9-10.6,47.5-2.9
			c24.5,10.4,49,23.6,69.9,40.3c8.9,7.2,18.5,17.2,27.8,25.8c6.4,5.9,11.9,0.1,6.4-6.7c-14.6-17.9-31.2-35-51-53.4
			c-7.8-7.8-15.9-15.5-24.2-22.8L745,94.7c-19.2-11.1-26-11.7-26-11.7C690,82.8,676,101.9,673,105.2L673,105.2z"/>
		<path class="st1" d="M469.4,92.1c-5,3.4-19.2,14.3-16.7,21.5c3.3,9.5,29-0.3,35.2-2.9C505.9,103.2,484.4,82,469.4,92.1z"/>
		<path class="st1" d="M842.7,93.9c-4.5,0.4-31.2,4.7-19.2,14.6c6.5,5.4,16.7,13.8,24.3,14.6c10,1.1,20-11.5,14.9-20.7
			C859,95.6,850.2,93.2,842.7,93.9z"/>
		<path class="st1" d="M355.4,133.9c-7.9,19.5,1.1,41.5,20.1,49.2l0,0c19,7.7,40.7-1.9,48.6-21.4l0,0c7.9-19.5-1.1-41.5-20.1-49.2
			l0,0C385.1,104.8,363.3,114.3,355.4,133.9z M390,137.7c8,0,14.5,6.5,14.5,14.5s-6.5,14.5-14.5,14.5s-14.5-6.5-14.5-14.5
			S382,137.7,390,137.7z"/>
		<path class="st1" d="M137,119.5c-0.2,3.8,2.9,7.1,6.9,7.2c3.9,0.2,7.3-2.8,7.5-6.6c0.2-3.8-2.9-7.1-6.9-7.2
			C140.5,112.7,137.2,115.7,137,119.5z"/>
		
			<ellipse transform="matrix(8.889427e-02 -0.996 0.996 8.889427e-02 914.3962 1248.2834)" class="st1" cx="1139.5" cy="124.3" rx="9.7" ry="9.1"/>
		<path class="st1" d="M267,132.2c19.6,5,37.6,9.2,53.7,12.5c6.3,1.3,12.6,1.6,14.8-5.2c1.8-5.6-2.2-8.7-7.2-9.9
			c-23.7-5.6-41.5-9.4-53.5-11.6c-1.4-0.2-3.4-0.4-6-0.6C258.4,117.1,255.6,129.3,267,132.2L267,132.2z"/>
		<path class="st1" d="M222.8,118c-15.9-2.6-22.1,62-22.6,73c-0.2,4.5,0.1,8.4,0.9,11.8c1.1,5.1,6.2,6.2,9.5,2.4
			c1.2-1.4,2-3,2.6-4.7c7-22.5,15.1-50.2,16.9-71.5C230.5,123.8,228.2,118.9,222.8,118z"/>
		<path class="st1" d="M1300.5,152.5c-3.4,3.4-2,8.7,3,9.2c5.3,0.6,16.9-10.2,21.3-13.6c5.8-4.4,12.4-7.9,18.8-11.7
			c0.1,0,0.1,0,0.1,0c0.1,0,0.1,0.1,0.2,0.1v-15c-8.8,7-19.3,12.3-24.9,16.2C1310.5,143.8,1304.3,148.7,1300.5,152.5L1300.5,152.5z"
			/>
		<path class="st1" d="M463,239.5c-6.1,50.8,49.3,67.7,88,72.8c16.6,2.2,36.5,2,51.7-4.9c17.2-7.8,27.2-22.3,15.5-40.4
			c-3.7-5.7-9.7-11.9-12.3-17.5c-5-10.8-3.4-24.8-0.4-36.3c6.6-25.2,17.9-68.6-10.2-86.4c-14.9-9.4-32.4-2.1-45.8,6.9
			c-26,17.7-50.9,40.5-69.4,66.4C471.6,212.2,464.6,225.8,463,239.5L463,239.5z M544.8,160.1c8.7-7.1,18.9-14.8,30.8-12.3
			c12.1,2.6,18.6,15.2,19.5,26.9c1.4,18.7-4.3,32.6-11.6,49.1c-4.6,10.4-6.3,23.3,1.5,32.6c4.7,5.5,12.7,9.2,16.2,16.5
			c4.8,9.9-3.7,14.8-12.5,15.7c-23.9,2.4-44.2-2.3-69.3-8.7c-16.8-4.2-34.3-13.2-37.3-31.3C477.1,217.1,523.3,177.7,544.8,160.1
			L544.8,160.1z"/>
		<path class="st1" d="M1181.8,136.1l6.5,5.4c7.6,6.7,13.7,11.6,18.3,14.7c3.4,2.3,7.8,1.6,11.3-0.6c17-10.8,29.3-27.7,32-47.8
			c0.8-5.7,0.6-14.1,0.3-19.2c-1.1-28.7-1.9-62.4,11.9-88.6h-20c-7.4,23.6-9,48.3-8,73.4c1,26.4,3.8,46.8-13.2,67.3
			c-3.7,4.4-9,8.9-15,7c-5.3-3.5-10.4-7.4-15.3-11.6c-3.4-2.7-12.8-10.8-15.7-9.3C1171.9,128.3,1179,134,1181.8,136.1L1181.8,136.1z
			"/>
		<path class="st1" d="M483.8,144.9c7.6-16.9-19.8-12.5-26.5-11.4c-8.7,1.4-11,10.3-6.4,17.2C460,164.3,478.2,157.5,483.8,144.9
			L483.8,144.9z"/>
		<path class="st1" d="M1174.2,225.3c4.9-12.2,2.3-22.2-7.5-30.2c-7.5-6.1-20.1-8-29.4-8.7c-23.1-1.6-44.7,1.4-56.5,23.9
			c-0.3,0.6-0.3,1.5,0.1,2.6c2.5,7.9,13.4-4.8,16.3-6.9c14-9.6,33.3-11.6,49-6.3c6.5,2.2,11.1,5.2,13.6,9.1
			c8.7,12.9-6.9,24.6-13,36.1c-7.8,14.7-5.1,31.4-11,46.5c-6,15.1-18.3,25-33.9,29.3c-16.4,4.5-32.3,1.3-47.8-5.5
			c-8.9-3.9-20.4-8.4-21.6-19.6c-1.4-13.9,9.9-15.2,17.7-22.1c10.3-9.1,16.8-26.9,21.3-38.3c0.6-1.5,0.3-2.8-0.8-3.8
			c-2.8-2.5-6.1,0.2-7.5,2.8c-3.9,6.7-7.8,13.4-11.7,20.1c-3.3,5.6-7.7,12.4-14,14.8c-0.3,0.1-0.6,0.1-0.9,0
			c-5.5-1.6-2.2-8.1-0.6-12.3c2.1-5.3,6.6-15.7,13.6-31.1c4.2-9.3,6.9-19.4,4.9-29.4c-1-4.8-3.8-10.8-5.3-15.8
			c-4.2-13.9,4.3-27.6,18-32c9.6-3.1,16.9,0.6,25.3,6.5c8.5,6,16.4,11.7,26.7,14.5c7.3,2,11.4-4.9,5-9c-7.8-4.9-16.8-10.2-27.3-15.9
			c-10.5-5.7-19.2-9.1-30.1-7.1c-19.9,3.6-32.7,22.2-29.5,42.4c1.6,10.1,6.8,18.9,3.1,32.3c-3.2,11.6-8.7,22.7-13.2,33.9
			c-5.1,12.7-8.3,25.8-9.4,39.4c-1,12.4,2.8,22.2,11.6,29.6c29.7,24.9,76.1,28,105.2,0.4c11.7-11,15.9-23.9,18.2-39.5
			c1.2-8,1.7-16.5,5-24.2C1161.6,242.1,1170.2,235,1174.2,225.3L1174.2,225.3z"/>
		<path class="st1" d="M99.7,143.6c-0.5,3.7,2.3,7.1,6.1,7.6s7.4-2.1,7.9-5.8s-2.3-7.1-6.1-7.6S100.2,140,99.7,143.6z"/>
		<path class="st1" d="M1015.8,158.8c-6-28.1-31.2-23.2-39.8-1.1c-6.6,17-7.5,38.4-5.8,56.4c1.2,11.7,9.2,42.4,28.3,32
			c7.7-4.2,12.6-16.2,14.9-24.6C1019,201.3,1020.2,179.3,1015.8,158.8L1015.8,158.8z M1002.7,219.5c-1.3,4.9-4.7,16.3-11.7,15.4
			c-6-0.8-8.6-8.8-9.4-14c-2.9-18.1-2.7-36.1,0.8-54.1c0.5-2.7,1.6-5.1,3.2-7.3c3.4-4.6,9.8-2.8,12.6,1.4c1.2,1.8,2.1,3.8,2.8,5.9
			C1006.8,184.3,1007.4,201.9,1002.7,219.5L1002.7,219.5z"/>
		<circle class="st1" cx="692.8" cy="148.5" r="6.9"/>
		<path class="st1" d="M1249.9,150.7c-5.6,8.1,0.3,13.3,7.7,15.7c5.8,1.9,20.8,4.2,21.5-5.1C1279.9,149.9,1257,140.4,1249.9,150.7z"
			/>
		<path class="st1" d="M252.9,150.9c-6.9,10,12.1,15,17.9,16.3c14.7,3.1,29.4,6.2,45.4,8.6c3.1,0.5,6,0.1,8.5-1.1
			c4.4-2.1,4.9-6.8,1-9.8c-1.6-1.2-4.5-2.4-9-3.6c-17.4-4.8-34.9-9-52.5-12.4C260.2,147.9,255.6,147,252.9,150.9z"/>
		
			<ellipse transform="matrix(0.1702 -0.9854 0.9854 0.1702 455.6373 862.3837)" class="st1" cx="739.9" cy="160.6" rx="12.5" ry="13.1"/>
		<path class="st1" d="M1141,158.4c-4.3,12.3,25.9,21,33.3,20.2c7.8-0.8,10.2-7.6,5.4-13.2c-4.9-5.8-12.9-10.6-19.3-13.5
			C1153,148.6,1143.8,150.4,1141,158.4L1141,158.4z"/>
		<path class="st1" d="M849.9,157.4c-5.1,7.1-0.5,15.2,4.7,21c6.7,7.6,14.9,2.9,17.3-5.2C875.3,161.9,858.1,146.1,849.9,157.4
			L849.9,157.4z"/>
		<path class="st1" d="M104,184.8c22.6,0.7,44.1,6.1,64.6,16.4c2.6,1.3,6.8,1.7,9-0.7c7.5-8.2-17.4-19.6-22.8-21.8
			c-32.9-13.2-71.9-10.8-104.7,1.4c-16.8,6.3-33.3,13.3-49.5,21c-0.1,0.1-0.2,0.1-0.4,0c-0.1-0.1-0.2-0.1-0.2-0.2v9.8
			C32.9,196.5,67.9,183.7,104,184.8z"/>
		<path class="st1" d="M788.4,173.6c-12.2-9.2-31.6,10.6-19.8,23.2c5.2,5.5,15,5.3,21,1.9C801.5,192.1,797.2,180.1,788.4,173.6z"/>
		<path class="st1" d="M1232.1,189.5c8.6,0.9,10.9-7.7,2.7-10.1c-9.2-2.7-18.4-4.9-27.8-6.4c-2.8-0.5-4.7-0.5-5.9-0.2
			c-4.7,1.2-6.4,6-3.4,9.8C1201.1,186.8,1226,188.9,1232.1,189.5z"/>
		<path class="st1" d="M514.1,261.1c5.7,4.9,17,7.6,25.1,9.6c6,1.5,12.5,1,10.5-7.6c-1.8-7.8-0.8-15.7,2.9-23.5
			c5.5-11.7,22.3-41.6,19.3-52.6c-5.3-19.7-23.8-3.7-31.3,3.2c-10.4,9.5-19.1,20.1-26.1,31.6C507.8,233,502.1,250.9,514.1,261.1
			L514.1,261.1z"/>
		
			<ellipse transform="matrix(0.9789 -0.2045 0.2045 0.9789 -23.7772 148.8242)" class="st1" cx="708.2" cy="189.5" rx="10.5" ry="10.2"/>
		<path class="st1" d="M239.5,190c-0.9,6.8,0.1,17.2-3.8,25c-1.8,3.7-5.1,7.2-8.1,10.5c-5.9,6.6-7.8,17.4-7.4,26.3
			c1.2,24.5,22.1,45.3,45.9,48.2c21.6,2.7,42.5-9.3,54.2-27.3c14-21.5,6-41.3-11.2-57.2c-6.4-5.9-13.1-9.1-20.3-9.7
			c-5.4-0.5-12.1-0.8-16.6-2.5c-9.3-3.6-10.7-11.2-16.1-18.6C249.8,176,240.8,181,239.5,190L239.5,190z M259.8,205.9
			c6.5,6.9,11.9,12.8,21.7,14.1c6.3,0.8,12,1.9,17.1,5.3c9.5,6.4,14.6,17.7,12.2,29c-7.5,35.9-74.2,40.3-77.9-2.3
			c-0.5-6,0.9-12.1,4.4-18.2c4.6-8.2,8.6-13,10-22.7c0.4-3.1,1-5,1.5-5.9C251.5,201.1,256.9,202.8,259.8,205.9L259.8,205.9z"/>
		<path class="st1" d="M1312.3,190c0.4-4.3-4.3-4-7.1-2.8c-16.8,7.1-33.5,14.3-50.3,21.5c-6.8,2.9-2.3,9.1,3.6,6.7
			c16.3-6.4,32.4-13.2,48.4-20.3C1309.1,194.1,1312,192.8,1312.3,190z"/>
		<path class="st1" d="M347.4,195.6c-3.2-2.1-6.3-3.4-9.2-4c-10.1-1.9-17.5,10.3-7.7,16.2c2.8,1.7,8.3,4.7,16.4,9.1
			c17.6,9.4,18.1,26.3,5,40.1c-3.8,4-7.6,8-11.4,12.1c-3,3.2-4.1,7.1-0.9,10.8c2.6,2.9,8.1,1.5,11.2,0.1
			c9.5-4.5,17.1-11.1,23.1-19.7C391.6,234.5,368,208.9,347.4,195.6L347.4,195.6z"/>
		<path class="st1" d="M82.9,208.2c-0.5-5.8-5.6-10.1-11.6-9.6s-10.3,5.6-9.9,11.4s5.6,10.1,11.6,9.6S83.3,214,82.9,208.2z"/>
		
			<ellipse transform="matrix(0.6361 -0.7716 0.7716 0.6361 162.3548 763.6697)" class="st1" cx="890.8" cy="209.7" rx="10.1" ry="11.6"/>
		<path class="st1" d="M109.7,199.8c-6.3,1.6-10,8.3-8.3,14.9c1.7,6.6,8.2,10.6,14.5,8.9s10-8.3,8.3-14.9
			C122.5,202.1,116,198.2,109.7,199.8L109.7,199.8z"/>
		<path class="st1" d="M1310.3,218c-4.9,3.6,1.1,7.5,5.4,5.6c11.1-5.1,20.5-9.2,28.2-12.4v-9.9c-9.3,4.4-18.5,8.8-27.8,13.2
			C1314.2,215.5,1312.2,216.7,1310.3,218L1310.3,218z"/>
		<path class="st1" d="M1189,210.9c0.1,4.4,5.1,5.5,8.8,5.5c6.8,0,31.9-0.2,36.2-5.1c4.4-5,0.2-9.1-5.5-9.1
			c-9.8,0-19.7,0.4-29.4,1.1C1194.8,203.7,1188.9,205.8,1189,210.9z"/>
		<path class="st1" d="M841.8,208.3c-15.8,0-28.6,12.8-28.6,28.6l0,0c0,15.8,12.8,28.6,28.6,28.6s28.6-12.8,28.6-28.6
			S857.6,208.3,841.8,208.3L841.8,208.3z M851.8,231.6c3.8,5.5,2.6,13.1-2.9,16.9c-5.4,3.8-13,2.4-16.8-3.2
			c-3.8-5.5-2.6-13.1,2.9-16.9C840.4,224.7,847.9,226.1,851.8,231.6z"/>
		
			<ellipse transform="matrix(5.059297e-02 -0.9987 0.9987 5.059297e-02 476.605 940.0099)" class="st1" cx="732.7" cy="219.3" rx="9.2" ry="10.1"/>
		<path class="st1" d="M147.8,219.3c-3.4,3.6-3,9.4,0.8,12.9c3.8,3.5,9.5,3.4,12.9-0.2s3-9.4-0.8-12.9
			C156.9,215.6,151.2,215.7,147.8,219.3z"/>
		
			<ellipse transform="matrix(0.9934 -0.1149 0.1149 0.9934 -22.0019 74.8459)" class="st1" cx="638" cy="228.2" rx="9.6" ry="11.5"/>
		<path class="st1" d="M7.7,228.6c-0.4,5.4,4.3,10.2,10.3,10.6c6.1,0.4,11.3-3.6,11.7-9.1s-4.3-10.2-10.3-10.6
			C13.3,219.1,8.1,223.2,7.7,228.6z"/>
		<ellipse transform="matrix(0.1253 -0.9921 0.9921 0.1253 441.925 963.3206)" class="st1" cx="767.3" cy="231" rx="7.8" ry="8.9"/>
		<path class="st1" d="M1070.8,279.9c-9.1,2.1-8,12.7,1,12.8c31.3,0.2,42.8-28.1,34.8-54.4c-1.3-4.3-4.8-11.8-9.6-13
			c-4.1-1-5.9,3.5-4.8,6.7c2.9,8.1,4.6,15.8,5,23.1C1098.4,272.2,1084.3,276.8,1070.8,279.9z"/>
		<path class="st1" d="M1278.5,228.5c-4.4,1.5-20.3,7.1-20.5,12.5c-0.1,3.4,1.4,5.5,4.7,6.2c4.4,1.1,20.7-5.2,24.2-8.5
			C1293.7,232.4,1285.5,226.1,1278.5,228.5L1278.5,228.5z"/>
		<path class="st1" d="M1222.1,234.3c0.9-4.6-3.8-6.8-7.8-5.8c-6.4,1.6-33.2,8.5-35.6,14.5c-3.7,9.3,8.7,7.8,13,6.2
			c8.4-3,16.6-6.2,24.8-9.7C1218.9,238.5,1221.5,237,1222.1,234.3z"/>
		<path class="st1" d="M186.1,239.6c-2,5,1.2,10.9,7,13.2c5.8,2.3,12.2,0.2,14.1-4.8c2-5-1.2-10.9-7-13.2
			C194.3,232.4,188,234.6,186.1,239.6z"/>
		
			<ellipse transform="matrix(0.5255 -0.8508 0.8508 0.5255 -86.4039 348.387)" class="st1" cx="269.1" cy="251.7" rx="15.2" ry="14.5"/>
		
			<ellipse transform="matrix(0.9888 -0.1495 0.1495 0.9888 -22.4372 199.9247)" class="st1" cx="1318.2" cy="249.2" rx="10.3" ry="9.1"/>
		<path class="st1" d="M121.6,243.4c-6.5,0.8-11.2,6.2-10.5,12.1c0.7,5.9,6.6,10,13.1,9.2c6.5-0.8,11.2-6.2,10.5-12.1
			C134,246.7,128.1,242.6,121.6,243.4L121.6,243.4z"/>
		<path class="st1" d="M75.7,272.7c2-5.7,3.1-15.1-0.3-20.6c-5.9-9.5-19.8-6.3-29.2-4.1c-15.9,3.8-31.3,9.1-46.3,15.8v19.8
			c8.5-4.3,15.5-7.7,21.1-10.1c7.5-3.3,17.5-5.1,20,5.4c2.6,10.4-5.4,21.9-11.6,29.5c-9.2,11.1-19,21.7-29.5,31.7v20.8
			c13.2-11.2,26-22.8,38.6-34.6C54.3,311.4,68.4,293.6,75.7,272.7L75.7,272.7z"/>
		<path class="st1" d="M1225.2,266.8c6.5-0.5,19.9-2.7,21.2-10.2c2.5-14.6-25.2-2.9-27.9,2.2C1216.2,263.1,1221,267.1,1225.2,266.8
			L1225.2,266.8z"/>
		<path class="st1" d="M918.7,281.2c3.7-2.7,6.3-6.2,7.9-10.5c5.8-15.6-20.4-28.2-22.1-9.4c-0.5,6.1,0.5,12,3.2,17.8
			C909.8,283.3,915.4,283.6,918.7,281.2L918.7,281.2z"/>
		
			<ellipse transform="matrix(0.9977 -6.801529e-02 6.801529e-02 0.9977 -15.9713 52.7687)" class="st1" cx="767" cy="260.9" rx="9.3" ry="8.2"/>
		<path class="st1" d="M395.5,264.4c-0.2,4.3,8.7,3.9,11.4,3.7c9-0.8,18.5-1.3,29.2-2.2c3-0.3,4.8-1.8,5.3-4.7c0.1-0.4,0-0.7-0.2-1
			c-1.7-2.4-4.2-3.5-7.4-3.4c-7.3,0.2-33.4,2-37.9,6.8C395.6,263.8,395.5,264.1,395.5,264.4L395.5,264.4z"/>
		<path class="st1" d="M1274.7,258.9c-6.1,0.5-10.7,5.3-10.2,10.8c0.4,5.5,5.8,9.5,11.8,9s10.7-5.3,10.2-10.8
			C1286.1,262.4,1280.8,258.4,1274.7,258.9z"/>
		<path class="st1" d="M649.1,261c-4.2,0.5-7.3,4.1-6.9,8.1s4.2,6.9,8.5,6.5s7.3-4.1,6.9-8.1S653.4,260.5,649.1,261z"/>
		<path class="st1" d="M162.9,267.1c-4.3,4.5-3.9,11.9,1,16.6s12.3,4.9,16.6,0.4c4.3-4.5,3.9-11.9-1-16.6
			C174.7,262.9,167.2,262.7,162.9,267.1z"/>
		<path class="st1" d="M1212.5,352.2c-27.4,23-52,47.6-60.8,82.8c-1.6,6.5-2.7,15.7-4,21.9c-3.8,18.3-17.1,33.4-28.2,48.1
			c-2,2.7-8.3,12.1-1,13.2c2.3,0.3,3.8-0.8,5.4-2.3c9-8.5,17.1-16.4,24.2-23.9c4.3-4.5,7.3-8.3,9.1-11.2c7.6-13,5.1-28.5,8.2-42.7
			c5.3-24.4,21.6-42.6,39.3-59.2c41.6-39.2,88.1-69.7,139.4-94.7v-20c-35.4,18.7-69.2,37.8-100.7,62.8
			C1237.8,331.2,1227.5,339.7,1212.5,352.2L1212.5,352.2z"/>
		<circle class="st1" cx="797.7" cy="276.2" r="7.7"/>
		<path class="st1" d="M878.6,286.3c3.9,0.2,7.2-2.7,7.4-6.4s-2.8-6.9-6.7-7.1c-3.9-0.2-7.2,2.7-7.4,6.4S874.7,286.1,878.6,286.3z"
			/>
		<path class="st1" d="M752.7,343.3c14.8-16.5,12-42-5.3-55.7c-22.6-17.8-60.7-21.8-79.8,4.3c-7.4,10.1-9.9,21.5-7.3,34.3
			C668.4,368,728.8,370,752.7,343.3z M730.2,331.5c-7.3,4.7-15.4,6.6-24.5,5.8c-11.9-1.1-23.1-10.6-21.8-23.2
			c2.1-19,29.9-25.1,44-18.1C742.7,303.2,744,322.6,730.2,331.5L730.2,331.5z"/>
		<path class="st1" d="M387.6,279.1c-7,0.8-7.4,7-0.1,7.6c14.8,1.3,29.6,2.3,44.5,3c2.9,0.1,5.4,0,7.4-0.3c6.6-1.1,8.5-9.3,2.4-12.5
			c-1.2-0.6-3.1-0.9-5.8-0.9C419.8,276.2,403.7,277.2,387.6,279.1z"/>
		
			<ellipse transform="matrix(0.8425 -0.5388 0.5388 0.8425 32.0676 686.8882)" class="st1" cx="1190.5" cy="288.6" rx="11.8" ry="10.4"/>
		
			<ellipse transform="matrix(0.8878 -0.4602 0.4602 0.8878 -121.6514 78.517)" class="st1" cx="100.2" cy="288.8" rx="9.2" ry="10"/>
		<path class="st1" d="M824.8,281.2c-5.3,0.3-9.4,4.4-9.1,9.2c0.2,4.8,4.7,8.5,10,8.2c5.3-0.3,9.4-4.4,9.1-9.2
			C834.5,284.6,830.1,280.9,824.8,281.2z"/>
		<path class="st1" d="M1242.7,299.4c4.8-3.3,6.1-9.6,3-14.1s-9.5-5.4-14.2-2.1s-6.1,9.6-3,14.1S1237.9,302.7,1242.7,299.4z"/>
		<circle class="st1" cx="950.4" cy="290.9" r="6.6"/>
		<path class="st1" d="M854.2,304.8c4.5-0.5,7.9-4.4,7.4-8.8s-4.5-7.5-9.1-7c-4.5,0.5-7.9,4.4-7.4,8.8
			C845.6,302.2,849.7,305.3,854.2,304.8z"/>
		<path class="st1" d="M132.8,306c-0.5,6.1,4.7,11.5,11.5,12s12.8-4,13.2-10.1c0.5-6.1-4.7-11.5-11.5-12S133.3,299.8,132.8,306z"/>
		<path class="st1" d="M903.5,298.9c-17.2,3-28.6,20-25.5,37.9c3.2,17.9,19.7,29.9,36.9,26.9l0,0c17.2-3,28.6-20,25.5-37.9l0,0
			C937.3,307.9,920.8,295.8,903.5,298.9L903.5,298.9z M920,319.5c6.9,6.3,7.6,16.8,1.4,23.6s-16.7,7.2-23.7,1s-7.6-16.8-1.4-23.6
			S913.1,313.2,920,319.5z"/>
		<path class="st1" d="M14,304.8c0.8-5.1-4-6.1-7.8-4.6c-2.1,0.8-4.2,1.7-6.2,2.5v18C3,317.6,13.4,308.5,14,304.8z"/>
		<path class="st1" d="M435,303.5c-18.5-2.3-37.1-3.6-55.8-4c-3.1-0.1-5.3,0.2-6.6,0.8c-4.3,2.1-6,9.3-1.7,12.1
			c4.1,2.7,8.6,2.8,13.5,3.4c19.3,2.1,36.2,3.3,50.8,3.5C446.5,319.6,447.1,305,435,303.5L435,303.5z"/>
		<path class="st1" d="M723.6,304.4c-7.3-3.5-27.6-0.9-29.8,9.5c-1.5,7,4.2,12.6,10.8,13.7c7.3,1.2,14-0.1,20-4
			C732.5,318.5,732.3,308.6,723.6,304.4z"/>
		<path class="st1" d="M1188.2,433.3c-6.2,31.6,19.4,43.9,46.1,34.2c24.2-8.8,44.3-23.1,60.2-42.8c5.8-7.2,11.3-16.6,16.5-25
			c9-14.4,19.9-27.1,32.8-38.2c0,0,0,0,0.1,0c0,0,0.1,0.1,0.2,0.1v-20.5c-22.8,22.2-39,44.4-57.4,67.8c-14.2,18-38.3,44.1-63.3,42
			c-7.1-0.6-12-3.7-14.9-9.3c-10-19.3,22.6-47.6,35.6-57.8c19.1-14.9,38.3-29.5,57.8-43.8c2.4-1.8,5.4-2.1,6.6,1.1
			c1.1,2.7-1.2,5.9-3.2,7.5c-22,18.4-43.3,37.5-64,57.4c-4.5,4.3-19.7,18.8-14.8,25.6c8.4,11.8,37-19.9,42.1-25.8
			c9.7-11.2,19.2-22.6,28.6-34c14.6-17.7,30.4-34.5,46.7-50.7c0,0,0,0,0,0c0.1,0.1,0.2,0.1,0.2,0.1v-18c-37.3,19.7-76,44.1-110.6,72
			C1214.5,390.2,1193,408.6,1188.2,433.3L1188.2,433.3z"/>
		<path class="st1" d="M197.2,305.1c-5.6,0.4-10,4.8-9.6,10s5.1,9.1,10.8,8.8c5.6-0.4,10-4.8,9.6-10
			C207.7,308.7,202.9,304.8,197.2,305.1z"/>
		<path class="st1" d="M776.9,316.6c-3.2,15.1-6.3,30.2-9.3,45.3c-0.7,3.6-2.4,12.4-0.2,15.4c2.5,3.4,6.6,2.3,8.2-1.3
			c1.5-3.5,2.8-7.5,3.6-12c3.4-17,6-34.2,7.9-51.4c0.3-2.6-0.1-6-2.9-7C779.3,303.6,777.6,313.3,776.9,316.6L776.9,316.6z"/>
		<path class="st1" d="M148.9,365.5c-0.2,0.2-0.4,0.5-0.4,0.9c0.1,3.6,3,4.6,6.3,4.4c32.2-2.5,61.4-8.7,93.9-15.8
			c23.1-5.1,46.4-9.5,69.7-14c10.7-2,24.6-4.8,20.5-19.9c-2-7.4-7.9-14.5-16.7-12.5c-3.4,0.8-6.1,1.5-8,2.2
			c-34.9,12.9-57.3,20.9-67.1,24.2c-25.8,8.7-57.2,18-94.5,28C151.6,363.2,150.3,364.1,148.9,365.5L148.9,365.5z"/>
		<path class="st1" d="M803,314.3c-3.6,17.5-6.7,37-9.3,58.7c-0.4,3.3-0.2,6.8,3.9,7.2c4.4,0.4,6.6-8.4,7.4-11.2
			c2.9-9.5,13.9-51.7,7.7-58.5C809,306.4,804,309.9,803,314.3L803,314.3z"/>
		<path class="st1" d="M641,310.1c-4.7-3.2-9.7,1.3-10.7,6c-1.2,6-2.8,22.6,6.1,24.1C647.4,342,646.3,313.7,641,310.1z"/>
		
			<ellipse transform="matrix(0.153 -0.9882 0.9882 0.153 702.9078 1462.7856)" class="st1" cx="1204.8" cy="321.3" rx="11.7" ry="11.3"/>
		<path class="st1" d="M480.5,329c28.5,6.6,57.2,12.3,86.2,16.9c14.2,2.3,28.4,2.9,36.7-11c3.2-5.4-2.4-7.4-6.8-5.9
			c-9.5,3.4-19,4.6-28.6,3.7c-28.7-2.7-58-11.3-86.5-18.3c-5.4-1.3-12.9,0.6-10.4,7.8C472.5,326.1,476.7,328.1,480.5,329L480.5,329z
			"/>
		<path class="st1" d="M71.9,329.9c1.7,5.2,6.9,8.2,11.6,6.6s7.2-7,5.5-12.2s-6.9-8.2-11.6-6.6S70.2,324.7,71.9,329.9z"/>
		<path class="st1" d="M830.8,321.3c-1.7,11-3.6,25.7-5.8,44.2c-0.4,3.2,1.4,11,6.1,8.5c5.1-2.8,6.3-37.5,6.8-44.3
			c0.4-4.9,1.4-9.2-2-11.8c-0.2-0.2-0.5-0.3-0.8-0.3C832.6,317.6,831.2,318.8,830.8,321.3L830.8,321.3z"/>
		<path class="st1" d="M960.2,350.8c5.5,2.5,6.6-3.5,6.5-7.3c-0.1-7.1-0.4-13-1-17.8c-0.6-5.3-7.9-5.1-8.6,0.2
			C956.8,328.1,955.5,348.6,960.2,350.8z"/>
		
			<ellipse transform="matrix(0.9871 -0.1599 0.1599 0.9871 -52.229 23.2448)" class="st1" cx="118.3" cy="336.2" rx="11.2" ry="12.2"/>
		<circle class="st1" cx="908.9" cy="331.9" r="7.3"/>
		<path class="st1" d="M988.2,325.8c-4.8,2.1-3.6,14-3.1,18.8c0.5,4,4.7,6.4,7.5,2.8C995.8,343.5,998,321.4,988.2,325.8L988.2,325.8
			z"/>
		<path class="st1" d="M437.2,334.4c-15.2-2.6-33.9-4.7-56.3-6.5c-7.3-0.6-15.5,0.7-12,10.8c1.4,4,8.5,6,12.2,6.5
			c16.4,1.9,32.8,3.4,49.3,4.5c3.2,0.2,5.3,0.2,6.3,0C444.3,347.8,445.8,335.9,437.2,334.4L437.2,334.4z"/>
		<path class="st1" d="M861.9,333.9c-0.7-6.5-8.5-6.5-9.5-0.3c-0.9,5.2-1.1,12-0.7,20.5c0.4,7.4,8.2,8.6,9.6,1.6
			C862.5,349,862.8,341.7,861.9,333.9L861.9,333.9z"/>
		<path class="st1" d="M1153.1,333.1c-2.8-4.6-8.9-2.8-11.3,1.1c-2.6,4.3-4,9-4.1,14c-0.1,8.4,8.9,9,12.8,2.8
			C1153.5,346.2,1156.1,338.2,1153.1,333.1L1153.1,333.1z"/>
		<path class="st1" d="M1020.7,356.2c4.3-2.7,4.4-13.5,3.6-18c-1.4-8-8.7-6.8-9.8,0.3c-0.8,4.9-1.2,9.2-1.2,12.8
			C1013.2,355.4,1016.7,358.7,1020.7,356.2L1020.7,356.2z"/>
		<path class="st1" d="M51.8,339.8c-4.5,1.5-6.7,7.2-4.8,12.7s7,8.7,11.5,7.2c4.5-1.5,6.7-7.2,4.8-12.7S56.3,338.3,51.8,339.8z"/>
		<path class="st1" d="M472.3,350.2c23.5,4.4,47,8.7,70.5,12.8c4,0.7,14.7,2.8,14.9-2.3c0.1-2.9-4.3-4.9-6.1-5.3
			c-24.8-5.7-49.8-10.6-74.8-14.9C467.8,339,463.2,348.5,472.3,350.2L472.3,350.2z"/>
		
			<ellipse transform="matrix(0.4368 -0.8996 0.8996 0.4368 342.4259 1257.8004)" class="st1" cx="1175.7" cy="355.4" rx="10.5" ry="7.9"/>
		<path class="st1" d="M1044.9,371c-0.2,4,4,7,7.5,5.1c5.7-2.9,11.8-21,5.3-24.9C1048.3,345.5,1045.1,365.8,1044.9,371z"/>
		<path class="st1" d="M1119.2,369.2c2.5-4.2,5-10,3.2-14.6c-2.3-5.9-8.9-4.6-11.5,0.5c-1.9,3.8-5.1,12.2-2.4,16
			C1111.7,375.7,1116.8,373.2,1119.2,369.2L1119.2,369.2z"/>
		<path class="st1" d="M365.5,390.5c0.2-5.2-8.4-5.6-11.7-5.9c-18.7-1.2-37.5-1.9-56.1-3.8c-0.4,0-0.7-0.3-0.7-0.7l-0.3-1.5
			c-0.1-0.5,0.1-0.7,0.5-0.8c0.9-0.1,1.8-0.7,2.6-0.8c16.1-3,32.1-6.5,48-10.5c7.4-1.9,5.5-10.1-0.8-11.2c-3.3-0.6-7.2-0.4-11.6,0.5
			c-16.4,3.5-33.3,7.5-49.2,10.6c-32.4,6.4-64.9,11.5-97.6,15.5c-9.4,1.1-17.7,2.6-26,4.9c-8.2,2.2-10.3,10-0.3,11.5
			c10.7,1.6,27.1,1.8,40.5,1.8c52.1,0.1,104.2-1.5,156.1-4.9C362.1,394.9,365.3,394.1,365.5,390.5L365.5,390.5z"/>
		<path class="st1" d="M428.2,363c-15.8-2-31.6-4-47.4-5.9c-3-0.4-4.9-0.4-5.6,0c-4.8,1.9-5.4,7.8-1,10.5c1.8,1.1,3.7,1.9,5.9,2.3
			c15.5,2.9,31.1,5.3,46.8,7.1C441.2,378.6,441.7,364.8,428.2,363L428.2,363z"/>
		<path class="st1" d="M1071.4,380c-0.3,2.4,0.4,4.3,2.2,5.6c7.3,5.3,14-14,15.3-18.3c1.2-3.9,0.3-6.6-2.7-8.1
			C1077.3,354.8,1072.3,373.7,1071.4,380L1071.4,380z"/>
		<path class="st1" d="M564.4,447.5c13.2,48,75.3,41.5,109.9,29.4c14.4-5,29.5-15,33.3-30.2c2.6-10.2-0.6-20-5.7-29.2
			c-17.9-31.7-47.2-58.4-85.4-58.5C567.7,358.8,553.7,408.9,564.4,447.5z M684.2,419.3c12.3,20.5,1.9,33-18.2,38.8
			c-25.1,7.2-80.4,12.6-86.8-25c-2.9-17.3,0.7-44.5,19.1-52.4c4.9-2.1,11.4-2.9,19.6-2.4C645.9,379.9,669.9,395.5,684.2,419.3
			L684.2,419.3z"/>
		<path class="st1" d="M466.2,371.1c0.5,0.3,1.1,0.5,1.7,0.6c21.1,1.2,42.2,2.7,63.5,4.7c2.1,0.2,3.7-0.5,4.7-2
			c0.2-0.3,0.3-0.7,0.2-1c-0.5-1.9-1.9-3.1-4.1-3.5c-18.8-3.7-37.7-6.5-56.7-8.4c-2.3-0.2-5-0.8-7.4-0.3
			C462.8,362.2,461.4,368,466.2,371.1L466.2,371.1z"/>
		<path class="st1" d="M40.6,378.4c2.9-4.8,0.7-11.4-4.8-14.6s-12.2-2-15.1,2.8S20,378,25.5,381.3S37.8,383.2,40.6,378.4z"/>
		
			<ellipse transform="matrix(0.4939 -0.8695 0.8695 0.4939 245.1997 1188.8779)" class="st1" cx="1143.9" cy="383.8" rx="10.9" ry="8.6"/>
		<path class="st1" d="M918.8,380.7c-16-1.1-34.2-1.1-54.5,0c-6.2,0.3-5.3,6.9,0.3,8.2c17.5,4.1,35.9,7.1,53.9,6.9
			C931.2,395.7,929.6,381.5,918.8,380.7z"/>
		<path class="st1" d="M716.4,384.4c-2.8,0.4-5,1.8-6.7,4.1c-8.2,11.4,14.3,38.4,25.7,27.2c2.5-2.4,3.1-5.8,2-10
			C735.1,397.5,726.8,382.9,716.4,384.4L716.4,384.4z"/>
		<path class="st1" d="M1099.1,387.3c-3.8,3.7-10.6,13.8-4.1,18c7.2,4.7,12.8-9,13.7-13.8C1109.9,385,1103,383.5,1099.1,387.3z"/>
		<path class="st1" d="M0,387.2v21.8C14.9,407,15.6,386.7,0,387.2z"/>
		<path class="st1" d="M1343.1,408.9c0.2,0,0.4,0.1,0.6,0.2l0.3,0.2v-22.1C1330,390.5,1329.7,408.1,1343.1,408.9z"/>
		<path class="st1" d="M528.6,462.5c14.6-0.9,18.9-15.9,15.5-28c-3.5-12.4-6.9-24.7-10.3-37.1c-3.4-12.5-16.3-6.9-12.8,4.6
			c3.1,10.2,6.1,20.3,9.2,30.5c0.8,2.7,2.1,8.1,1.3,10.5c-1,3.2-6.3,4-8.2,0.9c-1.1-1.8-2.6-4.8-3.6-7.3
			c-4.8-12.9-10.1-25.7-15.6-38.3c-2.1-4.7-8.8-10.9-13.2-4.3c-1.2,1.8-1.1,4.5-0.6,6.4c5.4,19.1,12.1,38.9,24.4,54.8
			C518.2,459.9,522.5,462.8,528.6,462.5L528.6,462.5z"/>
		<path class="st1" d="M771.2,444.8c3.6,3,11.6,4.1,12.9-1.8c1.5-6.7-6.3-11.1-8.8-15.5c-3.2-5.9-4.8-11.8-4.6-17.7
			c0.2-6.4,0.1-10.7-0.2-13c-0.9-5.6-8.3-8.6-11.7-2.8c-2.5,4.3-0.7,17.9,0.1,22.9C760.7,428.8,762.5,437.6,771.2,444.8L771.2,444.8
			z"/>
		<path class="st1" d="M796.9,433.1c11.3,5.8,26.5,12,39.8,11.4c3.8-0.2,8.3-3.6,5.9-7.4c-1.5-2.4-6.6-4.3-9.4-4.9
			c-8.9-1.9-19.6-3.5-26.9-7.6c-3.7-2.1-13.5-8.7-12.6-13.8c0.6-3.2,5.2-5.4,6.8-7.5c4.8-6.5-2.7-13-9.5-9.1
			C772.7,404.8,782.2,425.5,796.9,433.1L796.9,433.1z"/>
		<path class="st1" d="M43,403c-2.5-4.3-7.9-5.9-12.1-3.5s-5.5,7.9-3,12.2c2.5,4.3,7.9,5.9,12.1,3.5S45.5,407.3,43,403z"/>
		<path class="st1" d="M811.7,408.9c0.1,6.6,11.8,9.2,17.1,9.5c21,1.4,42,2.5,63,3.6c4.3,0.2,11.3,0.5,12.2-5c0.6-3.8-2.7-6-5.9-6.8
			c-23-5.9-46.3-9.2-70-10C822.5,400,811.5,400.5,811.7,408.9z"/>
		<path class="st1" d="M638.1,446.9c10.2-1.4,18.7-9.7,18.5-20.1c-0.4-19-26-29.9-38.3-14.6C605.8,427.9,618.3,449.7,638.1,446.9z"
			/>
		<path class="st1" d="M445.5,422c2.7,6.3,8,12.7,13.6,16c11.5,6.9,23.8,0.3,16-13.6c-3.9-6.9-14.5-21.4-23.7-18.6
			C444.2,407.9,442.7,415.7,445.5,422L445.5,422z"/>
		<path class="st1" d="M133.3,510.5c3.3-1.2,3.5-5.9,3-8.7c-4.3-23-9.9-49-16.8-78.3c-1.1-4.5-2.2-7.7-3.2-9.4
			c-10.2-15.9-41.6-4.7-37.8,16c3.6,19.8,10.9,40.1,18.5,58.7c1.2,2.9,6.6,16,9.2,16.8c4.7,1.3,5.2-3.5,4.3-6.6
			c-4.4-15.6-8.7-31.3-12.9-47c-2.4-8.8-4.2-16.5-5.4-23.3c-1.6-8.6,8.9-13.5,12.1-4.5c0.8,2.4,1.8,5.5,2.8,9.2
			c4.6,17,11,40.2,19.2,69.6C127.3,506.3,129.1,512,133.3,510.5L133.3,510.5z"/>
		<path class="st1" d="M1128.3,428.5c4.2-3.7,13.2-17.7,4.2-21.1c-6.9-2.6-14,9.1-15.8,14C1113.5,429.7,1122.5,433.6,1128.3,428.5z"
			/>
		<path class="st1" d="M354.3,409.9c-4.7,0.5-10.2,3.7-7.2,8.8c1.5,2.6,4.6,4.1,7.4,5.1c21.7,7.5,43.4,15,65.1,22.5
			c4.8,1.7,11.5,3.5,15.3,1.1c7.7-4.9-0.1-12.9-4.6-16C407.9,415.6,381.9,406.9,354.3,409.9L354.3,409.9z"/>
		<path class="st1" d="M145.8,417.1c-4.3,2.1-3.9,8.7-3.4,12.7c2.4,18.3,5.1,34.7,8,49.2c0.8,3.9,1.9,7.6,3.6,11.1
			c3.7,8.2,13.5,4.1,13.7-3.7c0.1-6-0.5-12.5-1.9-19.6c-2.5-12.6-5.3-25.2-8.4-37.7C155.8,423.7,152.4,413.8,145.8,417.1
			L145.8,417.1z"/>
		<path class="st1" d="M956.5,417.8c-4.2-1.2-8.6-1.9-13-2c-4.8-0.6-9.5-0.1-14,1.5c-5,1.6-8.1,4.5-9.3,8.7
			c-2.9,10,7,15.6,15.3,17.6c6.5,2.5,14.6,4.6,21.6,3.9c4.9-1.9,7.9-5.6,9.2-11.1C969.6,426.3,966.4,420.2,956.5,417.8L956.5,417.8z
			 M956,440.5c-6.1,1.5-19.3-3.6-25.2-6c-6.7-4-2.6-9.9,3-12c6.2-0.6,12.3-0.4,18.5,0.7C962.1,424.4,964.2,435.4,956,440.5
			L956,440.5z"/>
		<path class="st1" d="M1328.5,434.3c-1.4,1.8-2.1,5.8-1,7.5c3.8,6.3,9.3,8,16.5,5v-14.4C1337.7,428.5,1332.5,429.2,1328.5,434.3
			L1328.5,434.3z"/>
		<path class="st1" d="M993,430.9c-2.2-0.6-3.6,0.3-4.2,2.6c-0.3,0.9,0,1.6,0.8,2.1c3,1.8,12.3,6.8,14.8,4
			C1007.9,435.4,995.5,431.6,993,430.9L993,430.9z"/>
		<path class="st1" d="M0,432.2v14C5.3,442.9,4.2,435.9,0,432.2z"/>
		
			<ellipse transform="matrix(4.361939e-02 -0.999 0.999 4.361939e-02 -414.727 459.7242)" class="st1" cx="32.8" cy="446.5" rx="9.8" ry="9.1"/>
		<path class="st1" d="M924.2,464.8c-0.2-3.1-3.7-5.7-6.7-4.3c-1.8,0.9-3.4,2.4-4.9,4.5c-7.9,11.6-13.3,24.2-16.1,37.9
			c-2.4,11.6-14.2,6.4-12.2-3.3c3-14.9,8.2-28.9,15.6-42.1c1.7-3,4.6-6.1,6-8.6c3-5.4-1.2-10.7-6.8-8.6
			c-10.1,3.6-21.3,39.8-23.9,49.9c-3.2,12.8-1,17.1,8,25.4c12.6,11.5,24.8,23.4,36.6,35.8c5.6,5.8,16.8,18.8,20.6,18.6
			c2-0.1,4.2-2.7,3.2-4.7c-12.9-26.8-9-54.6-0.1-82.7c2.6-8.2-8.1-10-11.4-1.2c-5,13.6-9,25.7-12.1,36.2c-1.8,6.1-8.8,5.8-10.5-0.5
			c-2.5-9.3,4.6-28.6,9.1-37.8C919.7,477.3,924.5,468.2,924.2,464.8L924.2,464.8z"/>
		<path class="st1" d="M979.9,446.8c4.2,2.2,8.2,3.9,12.1,5c3.2,0.9,6.2-3.2,2.4-5.3c-3.6-2-9.1-4.8-13-5.3
			C978.4,440.8,976.8,445.1,979.9,446.8z"/>
		<path class="st1" d="M391.1,491c-0.2,0.4-0.5,0.5-1,0.4c-26.6-7.9-53.3-15.5-80.2-22.6c-2.3-0.6-4.2-1.4-6,0.4
			c-3.3,3.3,4.1,5.8,6,6.5c19.4,7,38.8,13.7,58.3,20.3c17,5.7,57.2,16.1,56.8-14.7c0-1.7-0.3-3.1-0.8-4.3
			c-7.2-17.4-99.6-32.5-118.7-35.3c-1.4-0.2-2.3,0.4-2.8,1.7c-0.3,0.8-0.1,1.4,0.7,1.9c1.1,0.6,2.2,1.1,3.4,1.5
			c20.5,5.9,40.9,11.9,61.4,17.9c2.8,0.8,5.6,1.8,8.4,2.9c0.5,0.2,0.6,0.5,0.4,1l-0.3,1c-0.2,0.6-0.8,0.9-1.4,0.8
			c-22.7-5.2-45.3-10.5-67.9-15.7c-4-0.9-11.7-3.2-11.9,0.5c0,0.3,0.1,0.6,0.4,0.9c1.1,1,2.5,1.7,4.1,2.3
			c28.6,10,55.5,18.9,80.8,26.6c4.3,1.3,7.9,2.6,10.8,3.8c0.5,0.2,0.6,0.5,0.3,1L391.1,491L391.1,491z"/>
		<path class="st1" d="M716.1,458.9c-2.4,4.9-1.8,15,6.5,12.9c7.6-2,13.8-6.1,18.6-12.3c4.5-5.8,1.4-14.3-6.1-14.8
			C727.3,444,719.3,452.4,716.1,458.9L716.1,458.9z"/>
		<path class="st1" d="M853.8,460.3c4.7-5,9.2-3.5,15.2-2.9c4.5,0.4,7.3-5.3,2.8-7.7c-8.7-4.7-18-2.9-24.8,4.2
			c-6,6.3-11.4,18.1-6.6,26.5c3.3,5.8,11.4,8.6,17.8,10.3c6.2,1.7,8.3-5.5,3.2-8.3c-5.2-2.8-17-5-12.7-14.1
			C850.5,464.9,852.2,462.2,853.8,460.3z"/>
		<path class="st1" d="M826.1,464.8c0.5-7.9-22.2-17.9-29.2-16c-6.2,1.7-6.7,9.3-1.9,13c5.5,4.1,11.5,7.2,18,9.2
			C818.2,472.7,825.7,471.4,826.1,464.8L826.1,464.8z"/>
		<path class="st1" d="M1009.7,452.6c-3-0.7-7.3,2.8-3.8,5c3,1.8,12.1,6.7,14.9,3.4C1024.6,456.5,1012,453.1,1009.7,452.6
			L1009.7,452.6z"/>
		<path class="st1" d="M1300.9,458.6c-6.9-11.5-21.8,5.2-20.9,13C1281.7,486.3,1308,470.4,1300.9,458.6z"/>
		<path class="st1" d="M1051.1,466.8c0.5-1.7-1.5-3.9-4.6-4.9s-6.1-0.3-6.6,1.4c-0.5,1.7,1.5,3.9,4.6,4.9S1050.6,468.6,1051.1,466.8
			z"/>
		<path class="st1" d="M1016.2,471.6c-4.4-2.4-18.1-9.8-22.7-8.3c-3.6,1.2-4.2,6.3-0.8,7.8c5.9,2.7,12.7,5.2,20.2,7.5
			c3.1,0.9,5.1-0.1,5.8-3.2c0.1-0.3,0-0.6-0.1-0.8C1017.7,472.9,1016.8,471.9,1016.2,471.6L1016.2,471.6z"/>
		<path class="st1" d="M514.2,494.5c2.2-4.8,1.7-9.7-1.6-14.6c-8.4-12.7-26.5-16.9-40.2-14.7c-12.2,2-20.9,9-19,22.2
			c1.1,7.7,6.5,12.2,13.5,14.8C479.9,507.1,506.7,510.9,514.2,494.5L514.2,494.5z M467.4,490.8c-3.9-3.4-4.3-7.1-1.2-11.1
			c6.5-8.6,33.8-6.5,35.9,6.2C504.3,498.7,472.6,495.4,467.4,490.8z"/>
		<path class="st1" d="M796.3,503.2c11.4-14.4-12.6-30.5-23.3-35.2c-7.2-3.2-17.2-3.5-20.3,5.7c-4.8,14,16.5,26.6,26.4,31
			C785.1,507.3,791.9,508.8,796.3,503.2z M779.9,494.1c-3-1.7-25.7-13-16.6-18.4c4.9-2.9,15,5.6,19.8,9c2.5,1.8,9.9,8.6,4.3,11.3
			C784.8,497.2,782.3,495.4,779.9,494.1L779.9,494.1z"/>
		<path class="st1" d="M963.2,470.4c0.5,3.8,14.1,8.2,17.6,9.3c2.5,0.8,5.4,1.1,6.4-1.8c1.8-5.1-14-10.1-17.4-11
			C966.9,466.1,962.6,466.3,963.2,470.4L963.2,470.4z"/>
		<path class="st1" d="M1335.7,486.7c-0.6-5.3-5.4-10.6-11.3-10.1c-9.4,0.9-20,17.9-14.5,25.9
			C1318.9,515.6,1336.9,497.5,1335.7,486.7z"/>
		<path class="st1" d="M743,500c4.8-5.5-2.3-23-11.2-20.5c-6.3,1.7-8.7,8.1-6.3,13.8C727.8,499.1,737.2,506.5,743,500L743,500z"/>
		<path class="st1" d="M26.9,504.9c5.8,2.5,12.7-0.4,15.4-6.5c2.7-6.1,0.1-13.1-5.8-15.7s-12.7,0.4-15.4,6.5
			C18.5,495.3,21,502.3,26.9,504.9z"/>
		<path class="st1" d="M557.2,499.3c12.7,10.9,26.9,14.7,43.3,18c15.1,3,28.8,5.2,41.3,6.6c10.4,1.2,28.2,1.1,32.3-10.6
			c1.7-4.9-0.2-9-4.9-10.8c-2-0.8-3.7-1-5.2-0.6c-14.1,3.9-22.4,6.2-35.7,5.6c-16.6-0.8-32.3-4.8-47.1-12.1
			c-5.6-2.7-11.4-6.6-16.9-10.1c-4.4-2.8-13.7-5-14,2.8C550,492.4,554,496.5,557.2,499.3L557.2,499.3z"/>
		<path class="st1" d="M392.2,744.7c1.7,4.7,6.3,7.1,10.9,4.6c4.2-2.3,5.9-8.9,7.3-14.3c7.6-28.8,8.3-55.8,2-84.3
			c-10.3-46.8-31.3-98.8-65.3-133.6c-25.4-26.1-63.4-35.9-98.9-30c-17.6,2.9-35.3,7.9-53.1,14.9c-30.8,12-47.1,30.9-53,63.7
			c-1.5,8.3,5.5,10.5,8.9,3.2c10.4-22.4,16.5-42.4,41.3-52.5c26.1-10.7,58.5-13.4,86.6-12.3c54,2.3,81.4,46.1,99.3,90.7
			c6.6,16.5,12.6,33.2,17.9,50.2c8.4,27.1,11,54.3,0.7,81.2C395.1,730.7,390.7,740.4,392.2,744.7L392.2,744.7z"/>
		<path class="st1" d="M836,529.9c47.1,7.3,62.2,45.1,94.3,76.5c2.6,2.6,10.3,9.9,14.7,6.9c3.2-2.2,0.8-6.4-0.8-8.8
			c-20-29.8-42.2-58-69-82c-12.5-11.2-42.4-32.5-59.6-20.2c-5.7,4-10.2,12.3-6.1,18.7C814.2,528.4,828.1,528.7,836,529.9L836,529.9z
			 M823.3,509.8c10.2-2.9,28.3,6.1,36.9,11.1c3.8,2.2,3.3,6.7-1.6,5.4c-11.6-2.9-23.2-5.7-34.8-8.2
			C818.1,516.9,817.9,511.3,823.3,509.8z"/>
		
			<ellipse transform="matrix(0.9121 -0.4099 0.4099 0.9121 -104.8467 528.9111)" class="st1" cx="1181.2" cy="509" rx="10.2" ry="8.5"/>
		<path class="st1" d="M696.8,507.6c-11.2,15,6.1,31.2,20.5,20.8C738.2,513.2,710.5,489.4,696.8,507.6z"/>
		<path class="st1" d="M969.4,515.8c0-5.4-4.3-11.7-9.9-8.3c-11.9,7.3-3.2,69.1-0.8,82.4c2.9,16.2,8,35.7,19.8,47.9
			c2.2,2.3,6.5,1.7,7-1.5c0.1-0.9-0.1-2.2-0.7-3.9c-10-28.9-15.1-58.6-15.3-89.2C969.4,534.1,969.4,524.9,969.4,515.8L969.4,515.8z"
			/>
		<path class="st1" d="M263.7,517.5c-2.7-4.4-8.9-5-12.4-1.6c-5.1,5-2.8,22.7,4.9,24.1C268.8,542.5,267.6,524,263.7,517.5z"/>
		<path class="st1" d="M93.8,641.1c-0.8-13.7-2.5-27.2-5.2-40.6c-5.1-25.7-11.1-51.2-16.5-76.9c-1.2-5.7-3.9-10.9-9.9-9.5
			c-5,1.1-7.8,6.6-7,11.5c1.2,7.3,3.5,16.2,6.8,26.7c4.5,14.3,8.8,28.7,12.9,43.2c8.9,31.8,10.4,64.1,2.8,96.2
			c-3.5,14.6-8,28.8-13.6,42.7c-13,32.2-36.9,58-64.1,79v23.2C58.4,789.4,98.1,717.8,93.8,641.1L93.8,641.1z"/>
		<path class="st1" d="M777.5,535.6c3.8-2.2,6.1-7.1,4.5-11.3c-3-8-26.4-16-30-4.7C748.2,531.3,768.6,540.7,777.5,535.6L777.5,535.6
			z"/>
		<path class="st1" d="M521.7,546.6c5.7,4.3,13.7,5.9,18.7,10c5.3,4.4,6.9,12.6,7.9,18.4c1.5,9.3,6.9,20.3,16.3,23.5
			c10.1,3.5,13.6-5.7,16.3-13c3.6-9.4,6-18.7,7.3-27.8c1.6-11.6,2.1-21.7-9.6-26.5c-16.2-6.7-26.9-11.4-32.3-14
			c-6.9-3.3-15.4-5.3-21.2,1C519,524.8,512.3,539.5,521.7,546.6L521.7,546.6z M531.5,532.2c2.9-5.5,8.5-4.7,13.5-2.2
			c7.6,3.8,15.2,7.6,22.7,11.5c9.5,4.8,8.7,9.4,7.2,18.7c-1.3,8.1-2.7,14.1-4.1,18.1c-1.9,5.6-7.7,4.2-9-1.2
			c-1.2-5.3-2.2-10.5-3.1-15.9c-1.9-11.2-15.2-17.1-25.8-22.7C530.4,537.3,530,535.2,531.5,532.2L531.5,532.2z"/>
		<path class="st1" d="M440.7,514.7c-22-2.3-39,16.9-37.6,37.7c1.6,23.5,25,35.5,46.1,26.5c14.8-6.3,24-22,20.2-37.8
			C466.1,527.3,455,516.2,440.7,514.7z M451.1,564L451.1,564c-5.4,7.9-16.2,9.8-24.2,4.4s-10.1-16.2-4.8-24.1s16.2-9.8,24.2-4.4
			S456.5,556.1,451.1,564z"/>
		<path class="st1" d="M228.7,541.2c5.1-1.5,7.7-7.9,5.8-14.3c-1.9-6.4-7.6-10.4-12.7-8.9c-5.1,1.5-7.7,7.9-5.8,14.3
			C217.9,538.7,223.6,542.7,228.7,541.2z"/>
		<path class="st1" d="M293,519.7c-3.5-3.3-8.9-2.4-11.2,1.5c-2.3,4-2,15.8,2.8,18C295.4,544.3,300.1,526.5,293,519.7z"/>
		<path class="st1" d="M119.4,527.5c-3.4-5-9.8-6.6-14.2-3.5s-5.2,9.5-1.8,14.5c3.4,5,9.8,6.6,14.2,3.5S122.9,532.5,119.4,527.5z"/>
		<path class="st1" d="M485.4,530.4c-1.5,5,1,10.1,5.5,11.5c4.5,1.3,9.4-1.6,10.9-6.6s-1-10.1-5.5-11.5S486.9,525.4,485.4,530.4z"/>
		<path class="st1" d="M1279.7,546.6c9.3,5.1,19.8-16.1,12.9-20.6C1283.6,520.1,1271.6,542.1,1279.7,546.6z"/>
		<path class="st1" d="M1143.9,672.1c4.5-12,6.8-24.2,6.8-36.8c0.1-15.2-0.1-34.4-0.8-55.1c-0.5-15.9,0.9-31.5,4.2-47
			c2-9.3-5.3-8.5-10.7-4.9c-3.5,2.4-31,20.8-18.4,25.7c3.9,1.5,9.6-5.3,12.3,1c0.3,0.8,0.4,1.9,0.3,3.2c-2.5,21.2-1.5,42.6-1.6,64.1
			c-0.1,15.4-1.6,33.2-8.1,48.4c-3.9,9.2-12.2,21.8-17.6,32.5c-15.2,30.8-21.9,71.1-4.1,102c3.1,5.3,6.1,10.7,9.2,16.1
			c8.8,15.6,10.9,35.6,2.6,51.6c-1.1,2.1-3.4,5.3-7.1,9.6c-3.6,4.3-6.9,8.8-9.9,13.5h19c2.8-5.8,7.1-12.8,12.6-21.2
			c12.6-18.9,8.3-44.7-2.8-63.3c-4.1-6.8-11.4-16.2-14.5-24.2c-9.4-24.1-0.1-55.7,10.2-77.8C1130.5,699.1,1139.6,683.5,1143.9,672.1
			L1143.9,672.1z"/>
		<path class="st1" d="M183.7,535.5c-3.8,3.6-3,10.6,1.9,15.8c4.8,5.2,11.9,6.5,15.7,3s3-10.6-1.9-15.8
			C194.6,533.2,187.6,531.9,183.7,535.5z"/>
		<path class="st1" d="M326.3,550.9c4.7-2.9,6.4-8.6,3.8-12.7c-2.6-4.1-8.4-5.1-13.1-2.2s-6.4,8.6-3.8,12.7S321.7,553.8,326.3,550.9
			z"/>
		<path class="st1" d="M683.9,566.2c6.9,1.3,13.7-6.1,17.2-11.4c4.8-7.3,0.7-11.3-6.1-14.2c-8-3.5-17.9-6.2-21,5.3
			C672.1,553.3,675.1,564.5,683.9,566.2L683.9,566.2z"/>
		<path class="st1" d="M762.6,551.8c-0.5-5-7.1-9.1-11.6-11c-9.2-3.8-16.7-2.5-22.3,3.7c-14.5,16.2,11.4,34,25.8,20.9
			C757.5,562.7,763,556.3,762.6,551.8L762.6,551.8z"/>
		
			<ellipse transform="matrix(0.1668 -0.986 0.986 0.1668 439.1672 1618.3074)" class="st1" cx="1177.1" cy="549.3" rx="9.5" ry="7.9"/>
		<path class="st1" d="M544.3,643c8.3,6.9,17,13.2,26.1,19c7.8,5,23.8,15.1,30.3,1.7c5.4-11.1,8.3-20.1,16.3-32.4
			c8.5-13,12.8-26.4,16.2-41.8c1.4-6.4-5.3-11.8-9.5-5.7c-1.8,2.7-3.2,6.4-4.4,10c-6.2,20.5-15.5,36.7-25.2,54.5
			c-3.5,6.4-6.6,11.7-14.3,6.3c-9.1-6.4-18.1-12.8-27.2-19.1c-2.2-1.5-3.6-2.7-4.2-3.6c-3.6-5.1,3-10.9,8-9.3
			c7.8,2.4,15.3,5,23.5,5.8c13.5,1.3,18.3-11.7,22.4-23.1c4.3-12,8-24.1,10.9-36.5c3.8-16,14.9-3,20.3,1.8
			c4.3,3.8,13.1,3.7,13.4-3.8c0.4-8.8-20.4-19.7-27.6-20.3c-10.3-0.9-14,5.6-16.6,14.9c-4.6,16.3-8.5,35.2-17.7,49.6
			c-9.5,14.8-35.2-15.6-46.9,6.2C533.1,626.8,535.1,635.4,544.3,643L544.3,643z"/>
		<circle class="st1" cx="436.7" cy="554.2" r="7.4"/>
		<path class="st1" d="M943.1,766c0.6-25.5-1.3-50.8-5.8-75.9c-8.3-46.6-28-104.8-74.1-127.4c-18.4-9-38.5-11.5-58.3-5.5
			c-27.3,8.2-50.6,32.2-57,60.3c-5.3,23.5,3.5,46.2,25.2,57.6c5.9,3.1,11.9,6.2,17.9,9.1c14.1,7,26,22.7,25.1,39
			c-0.9,17-12,22.9-25.4,30.5c-10.6,6-5.6,17,6.1,13.6c15.2-4.3,27.9-14.8,32.4-30.4c3.7-12.6,3.4-27.2-3.7-37.8
			c-10.3-15.6-26.3-21.7-42.5-30c-18.7-9.6-26.6-27.7-21.5-47.8c6.1-24.1,26.1-42.4,49.4-49.8c34-10.8,64,9.4,80.4,37.9
			c15,26,22.5,55.2,26.8,84.7c3.7,25.7,6,51.5,7,77.4c0.9,23.3,0.1,43.5-9.1,62.8c-6.5,13.6-14.8,26.7-25,39.1
			c-6,7.3-13.6,11.8-22.8,13.6c-4.6,0.9-9.9,3.5-8.6,9h32.2c1.5-1.8,2.9-3.5,4.4-5.2c11.2-12.9,21.2-28.9,28.2-42.9
			C937.8,822.1,942.4,795.2,943.1,766L943.1,766z"/>
		<path class="st1" d="M348.1,579.7c5.8-2.9,6.1-9.7,0.9-13.3c-4.7-3.3-14.3-2.8-17.5,2.6c-2.3,3.9-1.8,7.3,1.4,10.5
			C336.5,582.8,344.2,581.6,348.1,579.7L348.1,579.7z"/>
		
			<ellipse transform="matrix(0.3955 -0.9184 0.9184 0.3955 -421.1256 515.1919)" class="st1" cx="180.8" cy="577.5" rx="10.2" ry="8.4"/>
		<path class="st1" d="M107,569.2c-4,1.5-5.7,6.8-3.7,11.8s6.7,7.7,10.7,6.1s5.7-6.8,3.7-11.8S111,567.7,107,569.2z"/>
		<path class="st1" d="M730,600.5c4.4-2.5,7.5-8.7,5.3-13.7c-3.5-7.8-21.3-18.5-26.7-6.5C703,593,717.5,607.6,730,600.5L730,600.5z"
			/>
		<path class="st1" d="M705.3,672.6c-1.6-13.5-11.5-24.1-19.1-34.5c-6.8-9.3-5.8-17.1-4.7-27.9c1.2-11.5-0.3-19.2-7.8-28.6
			c-8.4-10.5-18.1-4.7-22.4,5.2c-5,11.6-9.8,26.2-15.9,37.7c-2.8,5.3-5.9,10.5-9.2,15.6c-3.5,5.4-7.4,12.6-11.9,21.5
			c-8.8,17.5,6.8,19.6,18.9,21.1c20.3,2.5,40.6,3,61,2.9C703,685.6,706.4,681.1,705.3,672.6L705.3,672.6z M685.3,672.8
			c-15.3-0.5-30.7-1.3-46-2.3c-11.8-0.8-14.6-7.2-7.8-16.8c7.5-10.6,13-20.1,16.6-28.4c6-14.2,9.8-23.1,11.5-26.7
			c3.2-7,10.8-7.4,10.3,2c-0.7,13.3-1.7,26.4,2.9,39.3c3.7,10.2,10.1,17.1,16.2,25.1C691.9,668.9,690.4,672.9,685.3,672.8
			L685.3,672.8z"/>
		<path class="st1" d="M1259.9,583c0.6-1,0.3-2.3-0.7-2.9c-4.4-2.9-17.4-3.2-21.9-0.5c-3.9,2.4,0.1,5.5,2.7,5.9
			C1244.4,586.1,1257.2,587.5,1259.9,583L1259.9,583z"/>
		
			<ellipse transform="matrix(0.9988 -4.884977e-02 4.884977e-02 0.9988 -28.2039 26.6105)" class="st1" cx="530.3" cy="590.3" rx="5.8" ry="5.2"/>
		<path class="st1" d="M1170.4,599.4c2.8,4.6,8.2,6.3,12.1,4s4.7-8,1.9-12.5s-8.2-6.3-12.1-4S1167.6,594.8,1170.4,599.4z"/>
		<path class="st1" d="M819.8,770.8c-9,5.2-19.9,5.6-29.5,9.2c-14.4,5.3-23.3,17.3-27.9,31.7c-6.4,19.8,10.4,32.5,24.3,42.8
			c7.1,5.3,16,11.6,26.8,19.1c2.7,1.9,6,4,9.1,2c4.1-2.5,1.3-7.3-1-9.9c-11.1-12.5-25.1-22.8-38.1-33.6c-9.8-8.2-10.8-20.5-1.7-29.4
			c7.1-6.9,18.9-7.5,26.3-10.2c19.9-7,38.1-21.7,46.5-41.2c8.2-19,5.2-38.8-3.4-57.3c-10.8-23-29.1-28.8-49.9-38.2
			c-3-1.3-6.7-3.4-8.8-5.2c-13.7-11.6-1.5-34.2,8.8-43.3c4.9-4.3,11.5-7.5,17.7-10.5c2.7-1.3,3.9-3.3,3.5-5.8c-1-6.5-9.8-3.8-13.6-2
			c-17.2,7.8-28.3,20.9-33.2,39.2c-5.3,20,4.3,30.7,21.8,37.2c27,10,45.1,25.8,47.1,56.5C845.9,741,836.7,761,819.8,770.8
			L819.8,770.8z"/>
		<path class="st1" d="M433.7,609c9.1-1.4,18.2-3,27.2-4.7c2.8-0.5,7.1-2,5.4-5.3c-1.7-3.2-8.7-2.6-11.9-2.2
			c-6.5,0.7-30.4,3.1-31.7,8.8C421.6,611.1,431.1,609.5,433.7,609z"/>
		<path class="st1" d="M902.8,807.5c0.4-50.8-6.7-101-21.3-150.5c-5.2-17.8-12.2-35.8-21-54c-1.9-4-4.5-7.4-9.2-4.9
			c-0.3,0.2-0.5,0.4-0.6,0.8c-0.7,1.9-0.8,3.3-0.5,4.2c20.9,64.1,36.3,129.6,39.8,197c1.1,21.2-1.6,41.9-20.8,53.7
			c-4.9,3-11.5,5.4-17.3,7.6c-16.6,6.3-15.8,31.2-34.4,31.9c-3.8,0.2-8.2-0.7-11,2.8h36c2.9-6,6.5-11.3,11.1-16.1
			c4.8-5,11-7.3,17.7-10.6C894.8,857.7,902.6,831.9,902.8,807.5L902.8,807.5z"/>
		<path class="st1" d="M358.5,605c0-9.4-18.2-8.7-22.2-2.3c-2,3.2-2,6.2,0,9C341.3,618.7,358.5,614.1,358.5,605L358.5,605z"/>
		
			<ellipse transform="matrix(0.6239 -0.7815 0.7815 0.6239 -220.4169 788.4067)" class="st1" cx="708.9" cy="623.2" rx="11.3" ry="13.2"/>
		<path class="st1" d="M1233.6,622.2c0.2,5.5,17.1,4,20.1,3.5c6.9-1,4.5-6.8-1.1-7.5C1249.5,617.7,1233.3,616.5,1233.6,622.2z"/>
		<path class="st1" d="M473.7,627.2c3.6-3,2.3-7.6-2.2-8.4c-1-0.2-3.3-0.1-6.9,0.3c-7.2,0.7-39.4,3.9-42.5,10.3
			c-1.5,3.2,2.1,6.5,5.1,5.9c13.5-2.3,27-4.4,40.5-6.2C470.6,628.7,472.6,628.1,473.7,627.2L473.7,627.2z"/>
		<path class="st1" d="M829.6,638.1c3.2-0.2,5.6-2.7,5.4-5.5c-0.2-2.8-3-4.9-6.2-4.6s-5.6,2.7-5.4,5.5
			C823.7,636.2,826.4,638.3,829.6,638.1z"/>
		
			<ellipse transform="matrix(0.9426 -0.3338 0.3338 0.9426 -194.4953 151.8134)" class="st1" cx="344.5" cy="641.9" rx="11.1" ry="8.5"/>
		<path class="st1" d="M660.9,640c-1-1.8-2.6-2.7-4.7-2.4c-0.3,0-0.6,0.2-0.8,0.5c-3,3.6-11.5,15.6-8,19.3c2.8,3,14.1,2.2,17.9,1.8
			c5.3-0.6,3.6-4.1,1.9-7.4C665.5,648.4,663.5,644.5,660.9,640z"/>
		<path class="st1" d="M1196.9,644.3c-18.8-3.7-32.9,44-36.1,56.6c-8.1,31.2-14.2,66.7-9.8,99.5c2,15.4,7.8,31.7,13.6,46.5
			c8.4,21.6,6.8,35.5-12.9,49.2h22.1c7.5-8,13-16.4,16.7-25.3c13.9-34.2,9.4-74.4,6.9-110.4c-1.6-23.3-1.1-46.5,1.6-69.7
			c1.1-9.7,3.9-22.4,5-31C1204.9,652.9,1203.9,645.7,1196.9,644.3L1196.9,644.3z"/>
		<path class="st1" d="M478.1,652.9c0.9-5.2-4.8-6.6-8.8-6.1c-9.8,1.4-19.5,3.5-29,6.3c-8.7,2.6-7.7,11.5,1.7,10.2
			c10.7-1.5,21.4-3.5,31.9-6.1C475.6,656.8,477.8,654.8,478.1,652.9L478.1,652.9z"/>
		<path class="st1" d="M975.6,717.2c-0.3-14.3-1.6-29.7-3.8-46.2c-0.6-4.8-2.5-21-8.7-21.1c-6.5-0.1-5.7,7.5-5.4,11.6
			c2.8,33.9,5.5,70.2,3.3,105c-2.9,44.6-16.5,93.5-43.9,129.6H937C973,842.2,977.1,779.9,975.6,717.2z"/>
		<path class="st1" d="M721.5,654.5c-4.3,3.2-4.6,9.4-1.2,13.4c3.8,4.6,10.6,8.3,16.7,9c3.1,0.4,6.3-1.3,6.7-4.4
			C744.9,665.1,730.2,648.2,721.5,654.5z"/>
		<path class="st1" d="M310.2,659c-0.1-2.9-2.7-5.2-5.9-5.1c-3.2,0.1-5.7,2.5-5.6,5.4c0.1,2.9,2.7,5.2,5.9,5.1
			C307.8,664.4,310.3,661.9,310.2,659z"/>
		<path class="st1" d="M192.6,663.7c-0.1,3.2,2.7,5.9,6.1,6c3.4,0.1,6.3-2.5,6.4-5.7s-2.7-5.9-6.1-6
			C195.6,657.9,192.7,660.5,192.6,663.7z"/>
		<path class="st1" d="M1232,664.9c-4.9,7.6,23.3,6.1,25.9,3.6C1265.6,660.8,1235.1,660.1,1232,664.9z"/>
		<path class="st1" d="M351.4,675.3c-1.1-4.7-7.1-7.3-13.5-5.8c-6.3,1.5-10.6,6.5-9.5,11.2c1.1,4.7,7.1,7.3,13.5,5.8
			C348.3,685,352.5,680,351.4,675.3z"/>
		<path class="st1" d="M305.1,691.4c3-0.1,5.4-2.3,5.3-5c-0.1-2.7-2.5-4.9-5.5-4.8s-5.4,2.3-5.3,5
			C299.6,689.3,302.1,691.5,305.1,691.4z"/>
		<path class="st1" d="M577.7,699.5c1-4.6,2.6-10.9-0.2-14.9c-3.1-4.3-8.5-3.6-11.6,0.3c-1.5,1.9-2.5,4.1-2.8,6.7
			c-3.5,23.3-6.8,44.9-11.6,66.8c-10,45.8-19.9,90.8-14.4,137.7h20.5c-6.5-42.2-4.2-82.3,4.7-123.8
			C567.3,748,572.5,723.7,577.7,699.5z"/>
		<path class="st1" d="M463.3,684.8c-3.3-2.9-21.6-2.2-22.6,3.8c-1.1,7,14.8,4.6,18.1,4C462.2,691.9,466.7,687.8,463.3,684.8z"/>
		<path class="st1" d="M772.8,703.2c-0.9,5.7,1.5,19.1,8.5,21c2,0.5,3.9,0,5.7-1.7C808.9,702.7,776,684.2,772.8,703.2L772.8,703.2z"
			/>
		<path class="st1" d="M661.3,712.3c-0.4-5.8-7.3-9-12.3-10c-13.5-2.8-27.2-4.8-41-6c-6.2-0.5-11.9,2.5-12.6,9.2
			c-1.3,12.8,20,14,28,14.2c10.1,0.3,20.1,0.4,30.2,0.2C658,719.9,661.7,717,661.3,712.3L661.3,712.3z"/>
		<path class="st1" d="M336.3,719.2c5.7-1.4,9.4-6.2,8.3-10.8s-6.7-7-12.4-5.6c-5.7,1.4-9.4,6.2-8.3,10.8S330.6,720.7,336.3,719.2
			L336.3,719.2z"/>
		<path class="st1" d="M739.5,707.2c-8.6-3-47.3-9.2-51.2,3.7c-1.8,6,3.4,10.2,9,10.8c14.1,1.6,28.4,0.5,42.5-0.5
			C751.2,720.5,746.8,709.8,739.5,707.2z"/>
		<path class="st1" d="M1266.2,710.3c-11.6,0.3-23.2,0.8-34.8,1.3c-11.1,0.5-10.8,11.1,0.3,11.1c15.3,0,27.6-0.3,37-0.9
			C1275.6,721.3,1275.7,710,1266.2,710.3L1266.2,710.3z"/>
		<path class="st1" d="M135.4,812.6c5.3-1.9,11.4-9.5,15-14.1c13.5-17.3,22-40.2,25.3-61.8c1-6.9,1.2-13,0.6-18.5
			c-0.6-5.2-6.6-8.7-10.5-4.3c-3,3.4-4.4,13.2-5.4,17.8c-4.3,19.7-11.3,38.2-20.9,55.8c-2.5,4.6-10.9,14.2-11.3,19
			C127.6,810.5,131.4,814,135.4,812.6L135.4,812.6z"/>
		<path class="st1" d="M444.8,729c6.3-1.1,10.9-5.2,10.2-9.2c-0.7-4-6.4-6.4-12.7-5.3s-10.9,5.2-10.2,9.2S438.4,730.1,444.8,729z"/>
		<path class="st1" d="M589.2,767.1c13.7,8.8,24.1-6.1,18.9-18.7c-2.5-6.1-8.3-11.1-14.8-9.4C582.8,741.8,580,761.2,589.2,767.1z"/>
		<path class="st1" d="M705.5,757.2c-4-9.1-13.7-18.4-24.5-16.1c-6.5,1.4-10.1,6.5-10,13.3c0.2,7,3.3,12.9,9.4,17.7
			C692.5,781.5,713.9,776.3,705.5,757.2L705.5,757.2z"/>
		<path class="st1" d="M754.5,764.1c-5.3,10.2-10.5,20.3-15.6,30.6c-2,4-3.6,9.3,1.1,11.8c6.7,3.5,11.2-5.4,13.9-10.2
			c7.5-13.5,14.5-27.4,20.8-41.5c1.4-3,3.3-7.6,1-10.4C769,736,757.1,759.3,754.5,764.1L754.5,764.1z"/>
		<path class="st1" d="M740,748.5c-3.1-8-10.5-2.5-12.5,2.5c-3.5,9.1-6.9,18.2-12,26.5c-3.3,5.3-8.5,12.8-9.5,18.7
			c-1.2,7.8,7.5,13.8,14,8.6c1.2-1,2.5-2.8,3.9-5.4c6.7-12.8,11.8-26.1,15.3-40.1C739.9,756.4,740.9,750.7,740,748.5z"/>
		<path class="st1" d="M453.8,745.5c-5.6-1.5-31.9-1.3-30.6,9.3c1,8.3,24.7,4.3,30.1,3.2C460.8,756.5,461.2,747.4,453.8,745.5
			L453.8,745.5z"/>
		<path class="st1" d="M641.5,776c2.3-0.4,4.3-1.9,6.1-4.7c5.1-7.8,2.7-17.8-4.6-23.2c-6.9-5.1-13.1,0.5-13.5,7.6
			C629.1,762,631.8,777.5,641.5,776z"/>
		<path class="st1" d="M203.9,782.5c7.5,3,13.6-4.4,7.5-10.2c-3.9-3.7-21.2-20.7-25.6-10.3C182.4,770.1,198.6,780.4,203.9,782.5z"/>
		<path class="st1" d="M1263.4,760.3c-10.4,0.3-20.2,1-29.4,2c-8.2,0.9-9.2,11.6-0.2,11.5c10.6-0.2,21.3-0.7,31.9-1.5
			c2.7-0.2,4.6-0.6,5.6-1.2c5-2.7,3.8-10-2.2-10.9C1268.9,760.1,1267,760.2,1263.4,760.3L1263.4,760.3z"/>
		<path class="st1" d="M405.2,808.3c10.6,3.1,21.4,6.1,32.1,8.9c4.4,1.2,10.2,2.5,13-2c4.1-6.5-1.2-9.8-6.8-11.2
			c-11.5-2.8-23.1-5.7-34.7-8.5c-8.5-2-5.1-10.1-4.2-15.9c1.4-9.3-10-9.5-12.3-0.6c-3.4,13.4-6,23.7-7.7,30.9
			c-1.1,4.9-1.5,8.6-1,11.1c2.5,13.5,20.3,16.8,31.4,19.5c9,2.2,18,4,27.2,5.3c9.6,1.4,10.8-8.6,3.7-11.3c-8.5-3.3-22-7.8-40.5-13.5
			c-2.8-0.8-4.7-1.9-5.6-3.1C396.4,813.6,398.9,806.5,405.2,808.3L405.2,808.3z"/>
		<path class="st1" d="M421.7,785.3c7.6,1.5,15.2,2.7,22.8,3.5c5.7,0.6,10.6,1.8,12.7-3.8c1.4-3.9-0.4-7.2-4.5-7.9
			c-9.7-1.7-19.5-3.1-29.3-4.3C412.8,771.5,412.3,783.4,421.7,785.3z"/>
		<path class="st1" d="M83.8,815.1c11.4-8.7,20.8-19.2,28.2-31.6c8.7-13.7,13.3-29.1,16.5-45c3.6-17.5,5.9-35.2,7.1-53
			c0.9-16.1,1.5-33.1-1.6-49c-1.1-5.8-7-13.2-12.9-6.4c-2.4,2.7-2.5,6.2-2.6,10.3c-0.3,15.6-0.2,31.2,0.2,46.8
			c0.3,33.2,1.6,60.1-13.2,85.5c-9.4,15.5-20.6,25.5-35.7,35.1c-27.7,17.4-41.8,47-69.8,64.1v21.8c10-6.4,19-13.9,27.1-22.5
			c9.4-10,16.4-22.2,26-31.8C62.5,830.1,73.6,823,83.8,815.1L83.8,815.1z"/>
		<path class="st1" d="M582.4,811.1c10.2,6,15.4-6.6,24-9.7c11.4-4,16.2,8,20.7,16.9c4.3,8.5,13.6,2.8,11.9-4.5
			c-6.2-26.9-33.5-39.7-55.4-19.8C579.5,797.8,576.1,807.3,582.4,811.1L582.4,811.1z"/>
		
			<ellipse transform="matrix(0.7524 -0.6587 0.6587 0.7524 -327.0919 757.7755)" class="st1" cx="844.5" cy="814" rx="21" ry="21.4"/>
		
			<ellipse transform="matrix(0.9774 -0.2113 0.2113 0.9774 -156.7272 159.795)" class="st1" cx="669.3" cy="813.2" rx="14.6" ry="19.8"/>
		<path class="st1" d="M991,799.2c-0.6,1.7-0.9,3.6-1,5.8c-0.3,8.1-1.3,17.5-2.9,28.2c-3.5,22.4-12.4,43.4-23.4,62.8h13.8
			c12.9-24.3,20.5-50.2,22.8-77.5c0.4-4.4,1.3-16.9-1.1-20.4C996.5,794.1,992.5,795.1,991,799.2z"/>
		<path class="st1" d="M194.5,823.9c5.2-1.3,4.5-7.5,1.5-10.6c-3.9-4.1-14.5-18.5-20.4-13.9c-6.9,5.4,0.2,13.9,5.2,18.3
			C184.6,821.2,189,825.3,194.5,823.9L194.5,823.9z"/>
		
			<ellipse transform="matrix(0.9664 -0.2571 0.2571 0.9664 -175.7395 306.9939)" class="st1" cx="1086" cy="825.5" rx="9.4" ry="10.3"/>
		<path class="st1" d="M159.7,830.5c-6.8-4.2-14.6,2.3-9.3,9.3c3.4,4.5,15,15.5,20.2,15.5c5.1,0,6.2-5.3,3.8-9
			C171.1,841.3,165,833.7,159.7,830.5z"/>
		<path class="st1" d="M793.8,873.9c-22-16.7-34.6-27.1-52.8-36.7c-7.9-4.2-28.2-10.8-34.3-1.3c-3.8,5.8,2.3,11.5,8.3,10.3
			c12.4-2.6,21.9,3,31.5,9.5c13.7,9.3,27.6,18.3,41.6,27.2c3.9,2.5,9.5,5.2,12-1c0.1-0.3,0.1-0.7,0-1
			C798.8,878.4,796.8,876.1,793.8,873.9L793.8,873.9z"/>
		<path class="st1" d="M140.1,863.5c-8.5-5.4-17.4-8.1-21.2-18.5c-1.5-4.2-2.6-6.8-3.2-7.8c-2.9-4.6-10.1-4-11.4,1.4
			c-1.9,8.3,4.3,20.2,10.5,25.8c6.4,5.8,15.7,8,21.6,13.7c4.9,4.6,8.3,11.1,7,18h14.6C157.9,881.8,151.9,871,140.1,863.5z"/>
		<path class="st1" d="M281.2,855c-11.2-9.6-26.2-18.3-41-20.2c-30.3-3.7-48.5,39.1-56.5,61.1h13.1c7.4-20.1,29.9-52.9,55.8-36.5
			c10.3,6.5,15.1,14,21.5,23.2c2.7,3.9,5,6.4,7,7.5c5.9,3.4,13-0.2,15.2-6.4C299.8,873.6,288.2,861,281.2,855L281.2,855z"/>
		<path class="st1" d="M1231.5,834.8c-4-0.2-7.2,3.8-8.1,7.2c-4.3,18.3-9.4,36.3-15.5,54h16c3.8-13.2,7.6-26.4,11.6-39.5
			C1237.4,850.3,1241.9,835.2,1231.5,834.8L1231.5,834.8z"/>
		<path class="st1" d="M669.3,883.5c-5.1-18-16.5-30.3-34-36.9c-6.1-2.5-12.3-4.5-18.7-6c-3.6-1-15.1-4.9-18.3-4.1
			c-2.7-1.5-6.7-2.5-8,1.1c-0.1,0.3-0.1,0.6,0,0.9c0.5,1.8,1.1,3,1.8,3.7c10.9,9.6,23.1,19.6,36.4,30.1c11.5,9,22.3,17,32.1,23.9
			h10.9l-0.2-1.8L669.3,883.5L669.3,883.5z"/>
		<path class="st1" d="M682,862.8c-0.8,4.9-0.3,9.7,1.6,14.3c2.7,6.6,11.1,11.3,15,3.1c3.1-6.4,3.8-17.3-2.1-22.8
			C690.6,851.9,683.4,854.6,682,862.8L682,862.8z"/>
		<path class="st1" d="M354.5,857.6c-2,0.1-6.1,1.4-12.3,3.8c-6.1,2.4-12.2,4.7-18.4,6.8c-4.1,1.4-11.5,6.2-8,11.4
			c5.6,8.4,37.5,4.7,44.4,3.8C378.6,880.9,370.1,856.7,354.5,857.6L354.5,857.6z"/>
		<path class="st1" d="M436,864.1c-9.5-3.8-20.9-3.8-31-3.9c-10.1,0-10.6,11-3.5,15.8c8.4,5.7,22.6,6.2,32.7,5
			C445.5,879.6,446.5,868.3,436,864.1L436,864.1z"/>
		<path class="st1" d="M719.7,863c-7,7.9-5.3,23.4-1.8,33h20.2c-3.8-2.7-12.9-10.9-7.8-15.9c1.4-1.3,3.6-1.1,5,0
			c8.8,6.2,16.8,11.6,23.9,16h23.2c-14.8-12-30.5-22.8-47-32.1C730.3,860.9,725,857,719.7,863z"/>
		
			<ellipse transform="matrix(0.1115 -0.9938 0.9938 0.1115 89.8531 1851.2092)" class="st1" cx="1080.2" cy="875.4" rx="13.1" ry="11.9"/>
		<path class="st1" d="M572.7,874.5c-1.4,2.8,1.9,5.7,3.7,6.9c5.1,3.4,12.6,8.1,22.8,14.1c0.2,0.1,0.2,0.2,0,0.3l-0.3,0.2h20.5
			c-12-6.9-24-13.9-36-21C580.5,873.3,575,869.9,572.7,874.5L572.7,874.5z"/>
		<path class="st1" d="M67.8,876.7c-8.9,3.2-18.3,12.5-25.4,19.3h19.9c1.6-2.2,4.1-4.1,7.3-5.6c3.7-1.7,7.3-1.7,10.8-0.1
			c2.7,1.2,4.9,3.1,6.8,5.7h20.4C101.3,880.3,83.9,871,67.8,876.7L67.8,876.7z"/>
		<path class="st1" d="M218.2,896h24.2C234.7,890.9,223.6,882.2,218.2,896z"/>
		<path class="st1" d="M1329.3,21.8c-12.6,0.1-28.7,16.8-33.8,27.4c-2.8,5.7-3.8,15.4,1.6,20.1c4.5,4,11.2,1.6,15.5-2
			c7.4-6.2,14.7-12.6,22-19c2.1-1.9,3.9-4,5.4-6.3C1346.4,32.3,1341,21.6,1329.3,21.8L1329.3,21.8z M1331,38.8
			c-7.8,7.7-15.4,14.5-22.9,20.7c-2.1,1.7-4.9,2-6.2-0.8c-2.2-4.7,18.6-22.3,22.8-25.9C1330,28.3,1336.3,33.6,1331,38.8z"/>
		<path class="st1" d="M1286.3,591.5c-2.8,12.6-4.1,25.8-3.7,39.5c0.8,31,7.1,62.1,15.9,91.8c6.5,21.7,16.8,47.8,45.5,41.8v-26.5
			c-19,5.9-28.1-7.6-33.2-23.1c-5.9-18.1-10.1-36.7-12.5-55.6c-4.1-32.4-3.3-99.2,45.7-99.2v-22.6
			C1316.1,543.5,1292.7,563.2,1286.3,591.5z"/>
		<path class="st1" d="M1311,645.6c0.9,19.9,3.6,39.5,8,59c2.9,12.8,8.5,28.5,25,20.8v-10.3c-2.2,4-6.9,5.4-10.2,2.4
			c-7.8-7.2,6.3-16.8,10.2-5.9V607.3c-6.7-3.9-8.4,1.5-8.8,6.8c-1.8,25.6,0.5,51.5,1.6,77.1c0.1,2.6,0,8.9-3.4,9.8
			c-3.8,1-6.1-0.4-6.6-4.3c-4.1-28.1-7.5-58.4-3.2-85.9c1.6-10.4,9.6-17.8,20.3-16.4v-10.2C1311,582.4,1309.9,623.2,1311,645.6z"/>
		<path class="st1" d="M1255.7,499.5c-5.1,1.5-14.8,5.4-29.1,11.5c-9.7,4.1-17.5,10.7-16.4,22.3c1.2,12.2,12.9,23.2,25.3,23.6
			c14,0.4,19.3-13.1,22.8-24.3c1.8-5.8,8-25.4,5.2-30.3C1261.9,499.3,1259.3,498.4,1255.7,499.5z M1233.2,543.2c-5.5,0-10-4.5-10-10
			s4.5-10,10-10s10,4.5,10,10S1238.7,543.2,1233.2,543.2z"/>
		<path class="st1" d="M1255.1,871.1c-4.9,7-9.2,15.3-12.9,24.9h19.9c4.2-8.2,9.6-15.4,16-21.8c18.9-18.7,43.1-21.5,65.6-37.5
			c0,0,0.1,0,0.1,0c0.1,0,0.1,0.1,0.2,0.1v-23.2c-17.8,12.5-35.2,20.6-53.3,30.1C1277.5,850.6,1263.7,858.9,1255.1,871.1
			L1255.1,871.1z"/>
		<path class="st1" d="M1340.7,896c-0.1-0.2-0.2-0.3-0.3-0.3c-0.1,0-0.1-0.1,0-0.2c1.1-0.9,2.3-1.4,3.6-1.4v-21.8l-44.3,23.7H1340.7
			L1340.7,896z"/>
		<path class="st1" d="M1091,690.7c4.8-34.9,3.7-70.7,10.2-105.1c0.4-1.9,1.1-3.9,2.2-5.9c3.5-6.3,8.2-1.4,8.2,3.9
			c-0.1,25.5-0.9,48.8-2.6,69.7c-0.2,2.3-1.3,9.8,3,8.9c2.7-0.6,3.4-5.3,3.8-7.7c3.7-23.2,6.3-44.8,7.8-64.9
			c0.9-12.1-1.3-33.4-18.9-30c-14.1,2.7-15.8,30.9-17,42c-1.7,16.9-3.3,33.9-4.8,50.8c-2.4,27.2-7.9,53.7-16.7,79.6
			c-0.4,1.2-0.9,2.5-1.4,3.7c-1.8,4.2-6,1.5-5.7-2.3c2.9-36,11.5-71.3,12.1-107.4c0.3-19-2.8-38-3.7-57
			c-0.7-14.3,2.8-26.9,10.5-37.8l2.7-3l5-5.5c4.6-4.9,8.6-10.2,11.9-16.1c0.2-0.3,0.2-0.6-0.1-0.9l-3.5-3.9
			c-0.3-0.4-0.7-0.4-1.1-0.1c-3.3,2.8-6.9,5-10.9,6.7c12.2-8.7,23.1-16.4,28.7-26.5c15.6-28.1-5.7-51-26.4-67.1
			c-23.4-18.1-48.5-33.5-75.3-46.2c-17-8.1-36.2-12.6-52.5-0.3c-2.9,2.2-6.3,6.3-7.5,9.4c-4.9,12.8,4.9,20.4,14.8,25.4
			c17.3,8.8,34.6,16.4,52.4,25.6c5.6,2.9,12.8,6.6,9.5,14.3c-3.9,9,9.1,7.1,13.3,7.4c9.2,0.5,32.8,5.6,30.3,19.5
			c-1.2,7-8.6,10.8-15,12.6c-13.6,3.8-26.4,6-39.5,12.8c-19.7,10.2-27,28.4-27.5,49.6c-0.7,27.3,4.3,54.7,10.5,81.2
			c1.7,7.5,2.8,13.4,3.1,17.8c1.1,13.1,0.1,27.7-1.2,39.5c-2,18.8-4,37.5-6,56.3c-0.4,4.1,3.5,9.1,6.6,4.3c1.3-2,2.5-5.2,3.6-9.7
			c6.3-25.8,10-52,11.1-78.6c0.5-13.1,0-24.1-1.6-33.2c-4.7-26.2-9.1-48.2-9-72.5c0-7.4,1-16.4,3-22.8c12.3-38.2,53.8-25,72.6-50.8
			c13.7-18.8-2.3-28.6-16.8-36.2c-29.6-15.4-59.9-29-89-45.3c-2.3-1.3-6.3-3.8-7.6-6c-5.7-9.8,13.9-9.7,18.1-8.9
			c17.9,3.3,32.4,10.3,48.8,19.5c15.7,8.8,30.7,18.6,45,29.5c12.8,9.8,28.3,24.9,20.8,43c-4.9,11.8-15.6,18.9-26.2,25
			c-7.5,4.4-14.3,8.5-20.3,12.5c-26.1,17.5-28.5,46.2-26.2,74.6c1.3,15.3,3.1,30.5,5.6,45.6c2.2,13.7,2.4,27.6,0.6,41.9
			c-2.1,16.7-4.7,40.3-7.8,70.9c-1.4,13.7-4.3,36.2,3.3,47.6c4.9,7.3,12,10.2,21.1,8.5c13.9-2.6,19.7-21,23.6-32.5
			C1081.6,741.3,1087.5,716.3,1091,690.7L1091,690.7z M1074,514c2.2,0.4,3.9,1.6,5,3.5c0.4,1.6,0.4,3.2,0,4.7
			c-1.4,1.5-3.1,2.6-4.9,3C1066.6,524.1,1068.4,516.1,1074,514L1074,514z M1053.7,521.6c4.1,0,7.3,3.3,7.3,7.3s-3.3,7.3-7.3,7.3
			s-7.3-3.3-7.3-7.3S1049.7,521.6,1053.7,521.6z M1037.5,548.7L1037.5,548.7c0.8-4.9,5.6-8.2,10.6-7.3l0,0c5,0.8,8.4,5.5,7.6,10.4
			l0,0c-0.8,4.9-5.6,8.2-10.6,7.3C1040,558.2,1036.6,553.6,1037.5,548.7z M1054.4,577.7c-1.1,4.7-5.7,7.7-10.3,6.6
			c-4.6-1.1-7.4-5.8-6.3-10.5c1.1-4.7,5.7-7.7,10.3-6.6S1055.5,573,1054.4,577.7z M1038,777.5c-2.4,0-4.4-2-4.4-4.4s2-4.4,4.4-4.4
			s4.4,2,4.4,4.4S1040.4,777.5,1038,777.5z M1043,749.7L1043,749.7c-0.6,2.4-2.9,4-5.2,3.4l0,0c-2.2-0.6-3.6-3-3-5.4l0,0
			c0.6-2.4,2.9-4,5.2-3.4l0,0C1042.3,744.8,1043.6,747.3,1043,749.7z M1044.5,723.8c-0.5,2-1.4,3.5-2.6,4.7c-0.9,0.9-2.4,1-3.4,0.1
			c-1.2-1.1-1.8-2.5-1.7-4.3c1.7-24.9,6-50.6,6-73.8c0-8-0.7-20.2-1.9-36.5c-0.6-7-3-23.1,9.2-21.9c5.2,0.5,7.6,4.4,7.8,9.3
			C1058.9,643.2,1055.6,683.3,1044.5,723.8L1044.5,723.8z M1056.9,776c-0.3,2.6-2.4,4.5-4.8,4.2s-4.1-2.5-3.8-5.1
			c0.3-2.6,2.4-4.5,4.8-4.2S1057.2,773.4,1056.9,776z M1060.9,752.9L1060.9,752.9c-1,2.3-3.5,3.5-5.6,2.6s-2.9-3.5-1.9-5.9l0,0
			c1-2.3,3.5-3.5,5.6-2.6S1062,750.6,1060.9,752.9z"/>
		<path class="st1" d="M1052.2,840.6c-1.4-11.5-12.5-19.8-23.9-16.4c-7.9,2.3-13,9.7-15.5,17.4c-4.2,12.9-8.3,28.7-5.4,41.4
			c1.5,6.7,2.4,11,2.7,13.1h15.6c-2.7-10.3-7.7-18.3-5.8-29.5c1-6.2,4.9-21.5,10.4-25.2c3.7-2.5,7.2-0.2,7.9,4
			c0.2,1.2,0.2,3.5-0.1,6.8c-1,14.7-3.2,29.3-0.3,44h17.5C1042.6,881.3,1054.4,858.9,1052.2,840.6L1052.2,840.6z"/>
		<path class="st1" d="M887.6,114.6c-14.1,34.5,11.2,62.9,28.3,89.8c11,17.3,21.7,34.9,33.3,51.9c9,13.2,18,26.4,26.9,39.6
			c3.7,5.5,14.9,18.2,21.5,7.1c6-10.2-15.9-35.8-25.4-48.1c-18.2-23.6-19.6-50.8-15.7-79.1c1.1-7.9,3-20.3,2.4-28.7
			c-1.3-19.3-15-44.8-33.7-52.5C908.9,87.8,893.5,100.1,887.6,114.6L887.6,114.6z M902.4,128.8c-2.7,0-4.8-2.1-4.8-4.8l0,0
			c0-2.7,2.1-4.8,4.8-4.8s4.8,2.1,4.8,4.8S905,128.8,902.4,128.8L902.4,128.8z M908.5,150.8c-2.6,0-4.7-2.1-4.7-4.7s2.1-4.7,4.7-4.7
			s4.7,2.1,4.7,4.7S911.1,150.8,908.5,150.8z M920.7,170.1c-2,1.9-5.2,1.6-7.3-0.6l0,0c-2-2.2-2.1-5.4-0.1-7.3
			c2-1.9,5.2-1.6,7.3,0.6l0,0C922.7,165,922.7,168.3,920.7,170.1z M944.3,192.9L944.3,192.9c0,5.4-4.3,9.7-9.7,9.7s-9.7-4.4-9.7-9.7
			s4.3-9.7,9.7-9.7S944.3,187.6,944.3,192.9z M937.2,147c0,2.8-2.2,5-5,5s-5-2.2-5-5s2.2-5,5-5S937.2,144.2,937.2,147z M932.7,123.5
			c0,4-3.3,7.3-7.3,7.3s-7.3-3.3-7.3-7.3s3.3-7.3,7.3-7.3S932.7,119.4,932.7,123.5z"/>
		<path class="st1" d="M515.7,680.8c-17.4-2.1-35.5,7.9-37.6,26.4c-0.6,5.4-0.9,9.7-0.8,13c1.4,44.1,3.1,83.2-8.3,122.4
			c-7.9,27.1-13,44.9-15.3,53.3h12.5c2.5-9.9,5-19.7,7.7-29.5c1-3.7,3-11.8,8.1-11.5c4.1,0.3,4,3.8,3.5,7.1c-2,11.3-4,22.6-6.3,33.9
			h10.2l-0.1-0.3c0-0.2,0-0.3,0-0.5c2-12.5,3.8-23.1,5.5-31.9c0.6-3.1,2.2-8.2,6.4-7.7c4.1,0.5,3.4,5.3,3.1,8.1
			c-1.1,10.8-2.3,21.5-3.7,32.3h10.6c1.3-38.4,4.5-72.1,14.4-107c5.8-20.3,13.8-45.9,17-69.1C545.2,700.3,536.4,683.3,515.7,680.8
			L515.7,680.8z M492.5,830c-0.4,4-1.3,8-2.6,11.8c-1.5,4.5-7.9,3.1-7-1.6c0.8-4,1.9-7.8,3.5-11.6
			C487.8,825.5,492.9,826.1,492.5,830z M494.7,816.1c-1.2,3.1-3.3,3.5-5.9,1.5c-0.4-0.3-0.6-0.7-0.6-1.2c0-5,1.2-9.9,3.5-14.7
			c0.9-1.8,4.2-1.6,5.1,0.2C498.3,804.8,495.8,813.2,494.7,816.1z M504.7,844.8c-0.1,0.3-0.3,0.6-0.6,0.7c-1.9,1.1-5.2,0.7-5.6-2
			c-0.5-4.1,0.4-7.6,2.8-10.5c0.7-0.9,2-1.1,3-0.5C507.7,834.8,506.1,841.3,504.7,844.8L504.7,844.8z M508.4,819.1
			c-1.8,3.1-6.3,1.6-5.9-2c0.4-3.5,1.3-6.9,2.6-10.2c1.8-4.4,6.7-2.1,6.4,1.9C511.3,812.4,510.3,815.9,508.4,819.1L508.4,819.1z
			 M524.6,745.4c-2,13.1-4.4,26.1-7.1,39c-0.4,2.1-1.2,3.9-2.3,5.2c-2.5,3-6.9,1-6.8-3.2c0-4.1,0.3-8.2,0.7-12.2
			c0.2-2.5-1-6-4.1-5.5c-5.5,0.9-3.7,19.4-11,16c-1.3-0.6-2-1.7-2-3.4c-0.5-24.6-0.3-43.1,0.8-55.4c1-11.2,3.5-28,18.7-27.7
			C532.4,698.6,526.5,733.4,524.6,745.4z"/>
		<path class="st1" d="M278,711.8c2-24.1-19.3-45.9-43.5-41.2c-16.2,3.2-31.1,16.6-35.9,32.3c-4.7,15.2,0.5,31.7,14.8,39.2
			C236.6,754.5,275.6,740.5,278,711.8z M219.1,696.6c5.2-4.8,11.7-8.1,19.4-9.8c15.1-3.4,29.2,8.2,25.3,23.7
			c-3.2,12.6-21.6,18.5-32.7,18.5C212,729,205.7,708.9,219.1,696.6L219.1,696.6z"/>
		<path class="st1" d="M224.3,717.2c6.3,5.5,18.7,0.4,25-3.4c5.1-3.1,7.7-8.5,4.1-13.8C245.2,687.8,211.4,705.9,224.3,717.2z"/>
		<path class="st1" d="M292.6,750.8c-19.8-3.7-42.1,7.1-48.1,27.1c-4.3,14.2,0.4,31.8,12.7,40.9c17.2,12.6,40.2,8.3,55.4-5.5
			C337.1,791,323.4,756.5,292.6,750.8L292.6,750.8z M298.7,792.1L298.7,792.1c-2.4,9.3-12,14.9-21.6,12.5s-15.5-12-13.1-21.3
			c2.4-9.3,12-14.9,21.6-12.5S301.1,782.8,298.7,792.1z"/>
		<path class="st1" d="M282.7,780.4c-4.3-0.8-8.4,1.9-9.1,6s2.1,8.1,6.4,8.9c4.3,0.8,8.4-1.9,9.1-6S287,781.2,282.7,780.4z"/>
		<path class="st1" d="M194.4,422.1c-8.4,1.3-11.7,6.4-10,15.1c1.3,6.7,4.7,15.6,7.8,25.7c6.7,21.8,38.2,11.4,51.8,5
			c5.3-2.5,8.8-5,10.6-7.8c9-13.9-10.5-40.2-25.4-40.8C219.7,419.1,208.1,420,194.4,422.1L194.4,422.1z M235.5,447.1
			c0,5.4-4.4,9.7-9.7,9.7s-9.7-4.4-9.7-9.7s4.4-9.7,9.7-9.7S235.5,441.7,235.5,447.1z"/>
		<path class="st1" d="M311.1,594.2c-2.3-9.5-5-18.9-8.3-28.2c-2.3-6.7-8.6-12.8-15.4-13.8c-22.7-3.7-47.6,4.5-67.9,15.4
			c-9.8,5.3-12.8,12.5-7.5,23c7.5,15,16.3,29.3,26.2,42.9c6.4,8.7,13.3,15.2,25.1,12.1c8.3-2.2,19.1-6.4,32.5-12.8
			C315.2,623.6,315.7,613.5,311.1,594.2L311.1,594.2z M223.2,581c2.7-5.2,49.8-16.7,57.7-18.6c1.7-0.4,3.5-0.3,5.4,0.2
			c0.2,0,0.3,0.2,0.4,0.3c3.8,5-2.6,7.5-6.1,8.9c-16.5,6.2-33,12.1-49.8,17.5C225.3,591.1,220.2,586.8,223.2,581L223.2,581z
			 M241.8,610.3c-3.7,1.2-7.8-0.1-8.3-4.3c-0.5-4.6,5.5-6.5,9.4-7.9c23.5-8.2,39.5-13.7,48-16.5c2.6-0.9,6.2,0,6.2,3.4
			c0,2.6-3.5,4.5-5.6,5.5C275.3,597.5,258.6,605,241.8,610.3L241.8,610.3z M296.3,618.2c-15.4,6.6-28,11.7-37.8,15.2
			c-1.9,0.7-4.7,0.6-6.2-0.9c-4.3-4.3,1.4-8.6,5.3-10.2c13.2-5.7,26.7-10.7,40.4-15.1c2.8-0.9,5.8-0.3,6.8,2.7
			C306.2,614.3,299.2,617,296.3,618.2z"/>
		<path class="st1" d="M392.5,696.7c1.8-29.4-7.8-59.5-18.9-86.5c-0.7-1.7-1.8-2.1-3.1-1.2c-0.6,0.5-1,1.2-1,2
			c0.8,21.2-0.3,42.3-3.3,63.2c-1.5,10.5-3,21-4.5,31.5c-0.9,6.2-1.7,15.9,6.7,16.8C384.4,724.3,391.7,710.3,392.5,696.7
			L392.5,696.7z M378.8,707.5c-0.7,3.9-2.4,8-7.1,6.3c-1.8-0.6-2.5-2.2-2.2-4.6c2.1-17.8,4.2-35.7,6.2-53.5c0.8-7,6.9-6.7,7-1
			C383.2,671.8,381.9,689.4,378.8,707.5L378.8,707.5z"/>
		<path class="st1" d="M47.8,700.4c9-34.2,10.8-71.9,3.3-106.9c-5.6-26-16.4-60.4-50.5-56c-0.1,0-0.2,0-0.4-0.1L0,537.2v23
			c25.1,1.6,34.6,24.3,38.4,46C44.8,642.6,43.2,721,0,737.9v26.5C26.2,756.6,41.3,725.1,47.8,700.4L47.8,700.4z"/>
		<path class="st1" d="M19.7,690.2c5-22.9,6.4-46.3,4.2-70c-1.4-15.2-7-32.8-23.9-36v10.1c14.9,2.4,14.4,27.1,14.7,37.9
			c0.6,23-1.1,44.6-5.1,64.8c-0.7,3.6-5.7,6-8.3,2.6c-1.6-2.1-1.2-7.7-1-10c2.2-26.7,3-50.8,1.1-77c-0.1-1.7-0.8-3.3-1.4-4.8v117.2
			C11.7,717.7,16.9,703.2,19.7,690.2z"/>
	</g>
</g>
</svg>
