<?xml version="1.0" encoding="UTF-8"?><svg xmlns="http://www.w3.org/2000/svg" viewBox="0 0 500 500"><g id="a"><path d="m114.03,85.24l3.9-3.22c32.86-27.14,77.84-34.74,116.76-18.37,5,2.1,9.86,4.57,14.51,7.4,33.49,20.35,55.46,58.68,56.31,98.27.5,23.29-5.62,47.77,3.25,69.2,11.55,27.89,43.5,39.77,72.11,48.74,28.61,8.97,60.55,20.93,71.98,48.88,7.15,17.5,4.28,37.85-2.91,55.45-19.05,46.59-66.91,77.53-116.32,83.98-49.41,6.45-99.6-8.9-142.41-34.21-59.97-35.46-108.88-92.52-126.55-160.5-17.67-67.98-.84-146.37,49.38-195.62Z" style="fill:#f5f5f5;"/></g><g id="b"><rect x="199.78" y="117.18" width="239.2" height="352.34" transform="translate(-22.48 26.54) rotate(-4.6)" style="fill:#fff;"/><path d="m452.72,459.37c-.17-2.12-11.69-144.17-28.48-351.19l.26.22c-72.56,5.84-153.38,12.35-238.41,19.19h-.03s.24-.28.24-.28c10.61,132.18,20.4,254.18,28.19,351.21l-.22-.19c145.21-11.55,236.75-18.83,238.45-18.96-1.7.14-93.23,7.58-238.42,19.38l-.21.02-.02-.21c-7.82-97.03-17.64-219.03-28.29-351.21l-.02-.26.26-.02h.03c85.02-6.83,165.85-13.32,238.41-19.15l.24-.02.02.24c16.51,207.04,27.83,349.11,28,351.23Z" style="fill:#263238;"/><rect x="214.27" y="181.52" width="192.59" height="4.38" transform="translate(-13.73 25.48) rotate(-4.6)" style="fill:#e0e0e0;"/><rect x="215.18" y="194.82" width="96.74" height="4.38" transform="translate(-14.94 21.76) rotate(-4.6)" style="fill:#e0e0e0;"/><rect x="234.04" y="209.73" width="159.48" height="4.38" transform="translate(-15.98 25.83) rotate(-4.6)" style="fill:#e0e0e0;"/><rect x="235.89" y="234.87" width="49.23" height="4.38" transform="translate(-18.16 21.64) rotate(-4.6)" style="fill:#e0e0e0;"/><path d="m217.71,226.38l-.98-12.19,12.19-.98.98,12.19-12.19.98Zm.1-11.28l.82,10.2,10.2-.82-.82-10.2-10.2.82Z" style="fill:#e0e0e0;"/><path d="m219.38,247.14l-.98-12.19,12.19-.98.98,12.19-12.19.98Zm.1-11.28l.82,10.2,10.2-.82-.82-10.2-10.2.82Z" style="fill:#e0e0e0;"/><rect x="237.4" y="252.48" width="108.69" height="4.38" transform="translate(-19.47 24.2) rotate(-4.6)" style="fill:#e0e0e0;"/><path d="m220.99,267.14l-.98-12.19,12.19-.98.98,12.19-12.19.98Zm.1-11.28l.82,10.2,10.2-.82-.82-10.2-10.2.82Z" style="fill:#e0e0e0;"/><rect x="221.59" y="272.63" width="192.59" height="4.38" transform="translate(-21 26.36) rotate(-4.6)" style="fill:#e0e0e0;"/><rect x="222.51" y="285.94" width="96.74" height="4.38" transform="translate(-22.22 22.64) rotate(-4.6)" style="fill:#e0e0e0;"/><rect x="241.37" y="300.85" width="159.48" height="4.38" transform="translate(-23.26 26.71) rotate(-4.6)" style="fill:#e0e0e0;"/><rect x="243.21" y="325.99" width="49.23" height="4.38" transform="translate(-25.44 22.52) rotate(-4.6)" style="fill:#e0e0e0;"/><path d="m225.04,317.5l-.98-12.19,12.19-.98.98,12.19-12.19.98Zm.1-11.28l.82,10.2,10.2-.82-.82-10.2-10.2.82Z" style="fill:#e0e0e0;"/><path d="m226.71,338.26l-.98-12.19,12.19-.98.98,12.19-12.19.98Zm.1-11.28l.82,10.2,10.2-.82-.82-10.2-10.2.82Z" style="fill:#e0e0e0;"/><rect x="244.73" y="343.6" width="108.69" height="4.38" transform="translate(-26.75 25.08) rotate(-4.6)" style="fill:#e0e0e0;"/><path d="m228.31,358.25l-.98-12.19,12.19-.98.98,12.19-12.19.98Zm.1-11.28l.82,10.2,10.2-.82-.82-10.2-10.2.82Z" style="fill:#e0e0e0;"/><rect x="228.92" y="363.72" width="192.59" height="4.38" transform="translate(-28.28 27.24) rotate(-4.6)" style="fill:#e0e0e0;"/><rect x="229.83" y="377.03" width="96.74" height="4.38" transform="translate(-29.5 23.52) rotate(-4.6)" style="fill:#e0e0e0;"/><rect x="248.7" y="391.94" width="159.48" height="4.38" transform="translate(-30.53 27.59) rotate(-4.6)" style="fill:#e0e0e0;"/><rect x="250.54" y="417.08" width="49.23" height="4.38" transform="translate(-32.72 23.4) rotate(-4.6)" style="fill:#e0e0e0;"/><path d="m232.36,408.59l-.98-12.19,12.19-.98.98,12.19-12.19.98Zm.1-11.28l.82,10.2,10.2-.82-.82-10.2-10.2.82Z" style="fill:#e0e0e0;"/><path d="m234.03,429.35l-.98-12.19,12.19-.98.98,12.19-12.19.98Zm.1-11.28l.82,10.2,10.2-.82-.82-10.2-10.2.82Z" style="fill:#e0e0e0;"/><rect x="252.05" y="434.69" width="108.69" height="4.38" transform="translate(-34.03 25.96) rotate(-4.6)" style="fill:#e0e0e0;"/><path d="m235.64,449.34l-.98-12.19,12.19-.98.98,12.19-12.19.98Zm.1-11.28l.82,10.2,10.2-.82-.82-10.2-10.2.82Z" style="fill:#e0e0e0;"/><path d="m281.04,163.19l.37,4.6-16.9,1.36-1.69-21.05,16.51-1.33.37,4.6-10.62.85.29,3.55,9.35-.75.36,4.45-9.35.75.31,3.85,11.01-.88Z" style="fill:#9184ff;"/><path d="m297.83,166.47l-4.89-6.18-3.77,6.87-6.8.55,6.81-11.26-8.17-9.81,6.71-.54,4.7,5.74,3.66-6.41,6.43-.52-6.52,10.75,8.69,10.26-6.86.55Z" style="fill:#9184ff;"/><path d="m319.34,160.63l-8.9.72-1.32,4.22-6.07.49,7.6-21.8,5.86-.47,11.02,20.3-6.2.5-1.98-3.96Zm-2.1-4.25l-3.25-6.52-2.16,6.95,5.41-.44Z" style="fill:#9184ff;"/><path d="m348.2,162.42l-.96-11.15-4.68,9.52-2.65.21-6.09-8.35.87,10.86-5.5.44-1.69-21.05,4.9-.39,8.37,11.55,6.24-12.73,4.9-.39,1.75,21.04-5.47.44Z" style="fill:#9184ff;"/></g><g id="d"><rect x="44.66" y="428.23" width="261.75" height="36.52" style="fill:#a1c1ff;"/><rect x="44.66" y="432.79" width="257.49" height="27.25" style="fill:#f5f5f5;"/><path d="m302.14,438.75s-.23.01-.67.02c-.45,0-1.1.01-1.95.02-1.72,0-4.25.02-7.51.04-6.53.01-15.96.04-27.62.06-23.33.01-55.54.03-91.13.06-35.59-.02-67.81-.04-91.14-.06-11.66-.03-21.09-.05-27.62-.06-3.26-.02-5.78-.03-7.51-.04-.85,0-1.51-.01-1.95-.02-.44,0-.67-.02-.67-.02,0,0,.23-.01.67-.02.45,0,1.1-.01,1.95-.02,1.72,0,4.25-.02,7.51-.04,6.53-.01,15.96-.04,27.62-.06,23.33-.01,55.55-.03,91.14-.06,35.58.02,67.8.04,91.13.06,11.66.03,21.09.05,27.62.06,3.26.02,5.79.03,7.51.04.85,0,1.51.01,1.95.02.44,0,.67.02.67.02Z" style="fill:#263238;"/><path d="m302.14,446.03s-.23.01-.67.02c-.45,0-1.1.01-1.95.02-1.72,0-4.25.02-7.51.04-6.53.01-15.96.04-27.62.06-23.33.01-55.54.03-91.13.06-35.59-.02-67.81-.04-91.14-.06-11.66-.03-21.09-.05-27.62-.06-3.26-.02-5.78-.03-7.51-.04-.85,0-1.51-.01-1.95-.02-.44,0-.67-.02-.67-.02,0,0,.23-.01.67-.02.45,0,1.1-.01,1.95-.02,1.72,0,4.25-.02,7.51-.04,6.53-.01,15.96-.04,27.62-.06,23.33-.01,55.55-.03,91.14-.06,35.58.02,67.8.04,91.13.06,11.66.03,21.09.05,27.62.06,3.26.02,5.79.03,7.51.04.85,0,1.51.01,1.95.02.44,0,.67.02.67.02Z" style="fill:#263238;"/><path d="m302.14,453.32s-.23.01-.67.02c-.45,0-1.1.01-1.95.02-1.72,0-4.25.02-7.51.04-6.53.01-15.96.04-27.62.06-23.33.01-55.54.03-91.13.06-35.59-.02-67.81-.04-91.14-.06-11.66-.03-21.09-.05-27.62-.06-3.26-.02-5.78-.03-7.51-.04-.85,0-1.51-.01-1.95-.02-.44,0-.67-.02-.67-.02,0,0,.23-.01.67-.02.45,0,1.1-.01,1.95-.02,1.72,0,4.25-.02,7.51-.04,6.53-.01,15.96-.04,27.62-.06,23.33-.01,55.55-.03,91.14-.06,35.58.02,67.8.04,91.13.06,11.66.03,21.09.05,27.62.06,3.26.02,5.79.03,7.51.04.85,0,1.51.01,1.95.02.44,0,.67.02.67.02Z" style="fill:#263238;"/><rect x="79.48" y="354.73" width="211.74" height="26.44" style="fill:#9184ff;"/><path d="m244.48,375.96s-.01-.11-.02-.3c0-.23-.01-.5-.02-.84-.01-.77-.03-1.82-.05-3.13-.02-2.7-.05-6.44-.09-10.84l.18.18c-3.07,0-6.46.01-10.02.02-.04.04.36-.36.19-.19h0v.53s0,.53,0,.53c0,.35,0,.7,0,1.05,0,.7,0,1.39,0,2.07,0,1.36,0,2.68,0,3.96-.01,2.54-.02,4.9-.03,6.98l-.15-.15c3.01.03,5.48.06,7.26.08.85.02,1.52.03,2.03.04.47.01.73.02.74.03.01.01-.22.02-.68.03-.5,0-1.16.02-2,.04-1.8.02-4.31.05-7.35.08h-.15s0-.15,0-.15c0-2.09-.02-4.44-.03-6.98,0-1.27,0-2.6,0-3.96,0-.68,0-1.37,0-2.07,0-.35,0-.7,0-1.05v-.53s0-.27,0-.27v-.25h0c-.17.16.23-.25.19-.21,3.57,0,6.96.01,10.02.02h.18s0,.18,0,.18c-.04,4.45-.07,8.23-.09,10.96-.02,1.29-.04,2.33-.05,3.09,0,.33-.02.59-.02.81,0,.18-.01.27-.02.26Z" style="fill:#263238;"/><rect x="258.57" y="358.87" width="32.66" height="17.88" style="fill:#fff;"/><rect x="254.26" y="354.73" width="36.96" height="26.44" style="opacity:.3;"/><path d="m254.1,381.02c-.11,0-.19-5.84-.19-13.03s.09-13.04.19-13.04.19,5.84.19,13.04-.09,13.03-.19,13.03Z" style="fill:#263238;"/><path d="m291.47,363.1c0,.11-7.42.19-16.58.19s-16.58-.09-16.58-.19,7.42-.19,16.58-.19,16.58.09,16.58.19Z" style="fill:#263238;"/><path d="m291.47,367.81c0,.11-7.42.19-16.58.19s-16.58-.09-16.58-.19,7.42-.19,16.58-.19,16.58.09,16.58.19Z" style="fill:#263238;"/><path d="m291.47,372.58c0,.11-7.42.19-16.58.19s-16.58-.09-16.58-.19,7.42-.19,16.58-.19,16.58.09,16.58.19Z" style="fill:#263238;"/><rect x="58.58" y="381.46" width="211.74" height="13.05" style="fill:#9184ff;"/><rect x="222.99" y="383.09" width="47.34" height="9.88" style="fill:#e0e0e0;"/><rect x="220.31" y="381.46" width="50.01" height="13.05" style="opacity:.3;"/><path d="m220.31,394.5c-.11,0-.18-2.81-.18-6.28,0-3.47.1-6.28.21-6.28s.18,2.81.18,6.28c0,3.47-.1,6.28-.21,6.28Z" style="fill:#263238;"/><rect x="73.8" y="386.49" width="127.53" height="3.12" style="fill:#e0e0e0;"/><path d="m215.16,394.4c0,.11-35.09.19-78.37.19s-78.37-.09-78.37-.19,35.08-.19,78.37-.19,78.37.09,78.37.19Z" style="fill:#263238;"/><path d="m220.83,394.46c0,.11-35.09.19-78.37.19s-78.37-.09-78.37-.19,35.08-.19,78.37-.19,78.37.09,78.37.19Z" style="fill:#263238;"/><path d="m270.32,381.36c0,.11-46.17.19-103.11.19s-103.12-.09-103.12-.19,46.16-.19,103.12-.19,103.11.09,103.11.19Z" style="fill:#263238;"/><rect x="57.03" y="394.46" width="211.74" height="33.79" style="fill:#455a64;"/><rect x="229.58" y="394.66" width="57.62" height="33.4" style="fill:#455a64;"/><rect x="235" y="399.23" width="52.2" height="24" style="fill:#f5f5f5;"/><rect x="229.58" y="394.66" width="57.62" height="33.4" style="opacity:.3;"/><path d="m214.09,420.84s0-.32-.02-.93c0-.62-.01-1.53-.02-2.72-.01-2.39-.03-5.91-.04-10.48l.08.08c-24.54.02-79.83.06-144.06.11h0l.19-.19c0,4.84,0,9.63,0,14.13l-.19-.19c40.41.03,76.4.06,102.29.08,12.96.02,23.39.04,30.59.06,3.6.01,6.39.02,8.29.03.94,0,1.66.01,2.16.01.49,0,.74.01.74.01,0,0-.24,0-.72.01-.49,0-1.2,0-2.13.01-1.89,0-4.66.02-8.24.03-7.19.01-17.61.03-30.54.06-25.93.02-61.97.05-102.43.08h-.19s0-.19,0-.19c0-4.5,0-9.29,0-14.13v-.19s.19,0,.19,0h0c64.23.05,119.52.09,144.06.11h.08s0,.08,0,.08c-.02,4.59-.03,8.13-.04,10.53,0,1.18-.01,2.08-.02,2.7,0,.6-.02.9-.02.9Z" style="fill:#263238;"/><path d="m229.65,428.03c-.11,0-.19-7.57-.19-16.91s.09-16.91.19-16.91.19,7.57.19,16.91-.09,16.91-.19,16.91Z" style="fill:#263238;"/></g><g id="e"><polygon points="67.07 189.03 159.06 201.37 161.71 202.07 153 261.93 104.13 255.58 56.62 248.62 67.07 189.03" style="fill:#a1c1ff;"/><polygon points="151.6 258.9 150.59 260.3 59.15 247.51 59.22 245.54 95.56 245.76 145.42 250.99 151.6 258.9" style="fill:#e0e0e0;"/><path d="m159.68,201.43s-11.22-13.29-45.92-7.34c0,0-20.97-14.29-44.88-5.58l-9.67,57.04s30.54-.32,40.21,7.25l11.96,1.53s28.11-5.83,40.21,4.58l8.08-57.48Z" style="fill:#fafafa;"/><path d="m159.68,201.43s-.06.35-.15,1.03c-.1.68-.24,1.69-.43,3.01-.38,2.65-.93,6.54-1.64,11.53-1.41,9.98-3.44,24.34-5.92,41.9l.11-.04c-1.19-1-2.52-1.86-3.94-2.6-1.43-.72-2.96-1.29-4.53-1.78-3.16-.94-6.54-1.46-10.01-1.7-3.47-.24-7.05-.2-10.69.05-3.64.26-7.35.7-11.09,1.41h.03c-3.76-.48-7.83-1-11.96-1.53l.04.02c-1.28-1-2.75-1.75-4.27-2.39-1.52-.63-3.1-1.14-4.72-1.59-3.23-.87-6.58-1.48-9.99-1.95-3.41-.46-6.89-.79-10.41-1-3.52-.22-7.08-.35-10.67-.34-.07,0-.13,0-.2,0l.08.1c3.42-20.21,6.69-39.48,9.66-57.04l-.05.06c2.06-.72,4.13-1.35,6.22-1.78.52-.13,1.05-.2,1.56-.3.52-.09,1.04-.19,1.56-.25.52-.07,1.04-.14,1.56-.2.52-.04,1.04-.09,1.56-.13,4.14-.31,8.2-.06,12.05.58,3.85.66,7.51,1.69,10.91,3,3.4,1.31,6.57,2.84,9.39,4.65h.02s.02,0,.02,0c7.31-1.24,14.04-1.72,19.93-1.48,5.89.23,10.92,1.19,14.86,2.49,3.95,1.28,6.79,2.88,8.58,4.13.9.63,1.53,1.16,1.95,1.54.41.38.6.6.6.6,0,0-.18-.22-.59-.61-.41-.38-1.04-.93-1.94-1.56-1.78-1.26-4.62-2.87-8.58-4.16-3.94-1.31-8.98-2.28-14.88-2.52-5.9-.25-12.63.21-19.95,1.45h.04c-2.83-1.81-6.01-3.34-9.42-4.66-3.41-1.32-7.07-2.34-10.93-3.01-3.86-.64-7.93-.91-12.08-.59-.52.04-1.04.09-1.56.13-.52.07-1.04.14-1.56.2-.52.06-1.04.16-1.57.25-.52.1-1.05.17-1.57.3-2.1.43-4.17,1.07-6.24,1.78h-.04s0,.06,0,.06c-2.98,17.56-6.25,36.83-9.67,57.04l-.02.1h.1c.06,0,.13,0,.2,0,3.59,0,7.15.13,10.66.34,3.52.22,6.99.54,10.4,1,3.41.47,6.75,1.07,9.97,1.94,1.61.44,3.18.95,4.7,1.58,1.51.63,2.97,1.38,4.23,2.36h.02s.02.02.02.02c4.14.53,8.2,1.05,11.96,1.53h.01s.01,0,.01,0c3.73-.72,7.43-1.15,11.07-1.41,3.63-.25,7.21-.29,10.67-.06,3.46.24,6.83.75,9.98,1.68,1.57.48,3.09,1.05,4.51,1.77,1.42.73,2.74,1.58,3.92,2.57l.09.08.02-.12c2.46-17.57,4.47-31.94,5.87-41.93.69-4.99,1.24-8.88,1.6-11.52.18-1.32.32-2.33.41-3.01.09-.68.14-1.03.14-1.03Z" style="fill:#263238;"/><path d="m104.35,253.68s2.21-13.3,4.83-29.72c2.62-16.42,4.71-29.74,4.67-29.75-.05,0-2.21,13.3-4.83,29.72-2.62,16.42-4.71,29.74-4.67,29.74Z" style="fill:#263238;"/><path d="m73.21,195.45s.03,0,.1-.01c.07-.01.16-.03.28-.05.25-.05.61-.11,1.06-.19.23-.04.49-.09.77-.14.28-.05.59-.08.92-.13.66-.09,1.41-.21,2.24-.27.42-.04.85-.08,1.31-.12.45-.04.93-.05,1.42-.07.98-.07,2.03-.05,3.14-.05,2.21.06,4.64.25,7.16.65,2.52.42,4.88,1.02,6.99,1.67,1.05.35,2.05.67,2.96,1.05.46.18.91.34,1.32.52.42.18.82.36,1.2.53.77.32,1.44.68,2.04.98.3.15.58.28.83.42.25.14.47.26.68.38.4.22.72.4.94.52.1.05.18.1.25.13.06.03.09.04.09.04,0,0-.03-.02-.08-.05-.06-.04-.14-.09-.24-.15-.22-.13-.53-.31-.93-.55-.2-.12-.43-.25-.67-.39-.25-.14-.53-.28-.82-.43-.59-.3-1.26-.67-2.03-1-.38-.17-.78-.35-1.2-.54-.42-.19-.87-.35-1.32-.53-.91-.38-1.91-.71-2.96-1.06-2.12-.66-4.49-1.27-7.01-1.69-2.53-.4-4.97-.59-7.18-.64-1.11,0-2.16,0-3.15.06-.49.03-.97.04-1.42.08-.46.05-.89.09-1.31.13-.84.07-1.58.2-2.24.3-.33.05-.64.09-.92.14-.28.06-.53.11-.76.16-.45.09-.8.17-1.06.22-.11.03-.2.05-.27.06-.06.01-.09.02-.09.03Z" style="fill:#263238;"/><path d="m72.24,202.28s.03,0,.1,0c.07-.01.17-.03.28-.05.26-.05.62-.11,1.08-.19.24-.04.5-.09.78-.14.29-.05.6-.08.94-.13.67-.09,1.43-.21,2.28-.27.42-.04.87-.08,1.33-.12.46-.04.95-.05,1.45-.07,1-.06,2.07-.05,3.2-.05,2.25.06,4.73.24,7.3.65,2.57.42,4.98,1.02,7.14,1.67,1.07.35,2.09.67,3.02,1.05.47.18.92.34,1.35.52.43.19.84.36,1.23.53.79.32,1.47.68,2.08.98.3.15.59.28.85.42.25.14.49.27.7.38.41.22.74.4.97.52.1.05.19.1.25.13.06.03.09.04.09.04,0,0-.03-.02-.08-.05-.06-.04-.14-.09-.25-.15-.23-.13-.55-.32-.95-.55-.21-.12-.44-.25-.69-.39-.26-.14-.54-.28-.84-.43-.61-.3-1.29-.67-2.08-1-.39-.17-.8-.35-1.23-.54-.43-.19-.89-.35-1.35-.53-.93-.38-1.96-.7-3.03-1.06-2.16-.66-4.58-1.26-7.16-1.69-2.58-.4-5.06-.59-7.32-.64-1.13,0-2.2,0-3.21.06-.5.03-.99.04-1.45.08-.46.05-.91.09-1.34.13-.85.07-1.61.2-2.29.3-.34.05-.65.09-.93.14-.28.06-.54.11-.78.16-.46.09-.82.17-1.08.22-.12.03-.21.05-.28.06-.06.01-.09.02-.09.03Z" style="fill:#263238;"/><path d="m70.12,209.05s.03,0,.1,0c.07-.01.17-.03.28-.05.26-.05.62-.11,1.08-.19.24-.04.5-.09.78-.14.29-.05.6-.08.94-.13.67-.09,1.43-.21,2.28-.27.42-.04.87-.08,1.33-.12.46-.04.95-.05,1.45-.07,1-.06,2.07-.05,3.2-.05,2.25.06,4.73.24,7.3.65,2.57.42,4.98,1.02,7.14,1.67,1.07.35,2.09.67,3.02,1.05.47.18.92.34,1.35.52.43.19.84.36,1.23.53.79.32,1.47.68,2.08.98.3.15.59.28.85.42.25.14.49.27.7.38.41.22.74.4.97.52.1.05.19.1.25.13.06.03.09.04.09.04s-.03-.02-.08-.05c-.06-.04-.14-.09-.25-.15-.23-.13-.55-.32-.95-.55-.21-.12-.44-.25-.69-.39-.26-.14-.54-.28-.84-.43-.61-.3-1.29-.67-2.08-1-.39-.17-.8-.35-1.23-.54-.43-.19-.89-.35-1.35-.53-.93-.38-1.96-.7-3.03-1.06-2.16-.66-4.58-1.26-7.16-1.69-2.58-.4-5.06-.59-7.32-.64-1.13,0-2.2,0-3.21.06-.5.03-.99.04-1.45.08-.46.05-.91.09-1.34.13-.85.07-1.61.2-2.29.3-.34.05-.65.09-.93.14-.28.06-.54.11-.78.16-.46.09-.82.17-1.08.22-.12.03-.21.05-.28.06-.06.01-.09.02-.09.03Z" style="fill:#263238;"/><path d="m69.34,215.87s.03,0,.1-.01c.07-.01.17-.03.28-.05.26-.05.62-.11,1.08-.19.24-.04.5-.09.78-.14.29-.05.6-.08.94-.13.67-.09,1.43-.21,2.28-.27.42-.04.87-.08,1.33-.12.46-.04.95-.05,1.45-.07,1-.06,2.07-.05,3.2-.05,2.25.06,4.73.24,7.3.65,2.57.42,4.98,1.02,7.14,1.67,1.07.35,2.09.67,3.02,1.05.47.18.92.34,1.35.52.43.19.84.36,1.23.53.79.32,1.47.68,2.08.98.3.15.59.28.85.42.25.14.49.27.7.38.41.22.74.4.97.52.1.05.19.1.25.13.06.03.09.04.09.04,0,0-.03-.02-.08-.05-.06-.04-.14-.09-.25-.15-.23-.13-.55-.32-.95-.55-.21-.12-.44-.25-.69-.39-.26-.14-.54-.28-.84-.43-.61-.3-1.29-.67-2.08-1-.39-.17-.8-.35-1.23-.54-.43-.19-.89-.35-1.35-.53-.93-.38-1.96-.7-3.03-1.06-2.16-.66-4.58-1.26-7.16-1.69-2.58-.4-5.06-.59-7.32-.64-1.13,0-2.2,0-3.21.06-.5.03-.99.04-1.45.08-.46.05-.91.09-1.34.13-.85.07-1.61.2-2.29.3-.34.05-.65.09-.93.14-.28.06-.54.11-.78.16-.46.09-.82.17-1.08.22-.12.03-.21.05-.28.06-.06.01-.09.02-.09.03Z" style="fill:#263238;"/><path d="m67.77,222.66s.03,0,.1-.01c.07-.01.17-.03.28-.05.26-.05.62-.11,1.08-.19.24-.04.5-.09.78-.14.29-.05.6-.08.94-.13.67-.09,1.43-.21,2.28-.27.42-.04.87-.08,1.33-.12.46-.04.95-.05,1.45-.07,1-.06,2.07-.05,3.2-.05,2.25.06,4.73.24,7.3.65,2.57.42,4.98,1.02,7.14,1.67,1.07.35,2.09.67,3.02,1.05.47.18.92.34,1.35.52.43.19.84.36,1.23.53.79.32,1.47.68,2.08.98.3.15.59.28.85.42.25.14.49.27.7.38.41.22.74.4.97.52.1.05.19.1.25.13.06.03.09.04.09.04,0,0-.03-.02-.08-.05-.06-.04-.14-.09-.25-.15-.23-.13-.55-.32-.95-.55-.21-.12-.44-.25-.69-.39-.26-.14-.54-.28-.84-.43-.61-.3-1.29-.67-2.08-1-.39-.17-.8-.35-1.23-.54-.43-.19-.89-.35-1.35-.53-.93-.38-1.96-.7-3.03-1.06-2.16-.66-4.58-1.26-7.16-1.69-2.58-.4-5.06-.59-7.32-.64-1.13,0-2.2,0-3.21.06-.5.03-.99.04-1.45.08-.46.05-.91.09-1.34.13-.85.07-1.61.2-2.29.3-.34.05-.65.09-.93.14-.28.06-.54.11-.78.16-.46.09-.82.17-1.08.22-.12.03-.21.05-.28.06-.06.01-.09.02-.09.03Z" style="fill:#263238;"/><path d="m66.72,229.47s.03,0,.1-.01c.07-.01.17-.03.28-.05.26-.05.62-.11,1.08-.19.24-.04.5-.09.78-.14.29-.05.6-.08.94-.13.67-.09,1.43-.21,2.28-.27.42-.04.87-.08,1.33-.12.46-.04.95-.05,1.45-.07,1-.06,2.07-.05,3.2-.05,2.25.06,4.73.24,7.3.65,2.57.42,4.98,1.02,7.14,1.67,1.07.35,2.09.67,3.02,1.05.47.18.92.34,1.35.52.43.19.84.36,1.23.53.79.32,1.47.68,2.08.98.3.15.59.28.85.42.25.14.49.27.7.38.41.22.74.4.97.52.1.05.19.1.25.13.06.03.09.04.09.04,0,0-.03-.02-.08-.05-.06-.04-.14-.09-.25-.15-.23-.13-.55-.32-.95-.55-.21-.12-.44-.25-.69-.39-.26-.14-.54-.28-.84-.43-.61-.3-1.29-.67-2.08-1-.39-.17-.8-.35-1.23-.54-.43-.19-.89-.35-1.35-.53-.93-.38-1.96-.7-3.03-1.06-2.16-.66-4.58-1.26-7.16-1.69-2.58-.4-5.06-.59-7.32-.64-1.13,0-2.2,0-3.21.06-.5.03-.99.04-1.45.08-.46.05-.91.09-1.34.13-.85.07-1.61.2-2.29.3-.34.05-.65.09-.93.14-.28.06-.54.11-.78.16-.46.09-.82.17-1.08.22-.12.03-.21.05-.28.06-.06.01-.09.02-.09.03Z" style="fill:#263238;"/><path d="m65.33,236.27s.03,0,.1-.01c.07-.01.17-.03.28-.05.26-.05.62-.11,1.08-.19.24-.04.5-.09.78-.14.29-.05.6-.08.94-.13.67-.09,1.43-.21,2.28-.27.42-.04.87-.08,1.33-.12.46-.04.95-.05,1.45-.07,1-.06,2.07-.05,3.2-.05,2.25.06,4.73.24,7.3.65,2.57.42,4.98,1.02,7.14,1.67,1.07.35,2.09.67,3.02,1.05.47.18.92.34,1.35.52.43.19.84.36,1.23.53.79.32,1.47.68,2.08.98.3.15.59.28.85.42.25.14.49.27.7.38.41.22.74.4.97.52.1.05.19.1.25.13.06.03.09.04.09.04,0,0-.03-.02-.08-.05-.06-.04-.14-.09-.25-.15-.23-.13-.55-.32-.95-.55-.21-.12-.44-.25-.69-.39-.26-.14-.54-.28-.84-.43-.61-.3-1.29-.67-2.08-1-.39-.17-.8-.35-1.23-.54-.43-.19-.89-.35-1.35-.53-.93-.38-1.96-.7-3.03-1.06-2.16-.66-4.58-1.26-7.16-1.69-2.58-.4-5.06-.59-7.32-.64-1.13,0-2.2,0-3.21.06-.5.03-.99.04-1.45.08-.46.05-.91.09-1.34.13-.85.07-1.61.2-2.29.3-.34.05-.65.09-.93.14-.28.06-.54.11-.78.16-.46.09-.82.17-1.08.22-.12.03-.21.05-.28.06-.06.01-.09.02-.09.03Z" style="fill:#263238;"/><path d="m153.43,208.5s-.03-.02-.08-.05c-.06-.04-.14-.09-.24-.15-.22-.13-.53-.32-.93-.55-.2-.12-.43-.25-.67-.39-.25-.14-.53-.28-.82-.43-.59-.3-1.26-.67-2.03-1-.38-.17-.78-.36-1.2-.55-.42-.19-.87-.35-1.32-.54-.91-.38-1.91-.71-2.96-1.07-2.12-.67-4.48-1.28-7.01-1.71-2.53-.41-4.97-.6-7.18-.65-1.11,0-2.16-.01-3.15.05-.49.03-.97.04-1.43.08-.46.04-.89.09-1.31.13-.84.07-1.58.2-2.24.29-.33.05-.64.09-.92.14-.28.06-.53.11-.76.16-.45.09-.8.17-1.06.22-.11.03-.2.05-.27.06-.06.01-.09.02-.09.03,0,0,.03,0,.1,0,.07-.01.16-.03.28-.05.25-.05.61-.11,1.06-.19.23-.04.49-.09.77-.14.28-.05.59-.08.92-.13.66-.08,1.41-.21,2.24-.27.42-.04.85-.08,1.31-.12.45-.04.93-.04,1.42-.07.98-.06,2.03-.04,3.14-.04,2.21.06,4.64.26,7.16.67,2.52.43,4.88,1.03,6.99,1.69,1.05.36,2.05.68,2.96,1.05.46.18.9.34,1.32.53.42.19.82.36,1.2.53.77.32,1.44.69,2.03.98.3.15.58.28.83.42.25.14.47.27.68.38.4.22.72.4.94.52.1.05.18.1.25.13.06.03.09.04.09.04Z" style="fill:#263238;"/><path d="m152.15,215.27s-.03-.02-.08-.06c-.06-.04-.14-.09-.24-.15-.23-.13-.54-.32-.95-.56-.21-.12-.44-.25-.69-.4-.25-.14-.54-.28-.84-.44-.61-.31-1.28-.68-2.07-1.02-.39-.18-.8-.36-1.22-.55-.43-.19-.88-.36-1.35-.55-.93-.39-1.95-.72-3.02-1.09-2.16-.68-4.57-1.31-7.14-1.75-2.58-.43-5.06-.63-7.32-.7-1.13,0-2.21-.03-3.21.03-.5.03-.99.03-1.45.07-.46.04-.91.08-1.34.12-.85.06-1.62.19-2.29.28-.34.05-.65.09-.94.14-.28.06-.55.11-.78.15-.46.09-.82.16-1.08.21-.12.02-.21.04-.28.06-.06.01-.09.02-.09.03,0,0,.03,0,.1,0,.07-.01.17-.03.28-.04.26-.04.62-.11,1.08-.18.24-.04.5-.09.78-.14.29-.04.6-.08.94-.12.67-.08,1.44-.2,2.29-.26.43-.03.87-.07,1.33-.11.46-.03.95-.04,1.45-.06,1-.06,2.07-.03,3.2-.02,2.25.08,4.73.29,7.29.71,2.56.45,4.97,1.06,7.12,1.73,1.07.36,2.09.69,3.01,1.07.47.19.92.35,1.35.54.43.19.83.37,1.22.54.79.33,1.47.7,2.08.99.3.15.59.29.84.42.25.14.48.27.69.39.41.23.73.4.96.53.1.06.19.1.25.13.06.03.09.04.09.04Z" style="fill:#263238;"/><path d="m151.97,222.36s-.03-.02-.08-.06c-.06-.04-.14-.09-.24-.15-.23-.13-.54-.32-.95-.56-.21-.12-.44-.25-.69-.4-.25-.14-.54-.28-.84-.44-.61-.31-1.28-.68-2.07-1.02-.39-.18-.8-.36-1.22-.55-.43-.19-.88-.36-1.35-.55-.93-.39-1.95-.72-3.02-1.09-2.16-.68-4.57-1.31-7.14-1.75-2.58-.43-5.06-.63-7.32-.7-1.13,0-2.21-.03-3.21.03-.5.02-.99.03-1.45.07-.46.04-.91.08-1.34.12-.85.06-1.62.19-2.29.28-.34.05-.65.09-.94.14-.28.06-.55.11-.78.15-.46.09-.82.16-1.08.21-.12.02-.21.04-.28.06-.06.01-.09.02-.09.03,0,0,.03,0,.1,0,.07-.01.17-.03.28-.04.26-.04.62-.11,1.08-.18.24-.04.5-.09.78-.14.29-.04.6-.08.94-.12.67-.08,1.44-.2,2.29-.26.43-.03.87-.07,1.33-.11.46-.03.95-.04,1.45-.06,1-.06,2.07-.03,3.2-.02,2.25.08,4.73.29,7.29.71,2.56.45,4.97,1.06,7.12,1.73,1.07.36,2.09.69,3.01,1.07.47.19.92.35,1.35.54.43.19.83.37,1.22.54.79.33,1.47.7,2.08.99.3.15.59.29.84.42.25.14.48.27.69.39.41.23.73.4.96.53.1.06.19.1.25.13.06.03.09.04.09.04Z" style="fill:#263238;"/><path d="m150.52,229.07s-.03-.02-.08-.06c-.06-.04-.14-.09-.24-.15-.23-.13-.54-.32-.95-.56-.21-.12-.44-.25-.69-.4-.25-.14-.54-.28-.84-.44-.61-.31-1.28-.68-2.07-1.02-.39-.18-.8-.36-1.22-.55-.43-.19-.88-.36-1.35-.55-.93-.39-1.95-.72-3.02-1.09-2.16-.68-4.57-1.31-7.14-1.75-2.58-.43-5.06-.63-7.32-.7-1.13,0-2.21-.03-3.21.03-.5.03-.99.03-1.45.07-.46.04-.91.08-1.34.12-.85.06-1.62.19-2.29.28-.34.05-.65.09-.94.14-.28.06-.54.11-.78.15-.46.09-.82.16-1.08.21-.12.02-.21.04-.28.06-.06.01-.09.02-.09.03,0,0,.03,0,.1,0,.07-.01.17-.03.28-.04.26-.04.62-.11,1.08-.18.24-.04.5-.09.78-.14.29-.04.6-.08.94-.12.67-.08,1.44-.2,2.29-.26.43-.03.87-.07,1.33-.11.46-.03.95-.04,1.45-.06,1-.06,2.07-.03,3.2-.02,2.25.08,4.73.29,7.29.71,2.56.45,4.97,1.06,7.12,1.73,1.07.36,2.09.69,3.01,1.07.47.19.92.35,1.35.54.43.19.83.37,1.22.54.79.33,1.47.7,2.08.99.3.15.59.29.84.42.25.14.48.27.69.39.41.23.73.4.96.53.1.06.19.1.25.13.06.03.09.04.09.04Z" style="fill:#263238;"/><path d="m149.83,236.01s-.03-.02-.08-.06c-.06-.04-.14-.09-.24-.15-.23-.13-.54-.32-.95-.56-.21-.12-.44-.25-.69-.4-.25-.14-.54-.28-.84-.44-.61-.31-1.28-.68-2.07-1.02-.39-.18-.8-.36-1.22-.55-.43-.19-.88-.36-1.35-.55-.93-.39-1.95-.72-3.02-1.09-2.16-.68-4.57-1.31-7.14-1.75-2.58-.43-5.06-.63-7.32-.7-1.13,0-2.21-.03-3.21.03-.5.03-.99.03-1.45.07-.46.04-.91.08-1.34.12-.85.06-1.62.19-2.29.28-.34.05-.65.09-.94.14-.28.06-.55.11-.78.15-.46.09-.82.16-1.08.21-.12.02-.21.04-.28.06-.06.01-.09.02-.09.03,0,0,.03,0,.1,0,.07-.01.17-.03.28-.04.26-.04.62-.11,1.08-.18.24-.04.5-.09.78-.14.29-.04.6-.08.94-.12.67-.08,1.44-.2,2.29-.26.43-.03.87-.07,1.33-.11.46-.03.95-.04,1.45-.06,1-.06,2.07-.03,3.2-.02,2.25.08,4.73.29,7.29.71,2.56.45,4.97,1.06,7.12,1.73,1.07.36,2.09.69,3.01,1.07.47.19.92.35,1.35.54.43.19.83.37,1.22.54.79.33,1.47.7,2.08.99.3.15.59.29.84.42.25.14.48.27.69.39.41.23.73.4.96.53.1.06.19.1.25.13.06.03.09.04.09.04Z" style="fill:#263238;"/><path d="m148.63,242.8s-.03-.02-.08-.06c-.06-.04-.14-.09-.24-.15-.23-.13-.54-.32-.95-.56-.21-.12-.44-.25-.69-.4-.25-.14-.54-.28-.84-.44-.61-.31-1.28-.68-2.07-1.02-.39-.18-.8-.36-1.22-.55-.43-.19-.88-.36-1.35-.55-.93-.39-1.95-.72-3.02-1.09-2.16-.68-4.57-1.31-7.14-1.75-2.58-.43-5.06-.63-7.32-.7-1.13,0-2.21-.03-3.21.03-.5.03-.99.03-1.45.07-.46.04-.91.08-1.34.12-.85.06-1.62.19-2.29.28-.34.05-.65.09-.94.14-.28.06-.55.11-.78.15-.46.09-.82.16-1.08.21-.12.02-.21.04-.28.06-.06.01-.09.02-.09.03,0,0,.03,0,.1,0,.07-.01.17-.03.28-.04.26-.04.62-.11,1.08-.18.24-.04.5-.09.78-.14.29-.04.6-.08.94-.12.67-.08,1.44-.2,2.29-.26.43-.03.87-.07,1.33-.11.46-.03.95-.04,1.45-.06,1-.06,2.07-.03,3.2-.02,2.25.08,4.73.29,7.29.71,2.56.45,4.97,1.06,7.12,1.73,1.07.36,2.09.69,3.01,1.07.47.19.92.35,1.35.54.43.19.83.37,1.22.54.79.33,1.47.7,2.08.99.3.15.59.29.84.42.25.14.48.27.69.39.41.23.73.4.96.53.1.06.19.1.25.13.06.03.09.04.09.04Z" style="fill:#263238;"/><path d="m147.76,249.68s-.03-.02-.08-.06c-.06-.04-.14-.09-.24-.15-.23-.13-.54-.32-.95-.56-.21-.12-.44-.25-.69-.4-.25-.14-.54-.28-.84-.44-.61-.31-1.28-.68-2.07-1.02-.39-.18-.8-.36-1.22-.55-.43-.19-.88-.36-1.35-.55-.93-.39-1.95-.72-3.02-1.09-2.16-.68-4.57-1.31-7.14-1.75-2.58-.43-5.06-.63-7.32-.7-1.13,0-2.21-.03-3.21.03-.5.03-.99.03-1.45.07-.46.04-.91.08-1.34.12-.85.06-1.62.19-2.29.28-.34.05-.65.09-.94.14-.28.06-.55.11-.78.15-.46.09-.82.16-1.08.21-.12.02-.21.04-.28.06-.06.01-.09.02-.09.03s.03,0,.1,0c.07-.01.17-.03.28-.04.26-.04.62-.11,1.08-.18.24-.04.5-.09.78-.14.29-.04.6-.08.94-.12.67-.08,1.44-.2,2.29-.26.43-.03.87-.07,1.33-.11.46-.03.95-.04,1.45-.06,1-.06,2.07-.03,3.2-.02,2.25.08,4.73.29,7.29.71,2.56.45,4.97,1.06,7.12,1.73,1.07.36,2.09.69,3.01,1.07.47.19.92.35,1.35.54.43.19.83.37,1.22.54.79.33,1.47.7,2.08.99.3.15.59.29.84.42.25.14.48.27.69.39.41.23.73.4.96.53.1.06.19.1.25.13.06.03.09.04.09.04Z" style="fill:#263238;"/><path d="m68,247.53c-.84,3.19-2.01,5.59-3.81,8.36,2.17-.63,4.17-1.81,5.78-3.4.44,1.09.35,3.39.11,4.77,2.78-2.01,5.19-5.43,6.25-8.7l-8.33-1.03Z" style="fill:#455a64;"/><path d="m61.16,246.8s.02,0,.07.02c.06,0,.13.02.22.03.21.02.49.06.85.1.75.09,1.81.21,3.11.35,2.63.3,6.26.74,10.26,1.27,4,.54,7.62,1.07,10.23,1.49,1.29.21,2.35.38,3.09.5.35.06.63.1.84.14.09.01.16.02.22.03.05,0,.08,0,.08,0,0,0-.02-.01-.07-.02-.06-.01-.13-.03-.22-.05-.2-.04-.48-.1-.84-.17-.73-.14-1.78-.34-3.08-.56-2.61-.45-6.22-1-10.22-1.54-4-.53-7.63-.96-10.26-1.23-1.32-.14-2.38-.24-3.12-.3-.36-.03-.64-.05-.85-.07-.09,0-.16,0-.22-.01-.05,0-.08,0-.08,0Z" style="fill:#263238;"/></g><g id="f"><path d="m442.77,105.93s-.01.13-.06.37c-.06.27-.13.62-.23,1.05-.1.46-.23,1.02-.42,1.65-.19.64-.37,1.37-.67,2.16-.14.4-.28.81-.43,1.24-.15.43-.35.87-.53,1.32-.35.92-.81,1.87-1.28,2.87-.99,1.98-2.21,4.09-3.67,6.19-1.48,2.08-3.07,3.94-4.6,5.54-.79.78-1.52,1.53-2.27,2.17-.37.32-.71.65-1.07.94-.36.29-.7.56-1.02.82-.64.54-1.27.96-1.81,1.35-.53.4-1.01.71-1.41.95-.38.23-.68.42-.91.57-.21.13-.32.19-.33.18s.1-.09.3-.23c.23-.16.52-.36.88-.61.39-.26.86-.58,1.38-.99.53-.4,1.14-.84,1.77-1.38.32-.27.66-.54,1.01-.83.35-.29.69-.62,1.05-.95.74-.64,1.46-1.4,2.24-2.18,1.51-1.6,3.08-3.45,4.55-5.52,1.46-2.08,2.67-4.18,3.67-6.14.47-.99.94-1.93,1.3-2.84.19-.45.38-.88.54-1.31.16-.43.31-.84.45-1.23.3-.78.5-1.5.71-2.13.21-.63.36-1.18.47-1.63.12-.43.21-.77.28-1.04.07-.24.11-.36.12-.36Z" style="fill:#263238;"/><path d="m442.38,118.11s-.06.22-.22.6c-.16.38-.41.92-.75,1.58-.67,1.32-1.71,3.09-3.06,4.9-1.36,1.81-2.76,3.31-3.84,4.32-.54.51-.99.9-1.31,1.16-.32.26-.5.4-.52.38-.03-.04.64-.65,1.68-1.7,1.03-1.05,2.4-2.56,3.74-4.35,1.34-1.8,2.4-3.53,3.12-4.82.72-1.29,1.11-2.11,1.16-2.09Z" style="fill:#263238;"/><rect x="357.02" y="51.67" width="5.46" height="8.52" transform="translate(35.62 221.73) rotate(-35.93)" style="fill:#263238;"/><path d="m363.33,51.22l-9.11,6.6-5.39-7.44c2.62-3.1,5.63-5.35,9.11-6.6l5.39,7.44Z" style="fill:#ff725e;"/><path d="m355.75,56.72c-.15.11-1.53-1.54-3.09-3.67-1.56-2.13-2.71-3.95-2.57-4.05.15-.11,1.53,1.54,3.09,3.67,1.56,2.13,2.71,3.95,2.57,4.05Z" style="fill:#263238;"/><path d="m357.48,55.46c-.15.1-1.5-1.63-3.04-3.85-1.54-2.23-2.68-4.09-2.58-4.17.18-.15,1.58,1.58,3.12,3.8,1.54,2.23,2.65,4.12,2.51,4.22Z" style="fill:#263238;"/><path d="m359.79,53.78c-.15.1-1.51-1.65-3.05-3.91-1.54-2.26-2.68-4.16-2.56-4.24.17-.13,1.56,1.62,3.1,3.88,1.54,2.26,2.66,4.18,2.52,4.28Z" style="fill:#263238;"/><path d="m361.91,52.21c-.15.11-1.52-1.56-3.07-3.71-1.55-2.15-2.68-3.98-2.54-4.09.15-.1,1.52,1.56,3.07,3.71,1.55,2.15,2.68,3.98,2.54,4.09Z" style="fill:#263238;"/><rect x="424.43" y="58.2" width="5.46" height="8.52" transform="translate(207.32 -309.08) rotate(51.07)" style="fill:#263238;"/><path d="m432.05,65.78l-7.07-8.75,7.15-5.77c3.23,2.45,5.64,5.34,7.07,8.75l-7.15,5.77Z" style="fill:#ff725e;"/><path d="m426.16,58.5c-.11-.14,1.45-1.61,3.5-3.28,2.05-1.67,3.8-2.92,3.91-2.78.11.14-1.45,1.61-3.5,3.28-2.05,1.67-3.8,2.92-3.91,2.78Z" style="fill:#263238;"/><path d="m427.51,60.17c-.11-.14,1.55-1.59,3.69-3.24,2.15-1.65,3.95-2.89,4.03-2.79.16.17-1.49,1.66-3.63,3.31-2.14,1.65-3.98,2.87-4.09,2.72Z" style="fill:#263238;"/><path d="m429.3,62.39c-.11-.14,1.57-1.6,3.74-3.25,2.18-1.66,4.01-2.89,4.1-2.78.14.16-1.54,1.64-3.71,3.3-2.17,1.66-4.03,2.88-4.14,2.74Z" style="fill:#263238;"/><path d="m430.98,64.41c-.11-.14,1.47-1.6,3.54-3.26,2.07-1.66,3.84-2.89,3.95-2.75.11.14-1.47,1.6-3.54,3.26-2.07,1.66-3.84,2.89-3.95,2.75Z" style="fill:#263238;"/><rect x="392.18" y="39.93" width="6.47" height="10.09" transform="translate(5.11 -32.72) rotate(4.77)" style="fill:#263238;"/><path d="m402.26,43.51l-13.27-1.11.9-10.84c4.74-.76,9.18-.46,13.27,1.11l-.9,10.84Z" style="fill:#ff725e;"/><path d="m403.31,32.73c.09.13-2.93,1.48-6.88,1.15-3.96-.29-6.73-2.09-6.62-2.21.08-.19,2.88,1.29,6.67,1.56,3.79.32,6.78-.7,6.83-.5Z" style="fill:#263238;"/><path d="m393.37,42.74c-.18-.02-.15-2.11.06-4.67.21-2.57.53-4.64.71-4.62.18.02.15,2.11-.06,4.67-.21,2.57-.53,4.63-.71,4.62Z" style="fill:#263238;"/><path d="m395.89,43.01c-.18-.01-.15-2.12.06-4.69.22-2.58.53-4.66.71-4.64.18.02.15,2.12-.06,4.7-.21,2.58-.53,4.66-.71,4.64Z" style="fill:#263238;"/><path d="m398.42,43.18c-.18-.01-.15-2.12.06-4.69.22-2.58.53-4.66.71-4.64.18.02.15,2.12-.06,4.7-.22,2.58-.54,4.66-.71,4.64Z" style="fill:#263238;"/><path d="m400.52,43.36c-.18-.01-.14-2.29.1-5.07.23-2.79.57-5.03.75-5.02.18.01.14,2.29-.1,5.07-.23,2.79-.57,5.03-.75,5.02Z" style="fill:#263238;"/><path d="m390.99,42.5c-.18-.01-.14-2.29.1-5.07.23-2.79.57-5.03.75-5.02.18.01.14,2.29-.1,5.07-.23,2.79-.57,5.03-.75,5.02Z" style="fill:#263238;"/><path d="m437.44,97.62c-2.16,25.89-24.9,45.12-50.79,42.97-25.89-2.16-45.12-24.9-42.97-50.79,2.16-25.89,24.9-45.12,50.79-42.96,25.89,2.16,45.12,24.9,42.96,50.79Z" style="fill:#9184ff;"/><circle cx="390.59" cy="93.33" r="39.51" transform="translate(48.41 303.53) rotate(-45)" style="fill:#fff;"/><path d="m429.96,96.62s-.02-.22-.01-.64c0-.45.02-1.07.03-1.88,0-.42.02-.88.03-1.38-.01-.51-.08-1.06-.12-1.66-.09-1.2-.16-2.59-.49-4.13-.44-3.1-1.57-6.8-3.5-10.79-1.95-3.98-4.88-8.2-9.04-11.93-4.15-3.69-9.5-6.99-15.86-8.67-1.6-.36-3.2-.83-4.9-.98-.84-.1-1.68-.25-2.54-.31-.86-.03-1.73-.05-2.6-.08-.44,0-.87-.05-1.31-.02l-1.32.09c-.88.07-1.77.1-2.66.21-1.76.33-3.58.53-5.34,1.1-1.8.42-3.52,1.14-5.28,1.82-.86.38-1.7.83-2.55,1.25-.87.39-1.68.91-2.49,1.43-1.68.96-3.18,2.21-4.74,3.4-1.43,1.34-2.93,2.65-4.2,4.21-2.59,3.03-4.92,6.45-6.48,10.29-1.6,3.81-2.63,7.92-3.04,12.15-.3,4.24.04,8.46.98,12.49.9,4.05,2.63,7.8,4.68,11.23.99,1.75,2.26,3.28,3.45,4.85,1.34,1.43,2.62,2.91,4.12,4.14.71.65,1.43,1.29,2.22,1.82.78.55,1.52,1.14,2.31,1.66,1.63.95,3.2,1.96,4.91,2.67,1.64.85,3.4,1.35,5.08,1.97.86.25,1.74.43,2.59.65l1.29.31c.43.09.87.13,1.3.19.86.12,1.72.23,2.58.35.85.08,1.71.07,2.56.12,1.69.13,3.36-.06,4.99-.16,6.54-.6,12.37-2.97,17.07-5.92,4.72-2.99,8.31-6.67,10.89-10.27,2.56-3.62,4.29-7.09,5.24-10.06.58-1.46.87-2.82,1.16-3.99.14-.59.29-1.12.39-1.62.07-.5.14-.96.2-1.37.12-.8.21-1.41.28-1.86.07-.42.12-.63.12-.63,0,0,0,.22-.05.64-.05.45-.12,1.07-.22,1.87-.05.41-.11.87-.17,1.38-.09.5-.23,1.04-.36,1.64-.27,1.18-.55,2.55-1.11,4.03-.92,3.01-2.62,6.52-5.18,10.19-2.57,3.65-6.18,7.4-10.94,10.44-4.74,3.02-10.63,5.44-17.27,6.07-1.66.1-3.34.31-5.06.18-.86-.04-1.73-.03-2.59-.11-.86-.11-1.74-.23-2.61-.35-.44-.07-.88-.1-1.32-.19l-1.31-.31c-.87-.22-1.76-.39-2.63-.65-1.71-.62-3.5-1.12-5.16-1.98-1.73-.72-3.34-1.73-4.99-2.7-.8-.52-1.56-1.12-2.35-1.68-.81-.54-1.53-1.19-2.26-1.85-1.52-1.24-2.82-2.74-4.19-4.2-1.21-1.59-2.5-3.15-3.51-4.92-2.09-3.48-3.85-7.29-4.77-11.41-.96-4.09-1.31-8.39-1-12.7.42-4.3,1.47-8.48,3.1-12.35,1.59-3.9,3.95-7.38,6.59-10.46,1.29-1.58,2.82-2.91,4.28-4.27,1.59-1.21,3.12-2.47,4.82-3.44.83-.53,1.65-1.05,2.53-1.45.87-.42,1.72-.88,2.6-1.27,1.79-.68,3.54-1.41,5.37-1.83,1.79-.57,3.63-.77,5.42-1.1.9-.11,1.81-.13,2.7-.21l1.34-.09c.45-.02.89.02,1.33.03.88.03,1.76.06,2.63.09.87.06,1.72.22,2.58.32,1.71.16,3.34.64,4.96,1.01,6.44,1.73,11.84,5.09,16.02,8.85,4.19,3.79,7.13,8.09,9.06,12.11,1.91,4.04,3.01,7.79,3.42,10.91.31,1.55.36,2.95.43,4.16.03.6.08,1.16.08,1.67-.02.51-.04.97-.06,1.39-.04.81-.07,1.43-.09,1.88-.02.42-.05.64-.05.64Z" style="fill:#263238;"/><path d="m420.39,94.16c-3.09-.21-5.58-.56-5.57-.79.01-.23,2.53-.36,5.62-.28,3.09.08,5.58.43,5.57.79-.02.36-2.53.49-5.62.28Z" style="fill:#263238;"/><path d="m410.72,113.93c-2.05-2.32-3.57-4.33-3.4-4.48.17-.16,2.04,1.53,4.19,3.75,2.14,2.23,3.67,4.23,3.4,4.48-.27.25-2.14-1.43-4.19-3.75Z" style="fill:#263238;"/><path d="m389.94,121.19c.18-3.09.5-5.58.73-5.57.23.01.38,2.52.34,5.61-.04,3.09-.37,5.59-.73,5.58-.36-.01-.52-2.53-.34-5.62Z" style="fill:#263238;"/><path d="m370.06,111.74c2.3-2.07,4.29-3.62,4.44-3.45.16.17-1.5,2.06-3.71,4.23-2.2,2.17-4.19,3.71-4.44,3.45-.25-.27,1.41-2.16,3.71-4.23Z" style="fill:#263238;"/><path d="m362.57,91.04c3.09.14,5.59.44,5.58.67,0,.23-2.51.41-5.61.4-3.09,0-5.59-.31-5.59-.67,0-.36,2.53-.54,5.61-.4Z" style="fill:#263238;"/><path d="m371.81,71.06c2.1,2.27,3.66,4.25,3.5,4.41-.17.16-2.08-1.48-4.27-3.66-2.19-2.18-3.76-4.15-3.5-4.4.26-.25,2.17,1.39,4.27,3.66Z" style="fill:#263238;"/><path d="m392.42,63.34c-.11,3.09-.38,5.59-.61,5.59-.23,0-.44-2.51-.46-5.6-.02-3.09.25-5.6.61-5.59.36,0,.57,2.52.46,5.61Z" style="fill:#263238;"/><path d="m412.51,72.36c-2.25,2.12-4.21,3.71-4.37,3.54-.16-.16,1.46-2.09,3.61-4.31,2.15-2.22,4.11-3.8,4.37-3.54.26.26-1.36,2.19-3.61,4.31Z" style="fill:#263238;"/><path d="m403.31,73.32c-.28,5.79-.94,11.56-1.97,17.26-.37,2.06-.8,4.15-1.75,6.02-.95,1.87-2.49,3.53-4.48,4.18-1.99.66-4.44.11-5.65-1.6l13.85-25.86Z" style="fill:#e0e0e0;"/><polygon points="389.99 90.16 406.31 67.26 395.41 93.73 390.89 94.69 389.99 90.16" style="fill:#ff725e;"/><g style="fill:none; opacity:.4;"><polygon points="406.31 67.26 393.65 90.99 395.41 93.73 406.31 67.26"/></g><path d="m395.49,95.07c-.21,2.54-2.45,4.43-4.99,4.22-2.54-.21-4.43-2.45-4.22-4.99.21-2.54,2.45-4.43,4.99-4.22,2.54.21,4.43,2.45,4.22,4.99Z" style="fill:#fafafa;"/><path d="m395.49,95.07c-.06,0-.03-.41-.18-1.12-.15-.69-.54-1.7-1.49-2.52-.92-.82-2.48-1.36-4.07-.91-1.57.41-3.01,1.92-3.15,3.81-.17,1.89,1,3.62,2.48,4.28,1.49.71,3.12.44,4.16-.22,1.08-.65,1.63-1.59,1.89-2.24.26-.67.3-1.08.36-1.07.03,0,.08.42-.12,1.15-.2.72-.73,1.77-1.88,2.55-1.12.78-2.95,1.16-4.66.38-1.7-.72-3.08-2.7-2.87-4.88.16-2.18,1.85-3.91,3.64-4.33,1.82-.48,3.56.19,4.53,1.15,1.01.96,1.36,2.09,1.43,2.83.07.75-.05,1.16-.08,1.16Z" style="fill:#263238;"/><path d="m394.31,94.97c-.16,1.89-1.82,3.3-3.71,3.14-1.89-.16-3.3-1.82-3.14-3.71.16-1.89,1.82-3.3,3.71-3.14,1.89.16,3.3,1.82,3.14,3.71Z" style="fill:#455a64;"/><path d="m345.32,116.7s-.09-.08-.23-.26c-.16-.2-.36-.46-.61-.78-.27-.34-.58-.75-.91-1.27-.33-.51-.74-1.07-1.11-1.75-.19-.33-.39-.68-.6-1.04-.21-.36-.39-.76-.6-1.16-.43-.8-.79-1.69-1.19-2.63-.74-1.89-1.42-4.02-1.9-6.32-.46-2.3-.67-4.53-.73-6.56,0-1.02-.02-1.98.06-2.88.03-.45.04-.89.09-1.3.05-.41.1-.81.15-1.2.08-.76.23-1.44.34-2.04.1-.6.23-1.11.34-1.52.1-.39.19-.7.26-.95.06-.22.1-.33.11-.33.01,0,0,.12-.05.34-.05.25-.12.57-.2.96-.1.42-.21.93-.29,1.53-.09.6-.23,1.28-.29,2.04-.04.38-.08.78-.13,1.19-.04.41-.05.85-.07,1.3-.07.9-.04,1.85-.03,2.86.07,2.01.29,4.22.75,6.51.48,2.28,1.14,4.4,1.86,6.28.39.93.74,1.82,1.16,2.62.2.4.38.8.58,1.16.2.36.4.71.58,1.05.35.68.75,1.24,1.07,1.76.31.52.61.95.87,1.29.23.33.42.6.56.81.13.19.19.29.18.29Z" style="fill:#263238;"/><path d="m335.19,107.75c-.08.02-.67-2.07-1.32-4.66-.65-2.6-1.11-4.72-1.03-4.74.08-.02.67,2.07,1.32,4.66.65,2.6,1.11,4.72,1.03,4.74Z" style="fill:#263238;"/></g><g id="g"><path d="m281.86,201.87c.16-5.28,1.09-10.53.98-15.82-.11-5.28-1.4-10.81-5.01-14.66-3.61-3.85-9.99-5.42-14.35-2.44l-.97,4.48c1.33,20.4.72,41.1,2.04,61.51.17,2.68,2.3,5.14,3.48,7.56,1.17,2.42,3.58,4.44,6.26,4.32,3.51-.15,5.88-3.66,7.03-6.99,4.17-12.04.15-25.23.54-37.96Z" style="fill:#263238;"/><path d="m269.66,174.24c-.74-1.32-1.51-2.66-2.62-3.69-1.11-1.03-2.64-1.72-4.13-1.47-.7.12-1.42.51-1.67,1.17-.25.67.24,1.58.95,1.53l.15.13c1.56,1.43,3.14,2.83,4.75,4.19.41.34.83.69,1.33.86.51.17,1.12.1,1.48-.29.6-.65.19-1.68-.24-2.44Z" style="fill:#ff725e;"/><path d="m272.55,179.48c-5.15-6.53-12.15-10.37-20.46-10.66-4.69-.16-6.65.78-10.04,1.63-3.39.85-6.48,2.61-8.54,5.43-2.46,3.35-4.54,7.12-5.06,11.24-.54,4.23-.29,8.39.45,11.83.9,4.17,3.64,10.58,6.08,14.08l7.18,1.01c5.98.31,12.04.62,17.89-.64,5.85-1.26,11.57-4.29,14.79-9.34,4.47-7.02,2.87-18.05-2.28-24.58Z" style="fill:#263238;"/><path d="m262.91,179.24l-14.33-6-3.78.37c-8.49-.12-14.51,9.13-14.69,16-.2,7.64-.15,16.97.97,22.62,2.23,11.36,11.88,12.48,11.88,12.48,0,0-.5,10.22-.64,14.02l22.61-1.62,1.75-53.93c-.03-2.09-1.66-3.8-3.75-3.95Z" style="fill:#ffbf9d;"/><path d="m248.09,209.88c-.07-.6-.39-1.13-.81-1.5-.83-.74-2.07-.83-2.98-.22-.92.61-1.46,1.88-1.31,3.07h0c.5.71,1.26,1.19,2.12,1.28.13.01.27.02.4.02.65,0,1.32-.21,1.83-.69.51-.47.83-1.23.75-1.97Z" style="fill:#ff9a6c;"/><path d="m234.51,199.9c0,.78.66,1.41,1.47,1.43.81.01,1.46-.6,1.46-1.38,0-.78-.66-1.41-1.47-1.43-.81-.01-1.47.6-1.46,1.38Z" style="fill:#263238;"/><path d="m232.62,193.47c.19.18,1.27-.68,2.85-.73,1.57-.08,2.76.69,2.93.49.08-.09-.12-.43-.63-.78-.51-.35-1.37-.67-2.35-.63-.98.04-1.8.43-2.26.82-.47.39-.62.74-.53.82Z" style="fill:#263238;"/><path d="m242.52,206.01c0-.09-.98-.22-2.58-.37-.4-.03-.79-.09-.87-.37-.11-.29.05-.73.23-1.2.34-.99.7-2.03,1.08-3.11,1.49-4.43,2.56-8.06,2.38-8.12-.18-.06-1.54,3.48-3.03,7.91-.36,1.09-.7,2.13-1.03,3.13-.14.46-.38.99-.15,1.59.12.3.42.5.68.56.26.07.49.07.69.07,1.6.03,2.59,0,2.6-.09Z" style="fill:#263238;"/><path d="m242.93,224.69s7.71.21,15.16-4.64c0,0-3.79,8.07-15.27,7.42l.11-2.78Z" style="fill:#ff9a6c;"/><path d="m247.2,206.94c-.26,0-.2,1.71-1.62,2.98-1.42,1.27-3.25,1.15-3.25,1.39-.02.11.42.32,1.19.31.76,0,1.85-.29,2.72-1.06.87-.78,1.22-1.79,1.25-2.49.04-.72-.17-1.14-.28-1.12Z" style="fill:#263238;"/><path d="m233.26,187.96c.28.38,1.48.07,2.89.14,1.42.02,2.6.39,2.9.04.13-.17-.04-.54-.54-.91-.5-.37-1.34-.69-2.32-.72-.97-.03-1.83.25-2.35.58-.52.34-.71.7-.59.88Z" style="fill:#263238;"/><path d="m252.38,199.18c.03.77-.61,1.44-1.42,1.48-.81.04-1.48-.55-1.51-1.32-.03-.77.61-1.44,1.41-1.48.81-.04,1.49.55,1.51,1.32Z" style="fill:#263238;"/><path d="m253.96,193.25c-.18.19-1.29-.63-2.87-.63-1.58-.02-2.74.79-2.91.6-.08-.09.1-.43.61-.8.5-.36,1.34-.72,2.33-.72.98,0,1.81.37,2.29.74.48.37.65.72.56.8Z" style="fill:#263238;"/><path d="m253.1,188.18c-.31.36-1.53-.01-2.99-.03-1.46-.06-2.7.24-2.99-.14-.13-.18.07-.54.61-.88.53-.34,1.43-.61,2.43-.59,1.01.03,1.88.35,2.39.72.52.37.69.74.55.91Z" style="fill:#263238;"/><path d="m264.35,202.34c-.03-.85.88-2.89,1.72-3.06,2.23-.43,6.28-.4,6.53,5.3.34,7.79-7.56,6.52-7.58,6.3-.02-.17-.57-5.6-.67-8.54Z" style="fill:#ffbf9d;"/><path d="m267.04,207.94s.14.09.37.18c.23.09.62.15,1.02-.02.81-.34,1.45-1.67,1.42-3.08-.01-.71-.19-1.38-.46-1.93-.26-.56-.65-.94-1.07-1-.42-.08-.7.18-.79.41-.1.22-.04.38-.08.39-.02.02-.17-.12-.12-.45.03-.16.11-.34.29-.5.18-.16.45-.25.74-.23.6.02,1.17.55,1.47,1.15.34.6.55,1.35.56,2.15.02,1.57-.72,3.08-1.83,3.45-.54.17-1.01.02-1.25-.15-.25-.18-.3-.35-.27-.37Z" style="fill:#ff9a6c;"/><path d="m266.38,199.31l-2.01,2.02c-8.39-8.33-24.71-29.1-23.8-27.86,0,0,5.89-2.3,12.22-1.1,6.33,1.2,18.32,4.6,17.99,12.08-.32,7.49-4.41,14.87-4.41,14.87Z" style="fill:#263238;"/><path d="m277.72,197.79s-.03-.16-.11-.45c-.09-.29-.25-.72-.51-1.24-.52-1.03-1.53-2.44-3.19-3.72-1.63-1.31-3.9-2.4-6.49-3.27-2.59-.9-5.51-1.61-8.37-2.9-2.88-1.24-5.44-2.83-7.61-4.45-2.17-1.64-3.95-3.33-5.34-4.84-1.39-1.52-2.39-2.85-3.07-3.78-.31-.44-.56-.8-.76-1.09-.18-.25-.27-.37-.29-.37-.01,0,.06.15.22.41.16.26.38.65.7,1.13.64.96,1.62,2.33,2.99,3.88,1.37,1.55,3.15,3.28,5.33,4.95,2.18,1.65,4.76,3.26,7.67,4.52,2.9,1.31,5.84,2.01,8.41,2.88,2.58.85,4.82,1.89,6.44,3.14,1.64,1.23,2.66,2.57,3.22,3.57.55,1,.72,1.63.76,1.62Z" style="fill:#455a64;"/><path d="m275.43,198.98s.09-.64-.27-1.71c-.34-1.06-1.24-2.51-2.86-3.72-1.6-1.24-3.91-2.04-6.45-2.66-2.55-.61-5.32-1.38-8.02-2.71-2.7-1.31-5.12-2.89-7.11-4.57-2-1.67-3.61-3.4-4.84-4.94-1.25-1.53-2.08-2.9-2.68-3.83-.26-.45-.47-.81-.64-1.1-.15-.25-.24-.38-.25-.37-.01,0,.05.15.18.41.15.3.34.68.58,1.14.56.96,1.36,2.36,2.59,3.93,1.22,1.57,2.82,3.34,4.83,5.05,2,1.72,4.44,3.32,7.18,4.65,2.74,1.34,5.56,2.12,8.11,2.7,2.54.61,4.79,1.36,6.37,2.53,1.6,1.14,2.5,2.52,2.88,3.54.4,1.03.36,1.66.42,1.65Z" style="fill:#455a64;"/><path d="m265.88,212.48c0-.05.66-.13,1.82-.41,1.15-.3,2.79-.97,4.4-2.36,1.63-1.36,3.1-3.51,4.16-6.12,1.05-2.61,1.71-5.69,1.85-8.95.06-1.63-.03-3.21-.29-4.73-.28-1.51-.7-2.93-1.21-4.24-1.07-2.61-2.51-4.75-3.92-6.35-2.84-3.22-5.23-4.54-5.14-4.65,0-.02.16.07.43.23.27.17.68.4,1.16.77.99.7,2.36,1.8,3.82,3.41,1.47,1.6,2.97,3.75,4.08,6.41.54,1.34.98,2.79,1.27,4.33.27,1.55.37,3.18.31,4.84-.14,3.31-.83,6.45-1.93,9.11-1.1,2.66-2.65,4.84-4.36,6.21-1.7,1.39-3.4,2.03-4.59,2.27-.59.15-1.07.15-1.38.19-.32.03-.48.04-.48.02Z" style="fill:#455a64;"/><path d="m302.25,369.74h-92.77c-1.88,0-3.4-1.52-3.4-3.4h0c0-1.88,1.52-3.4,3.4-3.4h92.77c1.88,0,3.4,1.52,3.4,3.4h0c0,1.88-1.52,3.4-3.4,3.4Z" style="fill:#455a64;"/><path d="m306.09,464.09c-1.22.12-2.3-.79-2.42-2.04l-8.14-84.41c-.17-1.76-1.6-3.09-3.32-3.09h-71.08c-1.72,0-3.15,1.33-3.32,3.09l-8.14,84.41c-.12,1.25-1.21,2.16-2.42,2.04h0c-1.22-.12-2.11-1.24-1.99-2.49l8.14-84.41c.39-4.08,3.73-7.19,7.73-7.19h71.08c3.99,0,7.33,3.11,7.73,7.19l8.14,84.41c.12,1.25-.77,2.36-1.99,2.49h0Z" style="fill:#e0e0e0;"/><path d="m306.09,464.09s.52.02,1.21-.56c.33-.29.66-.79.73-1.44.03-.65-.12-1.43-.18-2.31-.35-3.51-.86-8.68-1.53-15.32-1.3-13.32-3.19-32.58-5.52-56.37-.29-2.98-.59-6.02-.89-9.13-.09-.77-.13-1.58-.25-2.33-.14-.76-.38-1.5-.72-2.2-.71-1.38-1.83-2.59-3.24-3.33-.7-.37-1.47-.63-2.26-.77-.78-.15-1.61-.1-2.44-.11-1.66,0-3.34,0-5.04,0-3.39,0-6.85,0-10.36,0-14.06,0-29.08.02-44.89.02-1.98,0-3.96,0-5.96,0-1,0-2,0-3.01,0-1.01-.02-1.97.06-2.91.38-1.86.61-3.46,2-4.36,3.77-.97,1.76-.86,3.88-1.12,5.93-.79,8.24-1.6,16.65-2.43,25.21-1.65,17.12-3.36,34.85-5.11,53.01-.1,1.12-.24,2.3-.3,3.37.02,1.02.91,1.94,1.93,1.92,1.02.03,1.92-.86,1.97-1.89.11-1.12.22-2.25.33-3.37.43-4.48.86-8.94,1.29-13.36.85-8.84,1.7-17.56,2.52-26.12.83-8.56,1.64-16.97,2.44-25.21.4-4.12.79-8.19,1.18-12.22.1-1.01.19-2.01.29-3.01.06-.5.07-.99.18-1.53.12-.52.35-1.02.69-1.44.65-.85,1.71-1.37,2.78-1.37.99,0,1.99,0,2.97,0,15.81,0,30.83.02,44.89.02,7.03,0,13.82.01,20.35.01.82,0,1.63,0,2.43,0,.8-.05,1.72.11,2.4.61.7.48,1.21,1.21,1.43,2.01.19.83.18,1.59.28,2.37.3,3.11.59,6.16.87,9.14,2.26,23.8,4.09,43.06,5.36,56.38.62,6.65,1.1,11.82,1.43,15.33.1.87.1,1.66.26,2.3.2.63.61,1.05.99,1.28.8.44,1.31.27,1.3.31.02-.02-.5.17-1.32-.26-.39-.22-.83-.65-1.04-1.3-.17-.66-.17-1.44-.29-2.31-.35-3.51-.86-8.67-1.53-15.32-1.3-13.32-3.19-32.57-5.52-56.36-.29-2.98-.59-6.02-.89-9.14-.1-.76-.11-1.6-.28-2.31-.2-.72-.65-1.37-1.28-1.79-.63-.44-1.37-.58-2.18-.54-.81,0-1.62,0-2.43,0-6.53,0-13.32,0-20.35.02-14.06,0-29.08.02-44.89.02-.99,0-1.98,0-2.97,0-.92,0-1.83.45-2.4,1.18-.29.36-.49.8-.59,1.25-.1.44-.12.97-.17,1.46-.1,1-.19,2.01-.29,3.01-.39,4.03-.78,8.11-1.18,12.22-.79,8.24-1.6,16.65-2.43,25.21-.82,8.56-1.66,17.28-2.52,26.12-.43,4.42-.86,8.88-1.29,13.36-.11,1.12-.22,2.24-.32,3.37-.05,1.25-1.19,2.4-2.49,2.36-1.3.02-2.43-1.14-2.45-2.42.06-1.21.21-2.29.3-3.44,1.75-18.16,3.47-35.89,5.12-53.01.83-8.56,1.64-16.97,2.44-25.21.1-1.03.2-2.06.3-3.08.1-1.05.39-2.09.88-3.03.96-1.88,2.66-3.36,4.64-4.01.98-.34,2.06-.42,3.06-.4,1.01,0,2.01,0,3.01,0,2,0,3.99,0,5.96,0,15.81,0,30.83.02,44.89.02,3.51,0,6.97,0,10.36,0,1.7,0,3.38,0,5.04,0,.82,0,1.67-.04,2.51.12.83.14,1.64.42,2.38.81,1.48.79,2.66,2.05,3.4,3.51.36.74.61,1.52.75,2.31.13.81.17,1.58.25,2.36.3,3.11.59,6.16.87,9.14,2.26,23.8,4.09,43.06,5.36,56.38.62,6.65,1.1,11.82,1.43,15.33.06.88.2,1.64.16,2.32-.08.68-.43,1.18-.78,1.48-.72.59-1.27.5-1.25.52Z" style="fill:#263238;"/><rect x="220.97" y="242.92" width="86.25" height="67.71" rx="9.85" ry="9.85" style="fill:#455a64;"/><path d="m220.23,241.4s-1.21-2.56,2.8-5.05c4.01-2.49,19.63-5.63,19.63-5.63,0,0,.63,5.73,11.92,4.87,8.82-.67,10.24-6.75,10.24-6.75l22.34,3.02s2.3,24.88-.87,47.34c-.82,5.78-3.24,32.74-3.24,32.74l5.2,5.36-69.72,2.52,5.65-7.64-.82-43.4-3.12-27.38Z" style="fill:#9184ff;"/><path d="m283.04,231.39s7.12-.11,12.03,4.23c4.91,4.35,12.66,21.62,12.66,21.62l-21.54,12.35-3.15-38.21Z" style="fill:#9184ff;"/><path d="m205.51,256.28l22.09,15.49-3.44-35.61s-5.59-1.44-18.66,20.13Z" style="fill:#9184ff;"/><path d="m288.64,246.47s.04.36.02,1c-.04.76-.08,1.66-.13,2.71-.14,2.42-.33,5.5-.53,8.91-.2,3.48-.33,6.63-.4,8.92-.08,2.28-.11,3.7-.19,3.7-.04,0-.07-.35-.11-.99-.04-.64-.06-1.57-.07-2.71-.02-2.29.05-5.45.25-8.94.2-3.49.46-6.64.68-8.91.11-1.14.21-2.06.29-2.69.08-.63.14-.98.18-.98Z" style="fill:#263238;"/><path d="m220.57,249.7c.14-.02.88,4.82,1.64,10.81.77,5.99,1.27,10.85,1.13,10.87-.14.02-.88-4.82-1.64-10.81-.77-5.99-1.27-10.85-1.13-10.87Z" style="fill:#263238;"/><path d="m252.16,351s-4.05,12.84-3.21,26.26c.84,13.43,1.98,75.65,1.55,76.69-.43,1.03,21.57,4.13,21.57,4.13,0,0,5.57-31.24,6.69-39.25,1.11-8,3.62-9.81,3.34-31.5-.28-21.69,5.86-17.15,10.31-24.33,4.45-7.17,6.12-13.89,3.61-26.28-2.51-12.39-13.55-23.71-13.55-23.71l-23.5,9.51-8.68,24.42,1.86,4.06Z" style="fill:#263238;"/><path d="m295.5,375.45l11.97,21.46,14.75,14.44c1.06,1.04.95,2.7-.24,3.61h0c-.67.51-1.55.69-2.39.48-5.32-1.33-24.62-6.67-25.37-7.76-1.18-1.73-14.52-22.05-14.52-22.05l15.8-10.18Z" style="fill:#263238;"/><path d="m321.98,414.96l-28.87-8.9.53.9c.62.87,1.19,1.38,2.09,1.7,2.38.85,9.03,3.05,23.8,6.82.86.22,1.79.02,2.46-.52h0Z" style="fill:#455a64;"/><path d="m311.29,408.34c.16,0,.02-1.38,1.03-2.66.97-1.31,2.41-1.66,2.36-1.8-.01-.06-.4-.08-.97.12-.57.2-1.31.66-1.85,1.37-.54.72-.77,1.51-.77,2.08,0,.57.14.9.21.89Z" style="fill:#fff;"/><path d="m314.59,410.36c.16.04.49-1.02,1.49-1.94.98-.93,2.12-1.25,2.08-1.4,0-.14-1.36-.03-2.48,1.02-1.13,1.05-1.23,2.31-1.08,2.31Z" style="fill:#fff;"/><path d="m306.11,406.24c.17.05.66-1.59,2.08-3.13,1.39-1.57,3.04-2.31,2.96-2.45-.03-.13-1.9.43-3.4,2.11-1.52,1.66-1.79,3.47-1.64,3.47Z" style="fill:#fff;"/><path d="m301.89,400c.14.1,1.11-1.03,2.72-1.92,1.6-.91,3.13-1.18,3.1-1.34,0-.14-1.68-.09-3.4.88-1.73.96-2.56,2.31-2.43,2.38Z" style="fill:#fff;"/><path d="m222.95,317.6s24.22-8.18,32.14-8.18,12.47.97,17.52,11.12c5.95,11.94,33.15,68.94,33.1,68.43l-19.37,10.61s-24.65-33.86-29.93-42.02l-5.28-8.16s2.93,9.31-2.8,13.39c-5.72,4.08-27.04,1.97-33.2-4.15-6.16-6.12-7.14-12.1-4.94-22.3,2.2-10.2,12.76-18.75,12.76-18.75Z" style="fill:#263238;"/><path d="m248.23,327.8c.08.05-1.2.81-1.92,2.8-.35.98-.52,2.21-.38,3.57.12,1.36.53,2.84,1.01,4.37.95,3.07,2.1,5.76,3,7.68.43.89.8,1.64,1.1,2.26.27.53.41.83.38.85-.03.01-.22-.26-.54-.77-.31-.51-.75-1.26-1.24-2.21-.99-1.9-2.19-4.6-3.15-7.69-.48-1.54-.88-3.05-.99-4.46-.12-1.41.09-2.7.5-3.7.4-1.01.98-1.72,1.43-2.14.46-.42.78-.58.79-.56Z" style="fill:#455a64;"/><path d="m273.18,432.93l-1.32,27.43,5.7,21.97c.41,1.58-.71,3.16-2.44,3.43h0c-.97.15-1.95-.13-2.65-.78-4.42-4.11-20.18-19.5-20.25-20.96-.11-2.33-.84-29.35-.84-29.35l21.79-1.74Z" style="fill:#263238;"/><path d="m275.12,485.76l-23.01-23.93-.03,1.16c.08,1.19.33,1.99,1.02,2.77,1.83,2.09,7.03,7.74,19.28,19.22.71.67,1.74.96,2.74.78h0Z" style="fill:#455a64;"/><path d="m268.63,473.63c.17.08.87-1.34,2.65-2.08,1.75-.79,3.38-.37,3.42-.54.03-.07-.34-.29-1.03-.39-.68-.11-1.69-.04-2.66.38-.97.42-1.68,1.09-2.03,1.64-.36.56-.41.96-.34.99Z" style="fill:#fff;"/><path d="m270.65,477.35c.14.12,1.11-.75,2.65-1.13,1.53-.41,2.85-.12,2.9-.29.09-.14-1.32-.75-3.07-.29-1.75.44-2.63,1.63-2.48,1.71Z" style="fill:#fff;"/><path d="m264.82,468.84c.14.13,1.62-1.22,3.96-2,2.33-.81,4.4-.68,4.41-.86.05-.15-2.14-.57-4.64.3-2.51.84-3.88,2.48-3.74,2.56Z" style="fill:#fff;"/><path d="m264.46,460.48c.08.17,1.73-.43,3.86-.46,2.13-.06,3.81.48,3.87.31.08-.13-1.6-.97-3.89-.91-2.29.04-3.93.94-3.84,1.07Z" style="fill:#fff;"/><path d="m286.34,399.59s-.19-.21-.5-.63c-.34-.46-.8-1.08-1.36-1.86-1.2-1.67-2.88-4.02-4.94-6.9-4.16-5.89-9.85-13.96-16.14-22.87-4.6-6.58-8.87-12.69-12.44-17.8l.39-.17c1.01,5.34-.09,10.12-2.18,12.55-1,1.24-2.16,1.84-2.97,2.06-.4.15-.73.16-.94.19-.21.03-.32.03-.33.02,0-.05.45-.07,1.22-.34.77-.26,1.87-.87,2.81-2.1,1.96-2.39,2.99-7.07,1.95-12.31l-.2-1.01.59.84c3.59,5.1,7.89,11.2,12.51,17.76,6.24,8.94,11.89,17.04,16.01,22.96,2.01,2.92,3.64,5.3,4.81,6.99.54.8.96,1.44,1.28,1.92.29.44.43.68.42.69Z" style="fill:#455a64;"/><path d="m302.41,381.65c-.13.06-7.34-14.44-16.09-32.4-8.76-17.96-15.76-32.57-15.63-32.63.13-.06,7.33,14.44,16.09,32.4,8.76,17.95,15.75,32.56,15.63,32.63Z" style="fill:#455a64;"/><path d="m206.76,257.09s-18.07,25.68-18.06,34.28c0,4.85,3,9.85,7.83,10.85,5.15,1.07,16.51,2.29,16.51,2.29l2.01-14.02-6.35-2.48,14.65-19.22-16.59-11.69Z" style="fill:#ffbf9d;"/><path d="m224.67,294.39s7.31,10.07,7.31,10.07l2.2.8-.37-2.16-6.64-10.49-2.5,1.78Z" style="fill:#263238;"/><path d="m232.11,302.14s0-1.57.45-2.02c.45-.45,1.9-2.35,1.57-3.36-.34-1.01-2.69-1.79-3.36-2.91-.67-1.12,0-2.35-2.13-3.47-2.13-1.12-9.86-2.83-11.54-2.26-1.68.58-2.58,3.75-2.58,3.75,0,0-2.79.3-2.46,4.56l-.03,1.12s-.7,3.36,0,4.59c0,0-.87,2.47,1.15,3.81s9.01.22,9.77,0c0,0,1.92.45,2.91-.45.99-.9.54-2.69.54-2.69,0,0,1.68,0,2.24-.9l.56-.9s1.23,1.9,2.13,1.9.78-.78.78-.78Z" style="fill:#ffbf9d;"/><path d="m210.83,274.03l12.96,17.27,4.43,3.09-1.04-2.19-14.21-19.74c-.45-.63-1.35-.74-1.94-.24h0c-.54.45-.63,1.25-.21,1.82Z" style="fill:#263238;"/><path d="m221.97,290.07s.31.1.83.36c.52.27,1.25.68,2.12,1.26.87.58,1.88,1.31,2.86,2.31.48.51.98,1.06,1.32,1.8.16.36.28.79.2,1.25-.07.46-.38.88-.79,1.1-.82.47-1.76.25-2.45-.03-.71-.28-1.36-.59-1.98-.91-1.23-.64-2.27-1.33-3.1-1.96-.83-.63-1.46-1.2-1.87-1.61-.41-.41-.61-.66-.59-.69.06-.06.99.83,2.68,2,.85.58,1.89,1.23,3.11,1.83.61.3,1.26.59,1.94.86.66.26,1.41.4,2.01.05.61-.32.67-1.08.37-1.7-.27-.63-.74-1.17-1.2-1.67-.92-.98-1.9-1.73-2.73-2.34-1.67-1.2-2.79-1.85-2.74-1.92Z" style="fill:#ff9a6c;"/><path d="m226.22,303.03c-.02.13-2.13-.15-4.52-1.17-2.4-1.01-4.07-2.33-3.99-2.43.09-.13,1.85.97,4.19,1.95,2.34,1,4.35,1.5,4.32,1.65Z" style="fill:#ff9a6c;"/><path d="m221.65,306.01c-.06.13-1.28-.25-2.73-.86-1.45-.61-2.58-1.2-2.53-1.33.05-.13,1.28.24,2.73.85,1.45.61,2.58,1.21,2.52,1.34Z" style="fill:#ff9a6c;"/><path d="m230.08,296.09c.1.11-.8.84-1.1,2.12-.31,1.27.16,2.33.02,2.38-.06.03-.26-.19-.43-.64-.17-.44-.27-1.13-.1-1.86.17-.73.58-1.3.93-1.62.35-.33.64-.43.68-.38Z" style="fill:#ff9a6c;"/><path d="m231.61,296.09c-.02.14-.42.2-.86.29-.45.09-.83.2-.91.07-.08-.11.25-.47.8-.58.56-.11,1,.08.97.22Z" style="fill:#ff9a6c;"/><path d="m228.99,292.87c.07.13-.26.44-.42.94-.18.49-.12.94-.25,1-.12.08-.49-.47-.24-1.17.24-.7.87-.9.92-.76Z" style="fill:#ff9a6c;"/><path d="m212.11,304.52s-.26-.17-.38-.69c-.11-.48-.06-1.39.77-2l-.03.3c-.58-.53-1.05-1.4-1.13-2.41-.09-1,.21-2.18,1.06-3.03l-.07.26c-.02-.07-.04-.14-.06-.21-.34-1.18-.58-2.49-.02-3.57.54-1.03,1.72-1.57,2.58-1.21l-.24.17c.02-.8.28-1.41.5-1.78.22-.37.41-.53.43-.51.09.04-.59.81-.56,2.29v.26s-.24-.09-.24-.09c-.66-.25-1.6.22-2.03,1.09-.43.87-.24,2.05.09,3.21.02.07.04.14.06.21l.04.15-.11.11c-.72.71-1,1.74-.94,2.62.05.9.43,1.67.91,2.17l.17.17-.2.13c-.67.43-.81,1.2-.76,1.64.04.47.22.69.17.72Z" style="fill:#ff9a6c;"/><path d="m199.49,288.75c-.03-.06.4-.38,1.18-.77.77-.38,1.94-.84,3.31-.87,1.36-.02,2.53.27,3.37.46.84.21,1.35.37,1.33.44-.01.07-.55.04-1.4-.08-.85-.1-2.02-.32-3.29-.3-1.27.03-2.38.4-3.18.69-.8.3-1.29.5-1.33.43Z" style="fill:#ff9a6c;"/><path d="m305.94,258.27c.41,2.02,11.34,33.98,11.6,36.54.26,2.56-1.44,9.74-6.79,10.31-4.97.53-44.17,1.24-44.17,1.24l.16-8.36,31.41-7.59-9.52-22.22,17.3-9.92Z" style="fill:#ffbf9d;"/><path d="m305.92,295.05c-.13.09-1.14-2.01-3.54-3.31-2.37-1.36-4.69-1.11-4.68-1.27,0-.06.55-.21,1.48-.18.92.03,2.21.31,3.46,1,1.24.7,2.16,1.65,2.66,2.42.51.77.67,1.33.62,1.35Z" style="fill:#ff9a6c;"/><path d="m244.39,305.53c-1.07-.12-1.62-1.35-1-2.23,1.39-1.98,3.76-5.29,4.25-5.62.71-.47,6.53-2.28,7.08-2.44.55-.16,9.77,1.88,12.68,2.27l5.78-.79.51,7.42s-6.69,1.42-8.19.94c-1.5-.47-2.36-1.5-2.36-1.5l-4.17-.79-4.96,1.18s-3.94,1.57-4.64,1.65-1.26-.39-1.26-.39c0,0-1.95.5-3.72.29Z" style="fill:#ffbf9d;"/><path d="m333.64,308.27h-163.53v152.53c0,1.82,1.48,3.3,3.3,3.3s3.3-1.48,3.3-3.3v-129.43h152.16v129.43c0,1.82,1.48,3.3,3.3,3.3s3.3-1.48,3.3-3.3v-152.53h-1.83Z" style="fill:#e0e0e0;"/><path d="m333.64,308.27s.21,0,1.83-.01h.01c0,4.28.06,36.01.14,87.39,0,12.85.02,26.93.03,42.11-.02,7.6.06,15.42-.04,23.6-.16,1.07-.86,2.03-1.82,2.54-.96.51-2.16.54-3.15.05-.99-.47-1.73-1.44-1.92-2.52-.09-.56-.05-1.07-.06-1.59v-1.57c0-4.19,0-8.44,0-12.75-.01-34.5-.02-72.88-.04-114.14l.24.24c-46.96,0-98.43.01-152.16.02l.26-.26v4.74c0,27.48,0,54.39,0,80.5,0,13.05,0,25.9,0,38.53,0,1.58,0,3.15,0,4.72,0,.4.01.77-.01,1.19-.03.42-.14.84-.31,1.22-.35.77-.98,1.4-1.74,1.75-.76.35-1.65.43-2.46.19-.81-.23-1.52-.76-1.98-1.45-.48-.68-.63-1.59-.59-2.36v-2.33c0-6.19,0-12.32,0-18.39.02-48.54.03-92.95.04-131.41v-.2s.2,0,.2,0c50.23.04,91.11.07,119.44.09,14.16.02,25.18.04,32.67.05,3.74.01,6.59.02,8.52.03,1.92,0,2.91.03,2.91.03,0,0-.99.02-2.91.03-1.93,0-4.78.02-8.52.03-7.49.01-18.51.03-32.67.05-28.33.02-69.21.05-119.44.09l.2-.2c.01,38.46.03,82.87.04,131.41,0,6.07,0,12.2,0,18.39v2.33c-.03.77.09,1.47.51,2.09.78,1.23,2.5,1.73,3.82,1.09.66-.3,1.2-.84,1.5-1.5.33-.66.28-1.4.28-2.21,0-1.57,0-3.14,0-4.72,0-12.62,0-25.47,0-38.53,0-26.1,0-53.01,0-80.5,0-1.63,0-3.25,0-4.74v-.26h.26c53.73,0,105.2.01,152.16.02h.24v.24c-.01,41.26-.03,79.64-.04,114.14,0,4.31,0,8.56,0,12.75v1.57c0,.52-.03,1.05.05,1.52.17.96.82,1.82,1.7,2.24.87.43,1.94.4,2.79-.04.85-.45,1.48-1.3,1.62-2.25.09-8.05.03-15.97.06-23.54.01-15.18.02-29.26.03-42.11.08-51.38.13-83.11.14-87.37h.01c-1.63,0-1.83,0-1.83,0Z" style="fill:#263238;"/><path d="m163.44,304.91h175.99c1.56,0,2.83,1.27,2.83,2.83h0c0,1.56-1.27,2.83-2.83,2.83h-175.99c-1.56,0-2.83-1.27-2.83-2.83h0c0-1.56,1.27-2.83,2.83-2.83Z" style="fill:#455a64;"/><rect x="215.42" y="304.09" width="66.84" height="1.64" style="fill:#fff;"/></g></svg>