<?xml version="1.0" standalone="no"?>
<!DOCTYPE svg PUBLIC "-//W3C//DTD SVG 20010904//EN"
 "http://www.w3.org/TR/2001/REC-SVG-20010904/DTD/svg10.dtd">
<svg version="1.0" xmlns="http://www.w3.org/2000/svg"
 width="380.000000pt" height="380.000000pt" viewBox="0 0 380.000000 380.000000"
 preserveAspectRatio="xMidYMid meet">
<metadata>
Created by potrace 1.14, written by Peter Selinger 2001-2017
</metadata>
<g transform="translate(0.000000,380.000000) scale(0.100000,-0.100000)"
fill="#000000" stroke="none">
<path d="M3297 3794 c-1 -1 -63 -5 -137 -8 -74 -4 -146 -9 -160 -11 -14 -1
-62 -6 -107 -9 -45 -4 -90 -8 -100 -10 -10 -2 -47 -7 -83 -11 -103 -12 -253
-31 -310 -40 -14 -2 -56 -9 -95 -15 -296 -46 -481 -84 -700 -146 -280 -78
-471 -156 -543 -223 -48 -45 -55 -58 -93 -173 -16 -51 -34 -101 -40 -110 -5
-10 -9 -25 -9 -34 0 -13 -6 -15 -32 -10 -115 24 -194 11 -261 -45 -98 -81
-122 -251 -51 -378 13 -24 24 -47 24 -50 0 -4 -16 -13 -35 -20 -54 -19 -113
-81 -140 -147 -19 -47 -23 -73 -21 -129 4 -68 32 -155 55 -169 20 -13 11 -27
-25 -42 -44 -19 -87 -62 -116 -117 -16 -32 -21 -60 -21 -114 0 -61 4 -81 31
-132 l31 -59 -23 -6 c-40 -10 -101 -78 -116 -129 -23 -83 5 -186 69 -259 l31
-36 -46 4 c-62 6 -107 -10 -143 -51 -73 -84 -65 -233 17 -320 15 -17 41 -39
56 -50 28 -20 28 -20 16 -78 -6 -32 -9 -66 -5 -75 3 -9 7 -52 9 -97 11 -236
192 -482 362 -491 22 -1 65 2 95 7 83 13 105 16 224 34 61 9 117 17 125 20 8
2 38 6 65 10 47 6 65 8 133 20 15 2 70 11 122 20 52 8 106 17 120 20 14 2 93
16 175 29 83 14 161 28 175 31 14 3 50 9 80 15 30 6 66 12 80 15 14 3 36 7 50
9 195 37 418 82 510 102 400 89 413 93 437 122 12 15 23 30 24 35 4 17 6 26
31 107 15 47 52 173 83 280 31 107 72 247 90 310 41 143 131 467 184 665 54
204 152 576 156 596 2 9 15 63 29 120 24 99 84 347 91 379 43 191 58 257 60
270 5 31 -17 66 -52 85 -42 23 -53 25 -70 12 -8 -6 -18 -5 -27 2 -17 14 -24
50 -41 201 -3 30 -11 78 -17 106 -7 37 -8 61 0 82 11 33 0 51 -43 66 -37 14
-168 29 -178 20z m157 -397 c2 -43 -3 -74 -21 -125 -28 -75 -103 -330 -103
-349 0 -7 10 -13 23 -13 20 0 25 8 36 53 26 105 95 307 103 299 4 -4 -11 -65
-33 -135 -41 -128 -43 -161 -12 -155 11 2 25 33 45 98 37 121 48 150 59 150
11 0 11 -7 -1 -44 -6 -17 -141 -490 -300 -1051 -160 -561 -315 -1108 -346
-1215 -31 -107 -58 -203 -59 -212 -11 -57 -23 -50 -54 31 -18 46 -39 114 -48
152 -11 53 -19 69 -32 69 -10 0 -20 -2 -23 -5 -12 -13 27 -166 66 -257 25 -58
31 -52 -89 -84 -124 -33 -533 -123 -620 -137 -16 -3 -57 -10 -90 -16 -33 -6
-76 -13 -95 -16 -19 -3 -71 -12 -115 -20 -44 -8 -100 -17 -125 -20 -25 -3 -67
-9 -95 -15 -27 -5 -67 -12 -87 -15 -21 -3 -55 -7 -75 -10 -21 -3 -60 -10 -88
-15 -27 -5 -68 -11 -90 -14 -22 -3 -83 -13 -135 -21 -52 -9 -108 -18 -125 -21
-16 -2 -75 -13 -131 -23 -123 -22 -142 -20 -177 21 l-27 33 47 12 c27 7 57 15
68 17 11 3 29 7 40 10 23 5 158 35 195 43 14 3 32 6 40 8 8 2 37 7 63 11 53 7
83 38 50 51 -13 5 -179 -23 -303 -52 -8 -2 -37 -9 -65 -15 -27 -6 -60 -14 -72
-16 -12 -2 -34 -9 -49 -14 -15 -6 -28 -9 -29 -8 -13 18 -34 93 -28 99 7 6 80
22 238 53 11 2 133 27 271 54 137 28 261 53 275 55 45 9 194 37 219 42 62 13
77 16 110 21 19 3 42 7 50 9 8 2 31 7 50 11 19 3 40 7 45 8 6 1 43 8 83 16 65
12 73 16 70 34 -4 28 -22 27 -201 -8 -83 -17 -590 -116 -627 -123 -40 -7 -563
-112 -586 -118 -17 -4 -24 3 -36 34 -19 47 -40 37 192 86 91 20 183 40 205 45
95 21 192 42 380 80 110 22 211 43 225 46 14 3 36 8 50 10 14 3 36 7 50 9 14
3 39 8 55 11 17 3 62 11 100 19 39 8 86 17 105 20 19 3 71 12 115 20 44 8 98
17 120 20 22 3 65 10 95 15 51 9 80 13 180 25 22 3 57 7 78 10 20 3 66 7 102
10 103 8 149 16 159 29 11 14 89 253 140 431 142 499 416 1451 432 1505 11 36
22 73 24 83 2 10 27 97 56 195 28 97 56 192 61 210 12 44 17 38 22 -31z
m-2591 -499 c16 -12 12 -27 -43 -192 -33 -99 -62 -181 -64 -183 -9 -9 -85 69
-102 105 -34 72 -27 177 15 226 31 37 75 56 127 56 27 0 58 -6 67 -12z m-146
-482 c3 -2 -23 -89 -57 -191 l-62 -186 -24 22 c-34 31 -73 116 -77 164 -2 22
1 56 7 75 14 45 86 117 122 123 33 5 83 1 91 -7z m-157 -490 c0 -5 -18 -68
-41 -140 -23 -72 -41 -137 -42 -144 -1 -21 -21 -8 -51 36 -81 115 -17 262 111
258 13 -1 23 -5 23 -10z m-130 -426 c0 -28 -64 -238 -72 -234 -18 11 -49 87
-51 123 0 22 6 50 17 65 24 37 106 73 106 46z m-125 -440 c9 -14 -48 -231 -59
-227 -6 2 -24 22 -40 45 -63 89 -19 211 71 194 13 -2 25 -8 28 -12z"/>
</g>
</svg>
